<svg xmlns="http://www.w3.org/2000/svg" fill="none" viewBox="0 0 24 24">
  <g clip-path="url(#a)">
    <path fill="#696969" d="M13.1 19.9a5.9 5.9 0 0 1-4.4 1.8 6 6 0 0 1-4.3-1.9 6 6 0 0 1-1.9-4.3c0-1.7.6-3.2 1.8-4.4L12 3.3C13 2.4 14 2 15.2 2c1.3 0 2.3.5 3.2 1.3.8.9 1.3 2 1.3 3.2 0 1.2-.5 2.2-1.3 3l-7.1 7.2c-.5.5-1.2.8-2 .8-.7 0-1.3-.3-1.8-.8s-.8-1.2-.8-2c0-.7.3-1.3.8-1.8l7.1-7 1 1-7 7-.3.9c0 .3 0 .6.3.8.2.2.5.3.8.3.3 0 .6-.1.8-.3l7-7.1c.6-.6 1-1.3 1-2-.1-.8-.4-1.5-1-2-.5-.6-1.2-1-2-1s-1.4.3-2 1l-7.8 7.8c-1 .9-1.4 2-1.3 3.2 0 1.2.5 2.3 1.4 3.2a4.5 4.5 0 0 0 6.5 0l7.8-7.7 1 1.1-7.7 7.8Z"/>
  </g>
  <defs>
    <clipPath id="a">
      <path fill="#fff" d="M0 0h24v24H0z"/>
    </clipPath>
  </defs>
</svg>
