<svg fill="none" viewBox="0 0 24 24" xmlns="http://www.w3.org/2000/svg"><path d="M19 2.1h-8.6a1 1 0 0 0-.7.3L4.3 7.8a1 1 0 0 0-.3.7v12.6a1 1 0 0 0 1 1h14a1 1 0 0 0 1-1v-18a1 1 0 0 0-.3-.7 1 1 0 0 0-.7-.3zm-1 18H6v-11h4a1 1 0 0 0 1-1v-4h7v16zm-8.5-2.3c-.3 0-.6-.1-.8-.3-.2-.3-.3-.6-.3-1s0-.8.3-1c.2-.2.5-.3.8-.3a7.8 7.8 0 0 1 .7 0v-.6a2.9 2.9 0 0 0-.7 0 2 2 0 0 0-1.3.4c-.4.4-.6.9-.6 1.6 0 .6.2 1 .5 1.3.4.3.8.5 1.3.5a3.6 3.6 0 0 0 .9-.1v-.6h-.8zm2.9-1.6-.5-.1a.9.9 0 0 1-.4-.2v-.3l.1-.3.6-.1h.8v-.6h-.8c-.5 0-.8 0-1.1.3a1 1 0 0 0-.4.8c0 .2 0 .4.2.6 0 .2.3.3.5.3l.5.2.4.2.1.3c0 .1 0 .2-.2.3l-.6.2a5 5 0 0 1-1-.1v.6a4.6 4.6 0 0 0 1 0c.5 0 .9 0 1.1-.2s.5-.6.5-1l-.2-.5c-.1-.2-.4-.3-.6-.4zm2.8 1.5-.9-3.1h-.8l1 3.8h1.2l1.1-3.8H16l-.8 3z" fill="#696969"/></svg>