<svg viewBox="0 0 24 24" fill="none" xmlns="http://www.w3.org/2000/svg"><path d="M20.7 3H3.4c-.4 0-.8.4-.8.8V17c0 .4.4.7.8.7h6.2L9 19.6c-.2.7-.9.8-1 .8H7c-.2 0-.3.1-.3.3v.8h10.5v-.8c0-.2-.2-.3-.4-.3h-.8c-.2 0-.8-.1-1-.8l-.4-1.2-3.4-.5c-.1 0 0-.1 0-.2h9.4c.4 0 .7-.3.7-.7V3.8c0-.4-.3-.7-.7-.7Zm-1.1 12h-15V5h15v10Zm-7.2-7H14v3h-1.5V8Zm2.3-1.6h1.5V11h-1.5V6.4Zm2.2 1.2h1.5V11H17V7.6Zm-2.2 7c.6 0 1.2-.4 1.3-1h2.8v-.8H16c-.1-.6-.7-1-1.3-1-.7 0-1.2.4-1.4 1H5.6v.8h7.7c.2.6.7 1 1.4 1Zm0-2.1a.7.7 0 1 1 0 1.4.7.7 0 0 1 0-1.4ZM8 11.7A2.4 2.4 0 0 0 10 8L8 9.3V6.8a2.4 2.4 0 0 0 .2 4.9Zm.6-6.2v2.4l2-1.3a2.4 2.4 0 0 0-2-1.1Z" fill="#696969"/></svg>