<svg viewBox="0 0 24 24" fill="none" xmlns="http://www.w3.org/2000/svg"><path d="M7 14h3.7a6.9 6.9 0 0 1 1.4-2H7v2Zm0 4h3a6.7 6.7 0 0 1 0-2H7v2Zm-2 4a2 2 0 0 1-1.4-.6A2 2 0 0 1 3 20V4c0-.5.2-1 .6-1.4A2 2 0 0 1 5 2h8l6 6v2.3a6.4 6.4 0 0 0-2-.3V9h-5V4H5v16h5.7a6.9 6.9 0 0 0 1.4 2H5Zm12-10c1.4 0 2.6.5 3.5 1.5 1 1 1.5 2.1 1.5 3.5s-.5 2.6-1.5 3.5c-1 1-2.1 1.5-3.5 1.5s-2.6-.5-3.5-1.5c-1-1-1.5-2.1-1.5-3.5s.5-2.6 1.5-3.5c1-1 2.1-1.5 3.5-1.5Zm0 8c.2 0 .3 0 .5-.2l.1-.4-.1-.5a.6.6 0 0 0-.5-.2c-.2 0-.3 0-.5.2l-.1.5.1.4.5.2Zm-.4-1.9h.8v-.3l.2-.4.3-.4.6-.6.2-.8c0-.5-.2-.9-.5-1.2-.3-.3-.7-.4-1.2-.4-.4 0-.7.1-1 .3-.3.3-.6.6-.7 1l.8.3c0-.2.2-.4.3-.5l.6-.3.6.2.2.6c0 .2 0 .3-.2.5a4.7 4.7 0 0 1-.6.6l-.3.4-.1.3v.7Z" fill="#696969"/></svg>