<svg xmlns="http://www.w3.org/2000/svg" fill="none" viewBox="0 0 24 24">
  <path fill="#696969" d="M9.6 4a7.3 7.3 0 0 0-5 2 6 6 0 0 0-2 4.8c-.1 1 .2 2.1.8 3 .6 1 1.4 1.8 2.4 2.3 1 .6 2.2 1 3.5 1v3.3l.1.3.3.2.3.1.3-.1a148.3 148.3 0 0 0 7.4-4.7c.9-.7 1.6-1.5 2-2.5a6.6 6.6 0 0 0 .3-5.6A6.8 6.8 0 0 0 16 4.5c-.9-.3-1.8-.5-2.7-.5H9.6ZM14 17l-3.3 2.1v-2.7c0-.2 0-.3-.2-.4a.7.7 0 0 0-.5-.2h-.4c-1 0-2-.2-3-.7-.8-.4-1.5-1-2-1.8a5.3 5.3 0 0 1 2.8-7.6c.7-.3 1.5-.4 2.2-.4h3.8a5.8 5.8 0 0 1 5.3 3.3c.3.7.4 1.4.4 2.1 0 .9-.2 1.7-.6 2.5a6 6 0 0 1-1.7 2L14 17Z"/>
</svg>
