<svg viewBox="0 0 24 24" fill="none" xmlns="http://www.w3.org/2000/svg"><path d="M12 20a14 14 0 0 1-5.7-1C4.8 18.3 4 17.4 4 16.4V7.6c0-1 .8-1.9 2.3-2.6C8 4.3 9.8 4 12 4s4 .3 5.7 1c1.5.7 2.3 1.6 2.3 2.6v8.8c0 1-.8 1.9-2.3 2.6a14 14 0 0 1-5.7 1Zm0-10.6c1.3 0 2.6-.2 4-.6 1.3-.4 2-.8 2.2-1.2-.1-.5-.9-.9-2.2-1.2a14.2 14.2 0 0 0-8 0c-1.3.3-2 .7-2.2 1.2.2.4 1 .8 2.2 1.2 1.3.4 2.7.6 4 .6Zm0 4.4a17.7 17.7 0 0 0 5-.8l1.2-.5V9.8a8.8 8.8 0 0 1-2.7 1 15.8 15.8 0 0 1-5.3.2 15.7 15.7 0 0 1-3.2-.6 8 8 0 0 1-1.2-.6v2.7L7 13a11.6 11.6 0 0 0 3.2.7H12Zm0 4.4a14.2 14.2 0 0 0 5.5-1.1c.4-.2.6-.5.7-.7v-2.2a8.8 8.8 0 0 1-2.7 1 15.8 15.8 0 0 1-5.3.3 15.7 15.7 0 0 1-3.2-.7 8 8 0 0 1-1.2-.6v2.2c0 .3.3.5.7.7l1.5.6a14.9 14.9 0 0 0 4 .5Z" fill="#696969"/></svg>