<svg viewBox="0 0 24 24" fill="currentColor" xmlns="http://www.w3.org/2000/svg">
<path d="M17.6001 8.02422C17.434 7.95299 17.2382 7.91147 17.0128 7.89966C16.8583 7.89966 16.6922 7.91129 16.5145 7.93509L16.3186 7.97052L13.6127 9.78624V3.96543C13.6245 3.83479 13.5889 3.72205 13.5059 3.6272C13.4228 3.53254 13.3099 3.49656 13.1676 3.52036H10.4795C10.3607 3.50855 10.2538 3.54416 10.159 3.6272C10.0643 3.71024 10.0223 3.82316 10.0344 3.96543V9.78624L7.34629 7.97052L7.13261 7.93509C6.96654 7.91147 6.80637 7.89966 6.65211 7.89966C6.42662 7.91147 6.22494 7.95299 6.04706 8.02422C5.83338 8.10725 5.66122 8.23771 5.53058 8.41559C5.32871 8.68869 5.22777 8.99131 5.22777 9.32345C5.22777 9.65559 5.32871 9.95821 5.53058 10.2313C5.54239 10.2431 5.77968 10.5278 6.24247 11.0855C8.21245 13.4828 9.62461 15.1324 10.479 16.0344C10.8351 16.4618 11.2861 16.7585 11.8319 16.9245C12.3659 16.7585 12.8051 16.4618 13.1494 16.0344C13.9089 15.2037 15.1965 13.6965 17.0122 11.5128C17.7123 10.6703 18.0743 10.2431 18.0983 10.2313C18.312 9.97039 18.4247 9.66777 18.4365 9.32345C18.4482 8.97913 18.3474 8.67688 18.1337 8.41559C18.0031 8.23771 17.825 8.10725 17.5995 8.02422H17.6001ZM19.7363 16.9423H17.547V18.2598C17.547 18.3786 17.5054 18.4795 17.4224 18.5626C17.3394 18.6456 17.2325 18.6932 17.1019 18.7048H6.61724C6.4984 18.7048 6.39747 18.6574 6.31443 18.5626C6.2314 18.4679 6.18379 18.3666 6.17217 18.2598V16.9423H4.0005V20.4314C3.97689 20.6805 4.05992 20.8942 4.24961 21.0725C4.43949 21.2507 4.65317 21.3337 4.89065 21.3216H18.8999C19.149 21.3334 19.3627 21.2503 19.5409 21.0725C19.7192 20.8942 19.7845 20.6811 19.7369 20.4314C19.7369 19.2684 19.7369 18.1053 19.7369 16.9423H19.7363Z"/>
</svg>
