<svg fill="none" viewBox="0 0 24 24" xmlns="http://www.w3.org/2000/svg"><path d="M8.6 17v1.3h-.8v-3.8h1.3c.4 0 .7.1 1 .4.2.2.3.5.3.8 0 .4-.2.7-.4 1-.3.2-.6.3-1 .3h-.4zm0-1.9v1.3a1.5 1.5 0 0 0 .3 0l.5-.1.2-.5c0-.2 0-.4-.2-.5 0-.1-.2-.2-.5-.2h-.3zm3.5 3.2H11v-3.8h1c.7 0 1.2.2 1.6.5.3.3.5.7.5 1.3 0 .7-.2 1.2-.6 1.5s-.8.5-1.4.5zm-.4-3.2v2.6h.4c.4 0 .6-.1.9-.3.2-.2.3-.6.3-1s-.1-.7-.3-1c-.3-.2-.6-.3-1-.3h-.3zm3.1 3.2v-3.8h2v.6h-1.2v1h1.2v.6h-1.2v1.6h-.8zM19 2h-8.6a1 1 0 0 0-.7.3L4.3 7.8a1 1 0 0 0-.3.7v12.6a1 1 0 0 0 1 1h14a1 1 0 0 0 1-1v-18a1 1 0 0 0-.3-.7 1 1 0 0 0-.7-.3zm-1 18H6v-11h4a1 1 0 0 0 1-1v-4h7v16z" fill="#696969"/></svg>