<svg viewBox="0 0 24 24" fill="none" xmlns="http://www.w3.org/2000/svg">
<path d="M13.6667 10.6667H19.5V6.5H13.6667V10.6667ZM16.5833 9.625L14.5 8.16667V7.33333L16.5833 8.79167L18.6667 7.33333V8.16667L16.5833 9.625ZM3.66667 19C3.20833 19 2.81597 18.8368 2.48958 18.5104C2.16319 18.184 2 17.7917 2 17.3333V5.66667C2 5.20833 2.16319 4.81597 2.48958 4.48958C2.81597 4.16319 3.20833 4 3.66667 4H20.3333C20.7917 4 21.184 4.16319 21.5104 4.48958C21.8368 4.81597 22 5.20833 22 5.66667V17.3333C22 17.7917 21.8368 18.184 21.5104 18.5104C21.184 18.8368 20.7917 19 20.3333 19H3.66667ZM15.25 17.3333H20.3333V5.66667H3.66667V17.3333H3.75C4.33333 16.2917 5.13889 15.4757 6.16667 14.8854C7.19444 14.2951 8.30556 14 9.5 14C10.6944 14 11.8056 14.2951 12.8333 14.8854C13.8611 15.4757 14.6667 16.2917 15.25 17.3333ZM9.5 13.1667C10.1944 13.1667 10.7847 12.9236 11.2708 12.4375C11.7569 11.9514 12 11.3611 12 10.6667C12 9.97222 11.7569 9.38194 11.2708 8.89583C10.7847 8.40972 10.1944 8.16667 9.5 8.16667C8.80556 8.16667 8.21528 8.40972 7.72917 8.89583C7.24306 9.38194 7 9.97222 7 10.6667C7 11.3611 7.24306 11.9514 7.72917 12.4375C8.21528 12.9236 8.80556 13.1667 9.5 13.1667ZM5.79167 17.3333H13.2083C12.7361 16.8056 12.1771 16.3958 11.5312 16.1042C10.8854 15.8125 10.2083 15.6667 9.5 15.6667C8.79167 15.6667 8.11806 15.8125 7.47917 16.1042C6.84028 16.3958 6.27778 16.8056 5.79167 17.3333ZM9.5 11.5C9.26389 11.5 9.06597 11.4201 8.90625 11.2604C8.74653 11.1007 8.66667 10.9028 8.66667 10.6667C8.66667 10.4306 8.74653 10.2326 8.90625 10.0729C9.06597 9.91319 9.26389 9.83333 9.5 9.83333C9.73611 9.83333 9.93403 9.91319 10.0938 10.0729C10.2535 10.2326 10.3333 10.4306 10.3333 10.6667C10.3333 10.9028 10.2535 11.1007 10.0938 11.2604C9.93403 11.4201 9.73611 11.5 9.5 11.5Z" fill="#696969"/>
</svg>
