<svg viewBox="0 0 24 24" fill="none" xmlns="http://www.w3.org/2000/svg"><path d="M12 21.6a9.4 9.4 0 0 1-6.8-2.8 9.7 9.7 0 0 1-2-10.5A9.7 9.7 0 0 1 12 2.4a9.3 9.3 0 0 1 6.8 2.8 9.7 9.7 0 0 1 2.8 6.8 9.4 9.4 0 0 1-2.8 6.8 9.7 9.7 0 0 1-6.8 2.8Zm0-1.9c.3-.3.6-.8.8-1.6.3-.7.5-1.6.7-2.5h-3c.1 1 .4 1.8.6 2.5.3.8.6 1.3.9 1.6Zm-2.3-.2-.6-1.8-.4-2.1H5c.5 1 1.1 1.8 2 2.4.7.7 1.6 1.2 2.6 1.5Zm4.6 0a7.8 7.8 0 0 0 4.6-3.9h-3.6a19.1 19.1 0 0 1-1 3.9Zm1.2-5.7h4a6.5 6.5 0 0 0 .3-1.8 8.2 8.2 0 0 0-.2-1.8h-4a12 12 0 0 1 0 1.9 31.2 31.2 0 0 1 0 1.7Zm-5.2 0h3.4a13.3 13.3 0 0 0 0-2.7v-.9h-3.4a12 12 0 0 0-.1 1.8 31.7 31.7 0 0 0 0 1.8Zm-5.9 0h4a12 12 0 0 1 0-1.9 31 31 0 0 1 0-1.7h-4a6.5 6.5 0 0 0-.2 1.8 7.8 7.8 0 0 0 .2 1.8Zm11-5.4h3.5a7.8 7.8 0 0 0-4.6-3.9l.6 1.8.4 2.1Zm-4.9 0h3a14 14 0 0 0-.7-2.5c-.2-.8-.5-1.3-.8-1.6-.3.3-.6.8-.9 1.6a14 14 0 0 0-.6 2.5Zm-5.4 0h3.6a19.1 19.1 0 0 1 1-3.9 7.8 7.8 0 0 0-4.6 3.9Z" fill="#696969"/></svg>