
<svg xmlns="http://www.w3.org/2000/svg" xmlns:xlink="http://www.w3.org/1999/xlink">
  <symbol id="check" viewBox="0 0 24 24">
    <title>check</title>
    <path d="M9 19.9 2.4 13l2.1-2.2L9 15.5 19.7 4.8 21.9 7 9 19.9Z"/>
  </symbol>
  <symbol id="checkmark" viewBox="0 0 512 512">
    <title>checkmark</title>
    <path d="M256,48C141.31,48,48,141.31,48,256s93.31,208,208,208,208-93.31,208-208S370.69,48,256,48ZM364.25,186.29l-134.4,160a16,16,0,0,1-12,5.71h-.27a16,16,0,0,1-11.89-5.3l-57.6-64a16,16,0,1,1,23.78-21.4l45.29,50.32L339.75,165.71a16,16,0,0,1,24.5,20.58Z" />
  </symbol>
  <symbol id="chevron-left-thin" viewBox="0 0 20 20">
    <title>chevron-left</title>
    <path d="M13.891 17.418a.697.697 0 0 1 0 .979a.68.68 0 0 1-.969 0l-7.83-7.908a.697.697 0 0 1 0-.979l7.83-7.908a.68.68 0 0 1 .969 0a.697.697 0 0 1 0 .979L6.75 10z" />
  </symbol>
  <symbol id="chevron-right" viewBox="0 0 12 13">
    <title>chevron-right</title>
    <path d="M9.75543 6.74367C9.7153 6.84005 9.6388 6.94467 9.5263 7.05717L4.44955 12.1339C4.35305 12.2304 4.25255 12.2988 4.14805 12.339C4.04355 12.3793 3.92293 12.4034 3.78618 12.4114C3.64943 12.4194 3.5248 12.3953 3.4123 12.339C3.2998 12.2828 3.19518 12.2145 3.0988 12.1339L2.53218 11.5673C2.43568 11.4708 2.3633 11.3583 2.31505 11.2298C2.2668 11.1013 2.24268 10.9847 2.24268 10.8799C2.24268 10.7432 2.2668 10.6225 2.31505 10.518C2.36343 10.4134 2.4358 10.3092 2.53218 10.2045L6.27055 6.3818L2.54455 2.6678C2.45605 2.5793 2.38768 2.4708 2.33943 2.3423C2.29118 2.2138 2.26705 2.09717 2.26705 1.99242C2.26705 1.85567 2.29118 1.73505 2.33943 1.63055C2.3878 1.52592 2.45605 1.42167 2.54455 1.31705L3.11118 0.629671C3.20768 0.533171 3.30818 0.460796 3.41268 0.412546C3.51718 0.364296 3.6418 0.344171 3.78655 0.352171C3.9313 0.360171 4.05593 0.380296 4.16043 0.412546C4.26505 0.444796 4.3693 0.517171 4.47393 0.629671L9.5143 5.73042C9.6188 5.82692 9.69518 5.92342 9.74343 6.01992C9.7918 6.1163 9.8158 6.23705 9.8158 6.3818C9.8158 6.52655 9.79568 6.64717 9.75543 6.74367Z" />
  </symbol>
  <symbol id="chevron-right-thin" viewBox="0 0 20 20">
    <title>chevron-right</title>
    <path d="M13.25 10L6.109 2.58a.697.697 0 0 1 0-.979a.68.68 0 0 1 .969 0l7.83 7.908a.697.697 0 0 1 0 .979l-7.83 7.908a.68.68 0 0 1-.969 0a.697.697 0 0 1 0-.979z" />
  </symbol>
  <symbol id="chevron-up-thin" viewBox="0 0 20 20">
    <title>chevron-up</title>
    <path d="M2.582 13.891c-.272.268-.709.268-.979 0s-.271-.701 0-.969l7.908-7.83a.697.697 0 0 1 .979 0l7.908 7.83a.68.68 0 0 1 0 .969.695.695 0 0 1-.978 0L10 6.75l-7.418 7.141z" />
  </symbol>
  <symbol id="csv" viewBox="0 0 24 24">
    <title>csv</title>
    <path d="M19 2.1h-8.6a1 1 0 0 0-.7.3L4.3 7.8a1 1 0 0 0-.3.7v12.6a1 1 0 0 0 1 1h14a1 1 0 0 0 1-1v-18a1 1 0 0 0-.3-.7 1 1 0 0 0-.7-.3zm-1 18H6v-11h4a1 1 0 0 0 1-1v-4h7v16zm-8.5-2.3c-.3 0-.6-.1-.8-.3-.2-.3-.3-.6-.3-1s0-.8.3-1c.2-.2.5-.3.8-.3a7.8 7.8 0 0 1 .7 0v-.6a2.9 2.9 0 0 0-.7 0 2 2 0 0 0-1.3.4c-.4.4-.6.9-.6 1.6 0 .6.2 1 .5 1.3.4.3.8.5 1.3.5a3.6 3.6 0 0 0 .9-.1v-.6h-.8zm2.9-1.6-.5-.1a.9.9 0 0 1-.4-.2v-.3l.1-.3.6-.1h.8v-.6h-.8c-.5 0-.8 0-1.1.3a1 1 0 0 0-.4.8c0 .2 0 .4.2.6 0 .2.3.3.5.3l.5.2.4.2.1.3c0 .1 0 .2-.2.3l-.6.2a5 5 0 0 1-1-.1v.6a4.6 4.6 0 0 0 1 0c.5 0 .9 0 1.1-.2s.5-.6.5-1l-.2-.5c-.1-.2-.4-.3-.6-.4zm2.8 1.5-.9-3.1h-.8l1 3.8h1.2l1.1-3.8H16l-.8 3z" />
  </symbol>
  <symbol id="cross" viewBox="0 0 24 24">
    <title>cross</title>
    <path d="M11.9997 10.5865L16.9495 5.63672L18.3637 7.05093L13.4139 12.0007L18.3637 16.9504L16.9495 18.3646L11.9997 13.4149L7.04996 18.3646L5.63574 16.9504L10.5855 12.0007L5.63574 7.05093L7.04996 5.63672L11.9997 10.5865Z" />
  </symbol>
  <symbol id="database" viewBox="0 0 24 24">
    <title>database</title>
    <path d="M12 20a14 14 0 0 1-5.7-1C4.8 18.3 4 17.4 4 16.4V7.6c0-1 .8-1.9 2.3-2.6C8 4.3 9.8 4 12 4s4 .3 5.7 1c1.5.7 2.3 1.6 2.3 2.6v8.8c0 1-.8 1.9-2.3 2.6a14 14 0 0 1-5.7 1Zm0-10.6c1.3 0 2.6-.2 4-.6 1.3-.4 2-.8 2.2-1.2-.1-.5-.9-.9-2.2-1.2a14.2 14.2 0 0 0-8 0c-1.3.3-2 .7-2.2 1.2.2.4 1 .8 2.2 1.2 1.3.4 2.7.6 4 .6Zm0 4.4a17.7 17.7 0 0 0 5-.8l1.2-.5V9.8a8.8 8.8 0 0 1-2.7 1 15.8 15.8 0 0 1-5.3.2 15.7 15.7 0 0 1-3.2-.6 8 8 0 0 1-1.2-.6v2.7L7 13a11.6 11.6 0 0 0 3.2.7H12Zm0 4.4a14.2 14.2 0 0 0 5.5-1.1c.4-.2.6-.5.7-.7v-2.2a8.8 8.8 0 0 1-2.7 1 15.8 15.8 0 0 1-5.3.3 15.7 15.7 0 0 1-3.2-.7 8 8 0 0 1-1.2-.6v2.2c0 .3.3.5.7.7l1.5.6a14.9 14.9 0 0 0 4 .5Z" />
  </symbol>
  <symbol id="doc" viewBox="0 0 24 24">
    <title>doc</title>
    <path d="M19 2h-8.6a1 1 0 0 0-.7.3L4.3 7.7a1 1 0 0 0-.3.7V21a1 1 0 0 0 1 1h14a1 1 0 0 0 1-1V3a1 1 0 0 0-.3-.7A1 1 0 0 0 19 2Zm-1 18H6V9h4a1 1 0 0 0 1-1V4h7v16Zm-1.5-6.5h-9c-.1 0-.2 0-.2-.2v-1l.2-.1h9l.2.1v1c0 .1 0 .2-.2.2Zm0 2.4h-9l-.2-.2v-1c0-.1 0-.2.2-.2h9c.1 0 .2 0 .2.2v1s0 .2-.2.2Zm0 2.2h-9l-.2-.2v-1c0-.1 0-.2.2-.2h9c.1 0 .2 0 .2.2v1s0 .2-.2.2Z" />
  </symbol>
  <symbol id="download" viewBox="0 0 24 24">
    <title>download</title>
    <path d="M17.6001 8.02422C17.434 7.95299 17.2382 7.91147 17.0128 7.89966C16.8583 7.89966 16.6922 7.91129 16.5145 7.93509L16.3186 7.97052L13.6127 9.78624V3.96543C13.6245 3.83479 13.5889 3.72205 13.5059 3.6272C13.4228 3.53254 13.3099 3.49656 13.1676 3.52036H10.4795C10.3607 3.50855 10.2538 3.54416 10.159 3.6272C10.0643 3.71024 10.0223 3.82316 10.0344 3.96543V9.78624L7.34629 7.97052L7.13261 7.93509C6.96654 7.91147 6.80637 7.89966 6.65211 7.89966C6.42662 7.91147 6.22494 7.95299 6.04706 8.02422C5.83338 8.10725 5.66122 8.23771 5.53058 8.41559C5.32871 8.68869 5.22777 8.99131 5.22777 9.32345C5.22777 9.65559 5.32871 9.95821 5.53058 10.2313C5.54239 10.2431 5.77968 10.5278 6.24247 11.0855C8.21245 13.4828 9.62461 15.1324 10.479 16.0344C10.8351 16.4618 11.2861 16.7585 11.8319 16.9245C12.3659 16.7585 12.8051 16.4618 13.1494 16.0344C13.9089 15.2037 15.1965 13.6965 17.0122 11.5128C17.7123 10.6703 18.0743 10.2431 18.0983 10.2313C18.312 9.97039 18.4247 9.66777 18.4365 9.32345C18.4482 8.97913 18.3474 8.67688 18.1337 8.41559C18.0031 8.23771 17.825 8.10725 17.5995 8.02422H17.6001ZM19.7363 16.9423H17.547V18.2598C17.547 18.3786 17.5054 18.4795 17.4224 18.5626C17.3394 18.6456 17.2325 18.6932 17.1019 18.7048H6.61724C6.4984 18.7048 6.39747 18.6574 6.31443 18.5626C6.2314 18.4679 6.18379 18.3666 6.17217 18.2598V16.9423H4.0005V20.4314C3.97689 20.6805 4.05992 20.8942 4.24961 21.0725C4.43949 21.2507 4.65317 21.3337 4.89065 21.3216H18.8999C19.149 21.3334 19.3627 21.2503 19.5409 21.0725C19.7192 20.8942 19.7845 20.6811 19.7369 20.4314C19.7369 19.2684 19.7369 18.1053 19.7369 16.9423H19.7363Z" />
  </symbol>
  <symbol id="email" viewBox="0 0 24 24">
    <title>email</title>
    <path d="M3 5.8c-.3 0-.5 0-.7.2a1 1 0 0 0-.3.7v12c0 .2 0 .4.3.6l.6.3h18.3l.6-.3c.2-.2.3-.4.3-.7V6.7c0-.3 0-.5-.3-.7a.8.8 0 0 0-.6-.2H2.9zm9 7L4.1 7.8H20l-8 5.2zm3.3 1.2v.1l2.8 3.6H6l2.7-3.5V14l-5 3.7V9.4l7.8 5.1.5.1h.4l7.7-5.2v8.3L15.3 14z" />
  </symbol>
  <symbol id="exclamation-colored" viewBox="0 0 34 32">
    <title>exclamation</title>
    <path d="M32.7212 27.5907L19.3212 1.49075C18.7212 0.190748 17.2212 -0.309252 16.0212 0.190748C15.4212 0.490748 15.0212 0.890748 14.7212 1.49075L1.32117 27.5907C0.321174 29.4907 1.62117 31.9907 3.62117 31.9907H30.3212C32.4212 31.9907 33.6212 29.5907 32.7212 27.5907Z" fill="#FFB612"/>
    <path d="M15.0211 24.2907C15.0211 23.6907 15.2211 23.0907 15.5211 22.5907C15.8211 22.0907 16.4211 21.8907 17.0211 21.8907C17.6212 21.8907 18.1211 22.0907 18.5211 22.4907C18.9211 22.9907 19.1212 23.6907 19.0212 24.2907C19.0212 24.8907 18.8211 25.4907 18.5211 25.9907C18.1211 26.4907 17.6212 26.6907 17.0211 26.6907C16.4211 26.6907 15.9211 26.4907 15.5211 26.0907C15.1211 25.5907 14.9211 24.8907 15.0211 24.2907ZM15.4211 8.69075L18.8211 8.39075L18.5211 16.7907V20.7907L15.4211 20.8907V8.69075Z" fill="black"/>
  </symbol>
  <symbol id="hamburger" viewBox="0 0 24 24">
    <title>Hamburger</title>
    <path d="M3 4H21V6H3V4ZM3 11H21V13H3V11ZM3 18H21V20H3V18Z" />
  </symbol>
  <symbol id="html" viewBox="0 0 24 24">
    <title>html</title>
    <path d="M9.1 17.7v-1h-1v1h-.4v-2.5h.5v1h1v-1h.4v2.5h-.5Zm2-2v2h-.4v-2H10v-.5h1.8v.4h-.6Zm1.6 0v2h-.5l.1-2.5h.8l.4 1.5.5-1.5h.7l.2 2.5h-.5l-.1-2-.5 1.5h-.5l-.6-1.5Zm2.7 2v-2.5h.5v2h.9v.5h-1.4ZM19 2h-8.6a1 1 0 0 0-.7.3L4.3 7.7a1 1 0 0 0-.3.7V21c0 .3.1.5.3.7.2.2.4.3.7.3h14c.3 0 .5 0 .7-.3.2-.2.3-.4.3-.7V3a1 1 0 0 0-.3-.7A1 1 0 0 0 19 2Zm-1 18H6V9h4c.3 0 .5-.1.7-.3.2-.2.3-.4.3-.7V4h7v16Z" />
  </symbol>
  <symbol id="house" viewBox="0 0 24 24">
    <title>house</title>
    <path d="M19.8,11.7l-7.6-7c-0.1-0.1-0.3-0.1-0.4,0l-7.6,7C4.1,11.9,4,12,4,12.2v0.5C4,12.9,4.2,13,4.3,13h1.3v6.7h4.8v-4.8h3.2v4.8 h4.8V13h1.3c0.2,0,0.3-0.1,0.3-0.3v-0.5C20,12,20,11.9,19.8,11.7L19.8,11.7z"/>
  </symbol>
  <symbol id="image" viewBox="0 0 24 24">
    <title>image</title>
    <path d="M5 21a2 2 0 0 1-1.4-.6A2 2 0 0 1 3 19V5c0-.5.2-1 .6-1.4A2 2 0 0 1 5 3h14c.6 0 1 .2 1.4.6.4.4.6.9.6 1.4v14c0 .6-.2 1-.6 1.4a2 2 0 0 1-1.4.6H5Zm0-2h14V5H5v14Zm1-2h12l-3.8-5-3 4L9 13l-3 4Z" />
  </symbol>
  <symbol id="info" viewBox="0 0 512 512">
    <title>info</title>
    <path d="M256,56C145.72,56,56,145.72,56,256s89.72,200,200,200,200-89.72,200-200S366.28,56,256,56Zm0,82a26,26,0,1,1-26,26A26,26,0,0,1,256,138Zm48,226H216a16,16,0,0,1,0-32h28V244H228a16,16,0,0,1,0-32h32a16,16,0,0,1,16,16V332h28a16,16,0,0,1,0,32Z" />
  </symbol>
  <symbol id="note" viewBox="0 0 24 24">
    <title>note</title>
    <path d="M12 21v-2.1l5.3-5.3 2.1 2.1-5.3 5.3H12Zm-9-5v-2h7v2H3Zm17.1-1L18 12.9l.7-.8.7-.2c.3 0 .5 0 .7.3l.8.7.2.7c0 .3 0 .5-.3.7l-.7.7ZM3 12v-2h11v2H3Zm0-4V6h11v2H3Z" />
  </symbol>
  <symbol id="magnifier" viewBox="0 0 24 25">
    <title>magnifier</title>
    <path d="M16.2941 13.8717C16.9 12.7518 17.203 11.5519 17.203 10.272C17.1773 8.87226 16.8162 7.57908 16.1197 6.39245C15.4364 5.23236 14.5273 4.31917 13.3925 3.65289C12.2191 2.95965 10.9618 2.6263 9.62045 2.65283C8.62757 2.63957 7.66697 2.81951 6.73865 3.19266C5.81033 3.56582 4.99148 4.11249 4.2821 4.83267C3.57273 5.55286 3.01835 6.37939 2.61895 7.31228C2.21955 8.24516 2.01323 9.23174 2 10.272C2.01283 11.2986 2.21915 12.2785 2.61895 13.2118C3.01875 14.1451 3.57313 14.9717 4.2821 15.6914C4.99108 16.4112 5.80992 16.9579 6.73865 17.3314C7.66737 17.705 8.62797 17.8916 9.62045 17.8912C10.871 17.8912 12.0511 17.5914 13.1603 16.9913L18.228 22.0512C18.6278 22.4513 19.105 22.6514 19.6595 22.6514C20.2141 22.6514 20.6911 22.4511 21.0911 22.0512L21.3618 21.7713C21.5551 21.598 21.7099 21.3914 21.8262 21.1513C21.9425 20.9112 22.0004 20.6579 22 20.3913C21.9996 20.1247 21.9545 19.8714 21.8647 19.6313C21.7748 19.3912 21.6395 19.1779 21.4586 18.9914C21.4328 18.9516 21.3943 18.9248 21.3426 18.9111C19.6595 17.2313 17.9771 15.5515 16.2941 13.8717ZM5.38466 8.49206C5.62967 7.91865 5.96491 7.41199 6.39038 6.97208C6.81584 6.53218 7.31228 6.19883 7.8797 5.97203C8.44712 5.74524 9.02737 5.63868 9.62045 5.65237C10.4329 5.6391 11.1872 5.83915 11.8833 6.25252C12.5794 6.66589 13.1404 7.22583 13.5663 7.93233C13.9922 8.63884 14.2049 9.41873 14.2045 10.272C14.1917 10.8985 14.0692 11.4918 13.837 12.0519C13.6048 12.6121 13.2696 13.1121 12.8313 13.552C12.393 13.9919 11.8965 14.3253 11.342 14.5521C10.7874 14.7789 10.2135 14.8856 9.62045 14.8724C9.01453 14.8856 8.43428 14.7791 7.8797 14.5527C7.32511 14.3263 6.82867 13.993 6.39038 13.5526C5.95208 13.1123 5.61043 12.6123 5.36541 12.0526C5.1206 11.4928 4.99789 10.9057 4.99789 10.2925V10.2726C5.01073 9.65941 5.13965 9.0661 5.38466 8.49268V8.49206Z" />
  </symbol>
  <symbol id="map" viewBox="0 0 24 24">
    <title>map</title>
    <path d="M7 11.4h10V10H7v1.4Zm0 3.5h6.5v-1.3H7v1.3ZM4.7 19A1.7 1.7 0 0 1 3 17.2V5.8c0-.5.2-1 .5-1.3.3-.3.7-.5 1.2-.5h5.9L12 5.5h7.3c.4 0 .8.1 1.2.5.3.4.5.8.5 1.2v10c0 .5-.2 1-.5 1.3-.4.3-.8.5-1.2.5H4.7Zm0-13.2v11.4h14.6v-10h-8L9.8 5.8h-5Z" />
  </symbol>
  <symbol id="pdf" viewBox="0 0 24 24">
    <title>pdf</title>
    <path d="M8.6 17v1.3h-.8v-3.8h1.3c.4 0 .7.1 1 .4.2.2.3.5.3.8 0 .4-.2.7-.4 1-.3.2-.6.3-1 .3h-.4zm0-1.9v1.3a1.5 1.5 0 0 0 .3 0l.5-.1.2-.5c0-.2 0-.4-.2-.5 0-.1-.2-.2-.5-.2h-.3zm3.5 3.2H11v-3.8h1c.7 0 1.2.2 1.6.5.3.3.5.7.5 1.3 0 .7-.2 1.2-.6 1.5s-.8.5-1.4.5zm-.4-3.2v2.6h.4c.4 0 .6-.1.9-.3.2-.2.3-.6.3-1s-.1-.7-.3-1c-.3-.2-.6-.3-1-.3h-.3zm3.1 3.2v-3.8h2v.6h-1.2v1h1.2v.6h-1.2v1.6h-.8zM19 2h-8.6a1 1 0 0 0-.7.3L4.3 7.8a1 1 0 0 0-.3.7v12.6a1 1 0 0 0 1 1h14a1 1 0 0 0 1-1v-18a1 1 0 0 0-.3-.7 1 1 0 0 0-.7-.3zm-1 18H6v-11h4a1 1 0 0 0 1-1v-4h7v16z" />
  </symbol>
  <symbol id="presentation" viewBox="0 0 24 24">
    <title>presentation</title>
    <path d="M20.7 3H3.4c-.4 0-.8.4-.8.8V17c0 .4.4.7.8.7h6.2L9 19.6c-.2.7-.9.8-1 .8H7c-.2 0-.3.1-.3.3v.8h10.5v-.8c0-.2-.2-.3-.4-.3h-.8c-.2 0-.8-.1-1-.8l-.4-1.2-3.4-.5c-.1 0 0-.1 0-.2h9.4c.4 0 .7-.3.7-.7V3.8c0-.4-.3-.7-.7-.7Zm-1.1 12h-15V5h15v10Zm-7.2-7H14v3h-1.5V8Zm2.3-1.6h1.5V11h-1.5V6.4Zm2.2 1.2h1.5V11H17V7.6Zm-2.2 7c.6 0 1.2-.4 1.3-1h2.8v-.8H16c-.1-.6-.7-1-1.3-1-.7 0-1.2.4-1.4 1H5.6v.8h7.7c.2.6.7 1 1.4 1Zm0-2.1a.7.7 0 1 1 0 1.4.7.7 0 0 1 0-1.4ZM8 11.7A2.4 2.4 0 0 0 10 8L8 9.3V6.8a2.4 2.4 0 0 0 .2 4.9Zm.6-6.2v2.4l2-1.3a2.4 2.4 0 0 0-2-1.1Z" />
  </symbol>
  <symbol id="sort" viewBox="0 0 24 24">
    <title>sort</title>
    <path d="M8 13V5.825L5.425 8.4L4 7L9 2L14 7L12.575 8.4L10 5.825V13H8ZM15 22L10 17L11.425 15.6L14 18.175V11H16V18.175L18.575 15.6L20 17L15 22Z" />
  </symbol>
  <symbol id="sort-down" viewBox="0 0 24 24">
    <title>sort down</title>
    <path d="M12 16L6 10H18L12 16Z" />
  </symbol>
  <symbol id="sort-up" viewBox="0 0 24 24">
    <title>sort up</title>
    <path d="M12 8L18 14H6L12 8Z" />
  </symbol>
  <symbol id="spreadsheet" viewBox="0 0 24 24">
    <title>spreadsheet</title>
    <path d="M19 2.1h-8.6a1 1 0 0 0-.7.3L4.3 7.8a1 1 0 0 0-.3.7v12.6a1 1 0 0 0 1 1h14a1 1 0 0 0 1-1v-18a1 1 0 0 0-.3-.7 1 1 0 0 0-.7-.3zm-1 18H6v-11h4a1 1 0 0 0 1-1v-4h7v16zm-8.5-2.3c-.3 0-.6-.1-.8-.3-.2-.3-.3-.6-.3-1s0-.8.3-1c.2-.2.5-.3.8-.3a7.8 7.8 0 0 1 .7 0v-.6a2.9 2.9 0 0 0-.7 0 2 2 0 0 0-1.3.4c-.4.4-.6.9-.6 1.6 0 .6.2 1 .5 1.3.4.3.8.5 1.3.5a3.6 3.6 0 0 0 .9-.1v-.6h-.8zm2.9-1.6-.5-.1a.9.9 0 0 1-.4-.2v-.3l.1-.3.6-.1h.8v-.6h-.8c-.5 0-.8 0-1.1.3a1 1 0 0 0-.4.8c0 .2 0 .4.2.6 0 .2.3.3.5.3l.5.2.4.2.1.3c0 .1 0 .2-.2.3l-.6.2a5 5 0 0 1-1-.1v.6a4.6 4.6 0 0 0 1 0c.5 0 .9 0 1.1-.2s.5-.6.5-1l-.2-.5c-.1-.2-.4-.3-.6-.4zm2.8 1.5-.9-3.1h-.8l1 3.8h1.2l1.1-3.8H16l-.8 3z" />
  </symbol>
  <symbol id="unknown" viewBox="0 0 24 24">
    <title>unknown</title>
    <path d="M7 14h3.7a6.9 6.9 0 0 1 1.4-2H7v2Zm0 4h3a6.7 6.7 0 0 1 0-2H7v2Zm-2 4a2 2 0 0 1-1.4-.6A2 2 0 0 1 3 20V4c0-.5.2-1 .6-1.4A2 2 0 0 1 5 2h8l6 6v2.3a6.4 6.4 0 0 0-2-.3V9h-5V4H5v16h5.7a6.9 6.9 0 0 0 1.4 2H5Zm12-10c1.4 0 2.6.5 3.5 1.5 1 1 1.5 2.1 1.5 3.5s-.5 2.6-1.5 3.5c-1 1-2.1 1.5-3.5 1.5s-2.6-.5-3.5-1.5c-1-1-1.5-2.1-1.5-3.5s.5-2.6 1.5-3.5c1-1 2.1-1.5 3.5-1.5Zm0 8c.2 0 .3 0 .5-.2l.1-.4-.1-.5a.6.6 0 0 0-.5-.2c-.2 0-.3 0-.5.2l-.1.5.1.4.5.2Zm-.4-1.9h.8v-.3l.2-.4.3-.4.6-.6.2-.8c0-.5-.2-.9-.5-1.2-.3-.3-.7-.4-1.2-.4-.4 0-.7.1-1 .3-.3.3-.6.6-.7 1l.8.3c0-.2.2-.4.3-.5l.6-.3.6.2.2.6c0 .2 0 .3-.2.5a4.7 4.7 0 0 1-.6.6l-.3.4-.1.3v.7Z" />
  </symbol>
  <symbol id="vcard" viewBox="0 0 24 24">
    <title>vcard</title>
    <path d="M13.6667 10.6667H19.5V6.5H13.6667V10.6667ZM16.5833 9.625L14.5 8.16667V7.33333L16.5833 8.79167L18.6667 7.33333V8.16667L16.5833 9.625ZM3.66667 19C3.20833 19 2.81597 18.8368 2.48958 18.5104C2.16319 18.184 2 17.7917 2 17.3333V5.66667C2 5.20833 2.16319 4.81597 2.48958 4.48958C2.81597 4.16319 3.20833 4 3.66667 4H20.3333C20.7917 4 21.184 4.16319 21.5104 4.48958C21.8368 4.81597 22 5.20833 22 5.66667V17.3333C22 17.7917 21.8368 18.184 21.5104 18.5104C21.184 18.8368 20.7917 19 20.3333 19H3.66667ZM15.25 17.3333H20.3333V5.66667H3.66667V17.3333H3.75C4.33333 16.2917 5.13889 15.4757 6.16667 14.8854C7.19444 14.2951 8.30556 14 9.5 14C10.6944 14 11.8056 14.2951 12.8333 14.8854C13.8611 15.4757 14.6667 16.2917 15.25 17.3333ZM9.5 13.1667C10.1944 13.1667 10.7847 12.9236 11.2708 12.4375C11.7569 11.9514 12 11.3611 12 10.6667C12 9.97222 11.7569 9.38194 11.2708 8.89583C10.7847 8.40972 10.1944 8.16667 9.5 8.16667C8.80556 8.16667 8.21528 8.40972 7.72917 8.89583C7.24306 9.38194 7 9.97222 7 10.6667C7 11.3611 7.24306 11.9514 7.72917 12.4375C8.21528 12.9236 8.80556 13.1667 9.5 13.1667ZM5.79167 17.3333H13.2083C12.7361 16.8056 12.1771 16.3958 11.5312 16.1042C10.8854 15.8125 10.2083 15.6667 9.5 15.6667C8.79167 15.6667 8.11806 15.8125 7.47917 16.1042C6.84028 16.3958 6.27778 16.8056 5.79167 17.3333ZM9.5 11.5C9.26389 11.5 9.06597 11.4201 8.90625 11.2604C8.74653 11.1007 8.66667 10.9028 8.66667 10.6667C8.66667 10.4306 8.74653 10.2326 8.90625 10.0729C9.06597 9.91319 9.26389 9.83333 9.5 9.83333C9.73611 9.83333 9.93403 9.91319 10.0938 10.0729C10.2535 10.2326 10.3333 10.4306 10.3333 10.6667C10.3333 10.9028 10.2535 11.1007 10.0938 11.2604C9.93403 11.4201 9.73611 11.5 9.5 11.5Z" />
  </symbol>
  <symbol id="video" viewBox="0 0 24 24">
    <title>video</title>
    <path d="m4 4 2 4h3L7 4h2l2 4h3l-2-4h2l2 4h3l-2-4h3c.6 0 1 .2 1.4.6.4.4.6.9.6 1.4v12c0 .6-.2 1-.6 1.4a2 2 0 0 1-1.4.6H4a2 2 0 0 1-1.4-.6A2 2 0 0 1 2 18V6c0-.5.2-1 .6-1.4A2 2 0 0 1 4 4Zm0 6v8h16v-8H4Z" />
  </symbol>
  <symbol id="warning" viewBox="0 0 512 512">
    <title>warning</title>
    <path d="M449.07,399.08,278.64,82.58c-12.08-22.44-44.26-22.44-56.35,0L51.87,399.08A32,32,0,0,0,80,446.25H420.89A32,32,0,0,0,449.07,399.08Zm-198.6-1.83a20,20,0,1,1,20-20A20,20,0,0,1,250.47,397.25ZM272.19,196.1l-5.74,122a16,16,0,0,1-32,0l-5.74-121.95v0a21.73,21.73,0,0,1,21.5-22.69h.21a21.74,21.74,0,0,1,21.73,22.7Z" />
  </symbol>
  <symbol id="web" viewBox="0 0 24 24">
    <title>web</title>
    <path d="M12 21.6a9.4 9.4 0 0 1-6.8-2.8 9.7 9.7 0 0 1-2-10.5A9.7 9.7 0 0 1 12 2.4a9.3 9.3 0 0 1 6.8 2.8 9.7 9.7 0 0 1 2.8 6.8 9.4 9.4 0 0 1-2.8 6.8 9.7 9.7 0 0 1-6.8 2.8Zm0-1.9c.3-.3.6-.8.8-1.6.3-.7.5-1.6.7-2.5h-3c.1 1 .4 1.8.6 2.5.3.8.6 1.3.9 1.6Zm-2.3-.2-.6-1.8-.4-2.1H5c.5 1 1.1 1.8 2 2.4.7.7 1.6 1.2 2.6 1.5Zm4.6 0a7.8 7.8 0 0 0 4.6-3.9h-3.6a19.1 19.1 0 0 1-1 3.9Zm1.2-5.7h4a6.5 6.5 0 0 0 .3-1.8 8.2 8.2 0 0 0-.2-1.8h-4a12 12 0 0 1 0 1.9 31.2 31.2 0 0 1 0 1.7Zm-5.2 0h3.4a13.3 13.3 0 0 0 0-2.7v-.9h-3.4a12 12 0 0 0-.1 1.8 31.7 31.7 0 0 0 0 1.8Zm-5.9 0h4a12 12 0 0 1 0-1.9 31 31 0 0 1 0-1.7h-4a6.5 6.5 0 0 0-.2 1.8 7.8 7.8 0 0 0 .2 1.8Zm11-5.4h3.5a7.8 7.8 0 0 0-4.6-3.9l.6 1.8.4 2.1Zm-4.9 0h3a14 14 0 0 0-.7-2.5c-.2-.8-.5-1.3-.8-1.6-.3.3-.6.8-.9 1.6a14 14 0 0 0-.6 2.5Zm-5.4 0h3.6a19.1 19.1 0 0 1 1-3.9 7.8 7.8 0 0 0-4.6 3.9Z" />
  </symbol>
  <symbol id="xlsx" viewBox="0 0 24 24">
    <title>xlsx</title>
    <path d="M19.4 15.3v-2.6H4.6v2.6h14.8zm0-4V8.6H4.6v2.5h14.8zm0-4.1V4.6H4.6v2.6h14.8zM4.6 21.4a2 2 0 0 1-1.4-.6 2 2 0 0 1-.6-1.4V4.6c0-.5.2-1 .6-1.4.4-.4.9-.6 1.4-.6h14.8c.5 0 1 .2 1.4.6.4.4.6.9.6 1.4v14.8c0 .5-.2 1-.6 1.4a2 2 0 0 1-1.4.6H4.6zm14.8-2v-2.6H4.6v2.6h14.8z" />
  </symbol>
  <symbol id="xml" viewBox="0 0 24 24">
    <title>xml</title>
    <path d="M9.6 15.6L11 14.175L8.825 12L11 9.825L9.6 8.4L6 12L9.6 15.6ZM14.4 15.6L18 12L14.4 8.4L13 9.825L15.175 12L13 14.175L14.4 15.6ZM5 21C4.45 21 3.97917 20.8042 3.5875 20.4125C3.19583 20.0208 3 19.55 3 19V5C3 4.45 3.19583 3.97917 3.5875 3.5875C3.97917 3.19583 4.45 3 5 3H19C19.55 3 20.0208 3.19583 20.4125 3.5875C20.8042 3.97917 21 4.45 21 5V19C21 19.55 20.8042 20.0208 20.4125 20.4125C20.0208 20.8042 19.55 21 19 21H5ZM5 19H19V5H5V19Z" />
  </symbol>
  <symbol id="zipper" viewBox="0 0 24 24">
    <title>zipper</title>
    <path d="M8 4c-1.1 0-2 .9-2 2v12c0 1.1.9 2 2 2h8c1.1 0 2-.9 2-2V9h-4c-.6 0-1-.4-1-1V4H8zm6 0v4h4l-4-4zM9 5.5c0-.3.2-.5.5-.5h1c.3 0 .5.2.5.5s-.2.5-.5.5h-1c-.3 0-.5-.2-.5-.5zm0 2c0-.3.2-.5.5-.5h1c.3 0 .5.2.5.5s-.2.5-.5.5h-1c-.3 0-.5-.2-.5-.5zm0 2c0-.3.2-.5.5-.5h1c.3 0 .5.2.5.5s-.2.5-.5.5h-1c-.3 0-.5-.2-.5-.5zm-.2 2.2c.1-.4.5-.7 1-.7h.5c.5 0 .8.3 1 .7l.7 2.8c0 .2.1.3.1.5 0 1.1-.9 2-2 2s-2-.9-2-2c0-.2 0-.3.1-.5l.6-2.8zm.7 2.8c-.3 0-.5.2-.5.5s.2.5.5.5h1c.3 0 .5-.2.5-.5s-.2-.5-.5-.5h-1z" />
  </symbol>
</svg>
