
<svg xmlns="http://www.w3.org/2000/svg" xmlns:xlink="http://www.w3.org/1999/xlink">
  <symbol id="checkmark" viewBox="0 0 512 512">
    <title>checkmark</title>
    <path d="M256,48C141.31,48,48,141.31,48,256s93.31,208,208,208,208-93.31,208-208S370.69,48,256,48ZM364.25,186.29l-134.4,160a16,16,0,0,1-12,5.71h-.27a16,16,0,0,1-11.89-5.3l-57.6-64a16,16,0,1,1,23.78-21.4l45.29,50.32L339.75,165.71a16,16,0,0,1,24.5,20.58Z"/>
  </symbol>
  <symbol id="info" viewBox="0 0 512 512">
    <title>info</title>
    <path d="M256,56C145.72,56,56,145.72,56,256s89.72,200,200,200,200-89.72,200-200S366.28,56,256,56Zm0,82a26,26,0,1,1-26,26A26,26,0,0,1,256,138Zm48,226H216a16,16,0,0,1,0-32h28V244H228a16,16,0,0,1,0-32h32a16,16,0,0,1,16,16V332h28a16,16,0,0,1,0,32Z"/>
  </symbol>
  <symbol id="warning" viewBox="0 0 512 512">
    <title>warning</title>
    <path d="M449.07,399.08,278.64,82.58c-12.08-22.44-44.26-22.44-56.35,0L51.87,399.08A32,32,0,0,0,80,446.25H420.89A32,32,0,0,0,449.07,399.08Zm-198.6-1.83a20,20,0,1,1,20-20A20,20,0,0,1,250.47,397.25ZM272.19,196.1l-5.74,122a16,16,0,0,1-32,0l-5.74-121.95v0a21.73,21.73,0,0,1,21.5-22.69h.21a21.74,21.74,0,0,1,21.73,22.7Z" />
  </symbol>
  <symbol id="sort" viewBox="0 0 24 24">
    <title>sort</title>
    <path d="M18.8225 10.4112H6L12.4113 4C14.5481 6.13687 16.6856 8.27437 18.8225 10.4112ZM6.03563 12.875H18.8581L12.4469 19.2863C10.31 17.1494 8.1725 15.0119 6.03563 12.875Z" />
  </symbol>
  <symbol id="chevron-right" viewBox="0 0 24 24">
    <title>chevron-right</title>
    <path d="M8.00001 19.7602L14.19 12.5087L8.04801 5.22523L8.91601 4.46973L15.7975 12.5087L8.93201 20.5477C8.62101 20.2852 8.31051 20.0227 7.99951 19.7597L8.00001 19.7602Z" />
  </symbol>
  <symbol id="close" viewBox="0 0 24 24">
    <title>close</title>
    <path d="M12.0005 9.31767L6.44363 4.38393C6.15629 4.12837 5.82095 4.00059 5.43761 4.00059C5.05427 4.00059 4.71364 4.13896 4.41571 4.41571C4.14956 4.70305 4.01118 5.03838 4.00059 5.42172C3.99016 5.80506 4.11778 6.1457 4.38393 6.44363L9.31767 12.0005L4.38393 17.5575C4.12837 17.8448 4.00059 18.1801 4.00059 18.5635C4.00059 18.9468 4.13896 19.2822 4.41571 19.5695C4.70305 19.8462 5.04368 19.9846 5.43761 19.9846C5.83138 19.9846 6.17201 19.862 6.45952 19.6172L12 14.6834L17.557 19.6172C17.8443 19.8727 18.1849 19.9952 18.5789 19.9846C18.9728 19.974 19.3081 19.8356 19.5849 19.5695C19.851 19.2822 19.9841 18.9468 19.9841 18.5635C19.9841 18.1801 19.851 17.845 19.5849 17.5575L14.6829 12.0005L19.6167 6.44363C19.8722 6.15629 20 5.81565 20 5.42172C20 5.02779 19.8563 4.69245 19.569 4.41571C19.2922 4.14956 18.9622 4.01118 18.5789 4.00059C18.1955 3.99016 17.8549 4.11778 17.557 4.38393C15.7048 6.02851 13.8527 7.67309 12 9.31767H12.0005Z" />
  </symbol>
  <symbol id="check" viewBox="0 0 24 24">
    <title>check</title>
    <path d="M12.0005 9.31767L6.44363 4.38393C6.15629 4.12837 5.82095 4.00059 5.43761 4.00059C5.05427 4.00059 4.71364 4.13896 4.41571 4.41571C4.14956 4.70305 4.01118 5.03838 4.00059 5.42172C3.99016 5.80506 4.11778 6.1457 4.38393 6.44363L9.31767 12.0005L4.38393 17.5575C4.12837 17.8448 4.00059 18.1801 4.00059 18.5635C4.00059 18.9468 4.13896 19.2822 4.41571 19.5695C4.70305 19.8462 5.04368 19.9846 5.43761 19.9846C5.83138 19.9846 6.17201 19.862 6.45952 19.6172L12 14.6834L17.557 19.6172C17.8443 19.8727 18.1849 19.9952 18.5789 19.9846C18.9728 19.974 19.3081 19.8356 19.5849 19.5695C19.851 19.2822 19.9841 18.9468 19.9841 18.5635C19.9841 18.1801 19.851 17.845 19.5849 17.5575L14.6829 12.0005L19.6167 6.44363C19.8722 6.15629 20 5.81565 20 5.42172C20 5.02779 19.8563 4.69245 19.569 4.41571C19.2922 4.14956 18.9622 4.01118 18.5789 4.00059C18.1955 3.99016 17.8549 4.11778 17.557 4.38393C15.7048 6.02851 13.8527 7.67309 12 9.31767H12.0005Z" />
  </symbol>
</svg>
