<svg width="198" height="47" viewBox="0 0 198 47" fill="none" xmlns="http://www.w3.org/2000/svg">
    <path d="M13.176 12.318C13.176 16.556 10.16 19.234 6.676 19.234C3.088 19.234 0.54 17.05 0.54 12.812C0.54 8.574 3.556 5.87 7.04 5.87C10.628 5.87 13.176 8.054 13.176 12.318ZM9.926 12.396C9.926 9.9 8.678 8.678 6.858 8.678C5.168 8.678 3.79 10.056 3.79 12.708C3.79 15.23 5.012 16.426 6.858 16.426C8.548 16.426 9.926 15.022 9.926 12.396ZM15.9946 23.966V6.182L19.0886 6.052V7.04C19.9726 6.39 21.1166 5.948 22.4166 5.948C25.6666 5.948 27.7206 7.976 27.7206 12.084C27.7206 16.66 24.8866 19.156 20.7006 19.156C20.0766 19.156 19.6866 19.104 19.1926 19V23.966H15.9946ZM20.6226 16.452C22.9626 16.452 24.4706 15.178 24.4706 12.318C24.4706 9.978 23.3006 8.886 21.4546 8.886C20.5706 8.886 19.9986 8.99 19.1666 9.302V16.322C19.7906 16.426 20.0766 16.452 20.6226 16.452ZM29.79 12.578C29.79 8.184 32.416 5.87 35.692 5.87C38.864 5.87 40.866 7.846 40.866 11.148C40.866 12.006 40.84 12.916 40.762 13.488H32.858C33.248 15.542 34.47 16.478 36.784 16.478C38.24 16.478 39.228 16.296 40.476 15.906V18.506C39.098 18.922 38.11 19.156 36.368 19.156C32.338 19.156 29.79 17.05 29.79 12.578ZM32.858 11.2H37.798C37.798 9.51 36.888 8.314 35.458 8.314C34.132 8.314 33.092 9.328 32.858 11.2ZM51.3936 19V11.226C51.3936 9.536 50.6136 8.886 49.1576 8.886C48.2736 8.886 47.6756 8.99 46.8176 9.302V19H43.6196V6.182L46.7136 6.052V7.014C47.8316 6.26 48.8196 5.948 50.1196 5.948C52.9016 5.948 54.5916 7.56 54.5916 10.55V19H51.3936ZM57.3945 16.92C57.3945 15.646 58.0965 14.632 59.5005 14.632C60.8525 14.632 61.6325 15.438 61.6325 16.92C61.6325 18.168 60.9305 19.13 59.5265 19.13C58.1745 19.13 57.3945 18.376 57.3945 16.92ZM79.931 19V11.278C79.931 9.562 79.151 8.886 77.721 8.886C76.837 8.886 76.343 8.964 75.485 9.302V19H72.287V11.278C72.287 9.536 71.481 8.886 70.077 8.886C69.167 8.886 68.673 8.99 67.841 9.302V19H64.643V6.182L67.737 6.052V7.014C68.907 6.234 69.843 5.948 71.117 5.948C72.781 5.948 73.821 6.442 74.627 7.378C75.823 6.468 77.123 5.948 78.683 5.948C81.491 5.948 83.129 7.586 83.129 10.576V19H79.931ZM89.6515 6.052V19H86.4535V6.182L89.6515 6.052ZM86.1935 2.594C86.1935 1.632 86.8435 0.773999 88.0395 0.773999C89.2355 0.773999 89.8855 1.554 89.8855 2.594C89.8855 3.53 89.2355 4.362 88.0395 4.362C86.8435 4.362 86.1935 3.608 86.1935 2.594ZM100.956 19V11.226C100.956 9.536 100.176 8.886 98.7201 8.886C97.8361 8.886 97.2381 8.99 96.3801 9.302V19H93.1821V6.182L96.2761 6.052V7.014C97.3941 6.26 98.3821 5.948 99.6821 5.948C102.464 5.948 104.154 7.56 104.154 10.55V19H100.956ZM109.791 19L105.761 6.104H109.427L112.053 16.53H112.261L114.861 6.104H118.189L114.211 19H109.791ZM137.518 6.104L134.19 19H129.874L128.002 11.954H127.924L125.74 19H121.606L118.33 6.104H121.996L123.946 16.504H124.076L126.676 8.496L126.026 6.104H129.198L132.032 16.504H132.162L134.19 6.104H137.518ZM138.665 18.818V16.062C139.913 16.374 141.187 16.504 142.331 16.504C144.151 16.504 144.697 16.036 144.697 15.334C144.697 14.736 144.385 14.398 143.059 14.008L141.421 13.514C139.627 12.994 138.639 11.902 138.639 10.056C138.639 7.664 140.641 5.948 144.177 5.948C145.373 5.948 146.465 6.052 147.349 6.208L147.167 8.886C146.023 8.704 145.113 8.626 144.021 8.626C142.461 8.626 141.811 9.094 141.811 9.692C141.811 10.264 141.993 10.576 143.241 10.914L144.775 11.33C147.037 11.954 147.895 13.098 147.895 14.84C147.895 17.544 145.815 19.156 142.409 19.156C140.979 19.156 139.653 19.052 138.665 18.818ZM150.045 16.92C150.045 15.646 150.747 14.632 152.151 14.632C153.503 14.632 154.283 15.438 154.283 16.92C154.283 18.168 153.581 19.13 152.177 19.13C150.825 19.13 150.045 18.376 150.045 16.92ZM165.067 19V11.226C165.067 9.536 164.287 8.886 162.831 8.886C161.947 8.886 161.349 8.99 160.491 9.302V19H157.293V6.182L160.387 6.052V7.014C161.505 6.26 162.493 5.948 163.793 5.948C166.575 5.948 168.265 7.56 168.265 10.55V19H165.067ZM174.786 0.825998V19H171.588V0.982L174.786 0.825998ZM2.092 38.968L1.788 43H0.588L1.372 32.504H3.9C6.124 32.504 7.18 33.48 7.18 35.224C7.18 37.672 5.596 39.064 3.228 39.064C2.828 39.064 2.476 39.032 2.092 38.968ZM3.756 33.528H2.492L2.156 37.944C2.556 38.008 2.908 38.024 3.324 38.024C4.78 38.024 5.916 37.096 5.916 35.512C5.916 34.12 5.244 33.528 3.756 33.528ZM10.217 35.096L9.721 40.344C9.593 41.64 9.913 42.04 10.505 42.04C11.001 42.04 11.641 41.768 12.649 40.904L13.129 35.24L14.281 35.096L13.625 43H12.521L12.633 41.848H12.585C11.673 42.76 10.953 43.144 10.169 43.144C9.049 43.144 8.361 42.44 8.553 40.504L9.065 35.24L10.217 35.096ZM16.8214 43L15.8614 43.176L16.8854 31.928L18.0374 31.784L17.6054 36.36H17.6534C18.4854 35.384 19.1734 35.032 19.9574 35.032C21.0614 35.032 21.7814 35.8 21.7814 37.768C21.7814 41.368 19.9414 43.144 17.9574 43.144C17.5734 43.144 17.1574 43.096 16.8214 43ZM17.5094 37.528L17.0934 42.088C17.3814 42.168 17.7014 42.184 17.9894 42.184C19.3334 42.184 20.5974 40.92 20.5974 37.832C20.5974 36.568 20.1974 36.12 19.6054 36.12C19.1094 36.12 18.2934 36.616 17.5094 37.528ZM25.3655 31.784L24.3415 43H23.2055L24.2135 31.928L25.3655 31.784ZM28.4834 35.096L27.7634 43H26.6274L27.3314 35.24L28.4834 35.096ZM27.4434 32.712C27.4434 32.216 27.7634 31.912 28.2274 31.912C28.6274 31.912 28.8514 32.152 28.8514 32.552C28.8514 32.984 28.5634 33.336 28.0674 33.336C27.6994 33.336 27.4434 33.128 27.4434 32.712ZM34.7373 35.144L34.6413 36.184C34.1773 36.104 33.8413 36.072 33.3932 36.072C32.2413 36.072 31.1213 37.224 31.1213 40.264C31.1213 41.608 31.6493 42.136 32.5613 42.136C33.1213 42.136 33.5693 42.04 34.1933 41.8V42.792C33.5373 43.032 33.0413 43.144 32.4173 43.144C30.7693 43.144 29.9373 42.36 29.9373 40.344C29.9373 36.632 31.6973 35.032 33.4413 35.032C33.9533 35.032 34.3213 35.064 34.7373 35.144ZM40.1473 35.16L41.1073 35L40.3873 43H39.2833L39.4113 41.72H39.3633C38.6593 42.696 37.8753 43.144 36.9953 43.144C35.9553 43.144 35.2353 42.424 35.2353 40.424C35.2353 36.92 37.0273 35.032 38.9633 35.032C39.4433 35.032 39.8113 35.08 40.1473 35.16ZM39.4753 40.536L39.8753 36.088C39.5873 36.024 39.2193 35.992 38.8673 35.992C37.6673 35.992 36.4193 37.48 36.4193 40.344C36.4193 41.656 36.8353 42.104 37.3793 42.104C37.9393 42.104 38.7073 41.592 39.4753 40.536ZM42.643 36.088V35.176H43.555L43.715 33.496L44.851 33.32L44.659 35.176H46.275L46.179 36.088H44.563L44.099 40.68C43.987 41.8 44.259 42.104 44.787 42.104C45.187 42.104 45.443 42.056 45.907 41.896V42.904C45.363 43.096 45.075 43.144 44.435 43.144C43.347 43.144 42.787 42.488 42.963 40.76L43.443 36.088H42.643ZM49.0615 35.096L48.3415 43H47.2055L47.9095 35.24L49.0615 35.096ZM48.0215 32.712C48.0215 32.216 48.3415 31.912 48.8055 31.912C49.2055 31.912 49.4295 32.152 49.4295 32.552C49.4295 32.984 49.1415 33.336 48.6455 33.336C48.2775 33.336 48.0215 33.128 48.0215 32.712ZM50.5154 40.248C50.5154 36.712 52.2114 35.032 53.8434 35.032C55.1554 35.032 55.8754 35.704 55.8754 36.84C55.8754 38.648 54.2594 39.88 51.6674 39.88C51.6674 41.64 52.2434 42.104 53.2674 42.104C54.0034 42.104 54.6434 41.912 55.3314 41.544V42.584C54.5794 42.984 53.9234 43.144 52.9474 43.144C51.3794 43.144 50.5154 42.28 50.5154 40.248ZM54.6914 36.984C54.6914 36.344 54.3394 36.024 53.7154 36.024C52.9154 36.024 51.9714 36.968 51.7474 38.984C53.6354 38.984 54.6914 38.104 54.6914 36.984ZM60.8748 32.296L61.7548 32.632L56.1867 46.008L55.3387 45.672L60.8748 32.296ZM67.8331 31.784L66.8091 43H65.7051L65.8331 41.72H65.7851C65.0651 42.696 64.2971 43.144 63.4171 43.144C62.3771 43.144 61.6571 42.424 61.6571 40.424C61.6571 36.92 63.4491 35.032 65.3851 35.032C65.7851 35.032 66.1051 35.064 66.3931 35.128L66.6811 31.928L67.8331 31.784ZM65.8971 40.536L66.3131 36.088C66.0251 36.024 65.6411 35.992 65.2891 35.992C64.0891 35.992 62.8411 37.48 62.8411 40.344C62.8411 41.656 63.2571 42.104 63.8011 42.104C64.3611 42.104 65.1291 41.592 65.8971 40.536ZM71.6885 43.144C70.0565 43.144 69.0485 42.248 69.0485 39.96C69.0485 36.76 70.6325 35.016 72.5045 35.016C74.1365 35.016 75.1285 36.12 75.1285 38.232C75.1285 41.336 73.4965 43.144 71.6885 43.144ZM70.2325 39.816C70.2325 41.608 70.8885 42.152 71.7845 42.152C72.8405 42.152 73.9445 40.984 73.9445 38.408C73.9445 36.744 73.3685 36.04 72.3605 36.04C71.3365 36.04 70.2325 37.288 70.2325 39.816ZM81.2373 35.144L81.1413 36.184C80.6773 36.104 80.3413 36.072 79.8932 36.072C78.7413 36.072 77.6213 37.224 77.6213 40.264C77.6213 41.608 78.1493 42.136 79.0613 42.136C79.6213 42.136 80.0693 42.04 80.6933 41.8V42.792C80.0373 43.032 79.5413 43.144 78.9173 43.144C77.2693 43.144 76.4373 42.36 76.4373 40.344C76.4373 36.632 78.1973 35.032 79.9413 35.032C80.4533 35.032 80.8213 35.064 81.2373 35.144ZM83.6233 35.096L83.1273 40.344C82.9993 41.64 83.3193 42.04 83.9113 42.04C84.4073 42.04 85.0473 41.768 86.0553 40.904L86.5353 35.24L87.6873 35.096L87.0313 43H85.9273L86.0393 41.848H85.9913C85.0793 42.76 84.3593 43.144 83.5753 43.144C82.4553 43.144 81.7673 42.44 81.9593 40.504L82.4713 35.24L83.6233 35.096ZM89.2836 43L89.9876 35.24L91.1236 35.096L91.0116 36.296H91.0596C91.9716 35.384 92.5796 35.032 93.3636 35.032C94.2436 35.032 94.6916 35.464 94.8836 36.328H94.9156C95.8276 35.416 96.5476 35.032 97.3316 35.032C98.4036 35.032 99.0756 35.768 98.8996 37.656L98.3876 43H97.2516L97.7476 37.832C97.8756 36.552 97.5076 36.136 97.0116 36.136C96.5156 36.136 95.8916 36.472 94.9796 37.256L94.4196 43H93.2676L93.7636 37.832C93.8916 36.552 93.6196 36.136 93.0596 36.136C92.5636 36.136 91.9076 36.52 90.9316 37.368L90.4196 43H89.2836ZM100.469 40.248C100.469 36.712 102.164 35.032 103.797 35.032C105.109 35.032 105.829 35.704 105.829 36.84C105.829 38.648 104.213 39.88 101.621 39.88C101.621 41.64 102.197 42.104 103.221 42.104C103.957 42.104 104.597 41.912 105.285 41.544V42.584C104.533 42.984 103.877 43.144 102.901 43.144C101.333 43.144 100.469 42.28 100.469 40.248ZM104.645 36.984C104.645 36.344 104.293 36.024 103.669 36.024C102.869 36.024 101.924 36.968 101.701 38.984C103.589 38.984 104.645 38.104 104.645 36.984ZM111.052 43L111.548 37.832C111.676 36.536 111.308 36.136 110.78 36.136C110.316 36.136 109.564 36.52 108.588 37.384L108.076 43H106.94L107.644 35.24L108.78 35.096L108.668 36.296H108.716C109.628 35.384 110.364 35.032 111.1 35.032C112.22 35.032 112.876 35.752 112.7 37.656L112.188 43H111.052ZM114.377 36.088V35.176H115.289L115.449 33.496L116.585 33.32L116.393 35.176H118.009L117.913 36.088H116.297L115.833 40.68C115.721 41.8 115.993 42.104 116.521 42.104C116.921 42.104 117.177 42.056 117.641 41.896V42.904C117.097 43.096 116.809 43.144 116.169 43.144C115.081 43.144 114.521 42.488 114.697 40.76L115.177 36.088H114.377ZM121.799 43L122.503 35.24L123.639 35.096L123.527 36.296H123.575C124.487 35.384 125.095 35.032 125.879 35.032C126.759 35.032 127.207 35.464 127.399 36.328H127.431C128.343 35.416 129.063 35.032 129.847 35.032C130.919 35.032 131.591 35.768 131.415 37.656L130.903 43H129.767L130.263 37.832C130.391 36.552 130.023 36.136 129.527 36.136C129.031 36.136 128.407 36.472 127.495 37.256L126.935 43H125.783L126.279 37.832C126.407 36.552 126.135 36.136 125.575 36.136C125.079 36.136 124.423 36.52 123.447 37.368L122.935 43H121.799ZM137.944 35.16L138.904 35L138.184 43H137.08L137.208 41.72H137.16C136.456 42.696 135.672 43.144 134.792 43.144C133.752 43.144 133.032 42.424 133.032 40.424C133.032 36.92 134.824 35.032 136.76 35.032C137.24 35.032 137.608 35.08 137.944 35.16ZM137.272 40.536L137.672 36.088C137.384 36.024 137.016 35.992 136.664 35.992C135.464 35.992 134.216 37.48 134.216 40.344C134.216 41.656 134.632 42.104 135.176 42.104C135.736 42.104 136.504 41.592 137.272 40.536ZM144.552 43L145.048 37.832C145.176 36.536 144.808 36.136 144.28 36.136C143.816 36.136 143.064 36.52 142.088 37.384L141.576 43H140.44L141.144 35.24L142.28 35.096L142.168 36.296H142.216C143.128 35.384 143.864 35.032 144.6 35.032C145.72 35.032 146.376 35.752 146.2 37.656L145.688 43H144.552ZM152.725 35.16L153.685 35L152.965 43H151.861L151.989 41.72H151.941C151.237 42.696 150.453 43.144 149.573 43.144C148.533 43.144 147.813 42.424 147.813 40.424C147.813 36.92 149.605 35.032 151.541 35.032C152.021 35.032 152.389 35.08 152.725 35.16ZM152.053 40.536L152.453 36.088C152.165 36.024 151.797 35.992 151.445 35.992C150.245 35.992 148.997 37.48 148.997 40.344C148.997 41.656 149.413 42.104 149.957 42.104C150.517 42.104 151.285 41.592 152.053 40.536ZM160.069 35.16L161.029 35L160.309 43.08C160.117 45.24 158.773 46.104 157.173 46.104C156.357 46.104 155.733 46.056 154.917 45.896V44.792C155.701 45.016 156.389 45.112 157.093 45.112C158.325 45.112 159.045 44.52 159.189 43.112L159.333 41.72H159.285C158.565 42.696 157.797 43.144 156.917 43.144C155.877 43.144 155.157 42.424 155.157 40.424C155.157 36.92 156.949 35.032 158.885 35.032C159.365 35.032 159.733 35.08 160.069 35.16ZM159.397 40.536L159.797 36.088C159.509 36.024 159.141 35.992 158.789 35.992C157.589 35.992 156.341 37.48 156.341 40.344C156.341 41.656 156.757 42.104 157.301 42.104C157.861 42.104 158.629 41.592 159.397 40.536ZM162.453 40.248C162.453 36.712 164.149 35.032 165.781 35.032C167.093 35.032 167.813 35.704 167.813 36.84C167.813 38.648 166.197 39.88 163.605 39.88C163.605 41.64 164.181 42.104 165.205 42.104C165.941 42.104 166.581 41.912 167.269 41.544V42.584C166.517 42.984 165.861 43.144 164.885 43.144C163.317 43.144 162.453 42.28 162.453 40.248ZM166.629 36.984C166.629 36.344 166.277 36.024 165.653 36.024C164.853 36.024 163.909 36.968 163.685 38.984C165.573 38.984 166.629 38.104 166.629 36.984ZM168.924 43L169.628 35.24L170.764 35.096L170.652 36.296H170.7C171.612 35.384 172.22 35.032 173.004 35.032C173.884 35.032 174.332 35.464 174.524 36.328H174.556C175.468 35.416 176.188 35.032 176.972 35.032C178.044 35.032 178.716 35.768 178.54 37.656L178.028 43H176.892L177.388 37.832C177.516 36.552 177.148 36.136 176.652 36.136C176.156 36.136 175.532 36.472 174.62 37.256L174.06 43H172.908L173.404 37.832C173.532 36.552 173.26 36.136 172.7 36.136C172.204 36.136 171.548 36.52 170.572 37.368L170.06 43H168.924ZM180.109 40.248C180.109 36.712 181.805 35.032 183.437 35.032C184.749 35.032 185.469 35.704 185.469 36.84C185.469 38.648 183.853 39.88 181.261 39.88C181.261 41.64 181.837 42.104 182.861 42.104C183.597 42.104 184.237 41.912 184.925 41.544V42.584C184.173 42.984 183.517 43.144 182.541 43.144C180.973 43.144 180.109 42.28 180.109 40.248ZM184.285 36.984C184.285 36.344 183.933 36.024 183.309 36.024C182.509 36.024 181.565 36.968 181.341 38.984C183.229 38.984 184.285 38.104 184.285 36.984ZM190.693 43L191.189 37.832C191.317 36.536 190.949 36.136 190.421 36.136C189.957 36.136 189.205 36.52 188.229 37.384L187.717 43H186.581L187.285 35.24L188.421 35.096L188.309 36.296H188.357C189.269 35.384 190.005 35.032 190.741 35.032C191.861 35.032 192.517 35.752 192.341 37.656L191.829 43H190.693ZM194.018 36.088V35.176H194.93L195.09 33.496L196.226 33.32L196.034 35.176H197.65L197.554 36.088H195.938L195.474 40.68C195.362 41.8 195.634 42.104 196.162 42.104C196.562 42.104 196.818 42.056 197.282 41.896V42.904C196.738 43.096 196.45 43.144 195.81 43.144C194.722 43.144 194.162 42.488 194.338 40.76L194.818 36.088H194.018Z" fill="white"/>
</svg>