<svg width="12" height="13" viewBox="0 0 12 13" fill="none" xmlns="http://www.w3.org/2000/svg">
<path d="M9.75543 7.24379C9.7153 7.34017 9.6388 7.44479 9.5263 7.55729L4.44955 12.634C4.35305 12.7305 4.25255 12.7989 4.14805 12.8392C4.04355 12.8794 3.92293 12.9035 3.78618 12.9115C3.64943 12.9195 3.5248 12.8954 3.4123 12.8392C3.2998 12.7829 3.19518 12.7147 3.0988 12.634L2.53218 12.0674C2.43568 11.9709 2.3633 11.8584 2.31505 11.7299C2.2668 11.6014 2.24268 11.4848 2.24268 11.38C2.24268 11.2433 2.2668 11.1227 2.31505 11.0182C2.36343 10.9135 2.4358 10.8093 2.53218 10.7047L6.27055 6.88192L2.54455 3.16792C2.45605 3.07942 2.38768 2.97092 2.33943 2.84242C2.29118 2.71392 2.26705 2.59729 2.26705 2.49254C2.26705 2.35579 2.29118 2.23517 2.33943 2.13067C2.3878 2.02604 2.45605 1.92179 2.54455 1.81717L3.11118 1.12979C3.20768 1.03329 3.30818 0.960918 3.41268 0.912668C3.51718 0.864418 3.6418 0.844293 3.78655 0.852293C3.9313 0.860293 4.05593 0.880418 4.16043 0.912668C4.26505 0.944918 4.3693 1.01729 4.47393 1.12979L9.5143 6.23054C9.6188 6.32704 9.69518 6.42354 9.74343 6.52004C9.7918 6.61642 9.8158 6.73717 9.8158 6.88192C9.8158 7.02667 9.79568 7.14729 9.75543 7.24379Z" fill="#01689B" />
</svg>
