<svg xmlns="http://www.w3.org/2000/svg" xmlns:xlink="http://www.w3.org/1999/xlink">
  <symbol id="check" viewBox="0 0 24 24">
    <title>check</title>
    <path d="M9.05875 19.8693L2.26562 13.0562L4.41625 10.9056L9.01875 15.5081L19.6706 4.83618L21.8613 6.98681C17.5938 11.2812 13.3263 15.5756 9.05875 19.8693Z" />
  </symbol>
  <symbol id="check-rounded" viewBox="0 0 32 32">
    <title>check rounded</title>
    <path fill-rule="evenodd" clip-rule="evenodd" d="M22.7951 9.85322L13.2484 19.0666L10.7151 16.3599C10.2484 15.9199 9.51509 15.8932 8.98176 16.2666C8.46176 16.6532 8.31509 17.3332 8.63509 17.8799L11.6351 22.7599C11.9284 23.2132 12.4351 23.4932 13.0084 23.4932C13.5551 23.4932 14.0751 23.2132 14.3684 22.7599C14.8484 22.1332 24.0084 11.2132 24.0084 11.2132C25.2084 9.98655 23.7551 8.90655 22.7951 9.83989V9.85322Z" />
  </symbol>
  <symbol id="check-rounded-filled" viewBox="0 0 20 20">
    <title>check</title>
    <path d="M2.68125 0.232302C0.24375 0.625999 0 1.55088 0 9.98726C0 18.5924 0.21875 19.3235 2.925 19.761C4.825 20.0797 15.1687 20.0797 17.05 19.761C19.8562 19.2985 19.975 18.8298 20 9.98726C20 1.13843 19.8562 0.675993 17.05 0.213554C15.3187 -0.0864048 4.4125 -0.061409 2.68125 0.232302ZM14.4625 5.38787C14.6312 5.5566 14.7563 5.85031 14.7563 6.05028C14.7563 6.56271 9.85625 14.6554 9.4625 14.7991C8.925 14.9928 8.4625 14.4304 6.80625 11.6245C5.175 8.83741 5.075 8.5437 5.5375 8.08126C6 7.61882 6.29375 7.71256 7.73125 9.01239L9.1 10.2122L10.8562 8.20625C12.8062 6.00654 13.7125 5.10041 14 5.10041C14.1 5.09416 14.2937 5.21914 14.4625 5.38787Z" />
  </symbol>
  <symbol id="chevron-down" viewBox="0 0 24 24">
    <title>chevron-down</title>
    <path d="M11.9997 13.1714L16.9495 8.22168L18.3637 9.63589L11.9997 15.9999L5.63574 9.63589L7.04996 8.22168L11.9997 13.1714Z" />
  </symbol>
  <symbol id="chevron-left" viewBox="0 0 24 24">
    <title>chevron-left</title>
    <path d="M16 4.2398L9.81 11.4913L15.952 18.7748L15.084 19.5303L8.2025 11.4913L15.068 3.4523C15.379 3.7148 15.689 3.9768 16 4.2398Z" />
  </symbol>
  <symbol id="chevron-right" viewBox="0 0 24 24">
    <title>chevron-right</title>
    <path d="M8.00001 19.7602L14.19 12.5087L8.04801 5.22523L8.91601 4.46973L15.7975 12.5087L8.93201 20.5477C8.62101 20.2852 8.31051 20.0227 7.99951 19.7597L8.00001 19.7602Z" />
  </symbol>
  <symbol id="copy" viewBox="0 0 24 24">
    <title>copy</title>
    <path d="M9 18C8.45 18 7.97917 17.8042 7.5875 17.4125C7.19583 17.0208 7 16.55 7 16V4C7 3.45 7.19583 2.97917 7.5875 2.5875C7.97917 2.19583 8.45 2 9 2H18C18.55 2 19.0208 2.19583 19.4125 2.5875C19.8042 2.97917 20 3.45 20 4V16C20 16.55 19.8042 17.0208 19.4125 17.4125C19.0208 17.8042 18.55 18 18 18H9ZM9 16H18V4H9V16ZM5 22C4.45 22 3.97917 21.8042 3.5875 21.4125C3.19583 21.0208 3 20.55 3 20V6H5V20H16V22H5Z" />
  </symbol>
  <symbol id="cross" viewBox="0 0 24 24">
    <title>cross</title>
    <path d="M18.7071 5.29289C19.0976 5.68342 19.0976 6.31658 18.7071 6.70711L6.70711 18.7071C6.31658 19.0976 5.68342 19.0976 5.29289 18.7071C4.90237 18.3166 4.90237 17.6834 5.29289 17.2929L17.2929 5.29289C17.6834 4.90237 18.3166 4.90237 18.7071 5.29289Z" />
    <path d="M5.29289 5.29289C5.68342 4.90237 6.31658 4.90237 6.70711 5.29289L18.7071 17.2929C19.0976 17.6834 19.0976 18.3166 18.7071 18.7071C18.3166 19.0976 17.6834 19.0976 17.2929 18.7071L5.29289 6.70711C4.90237 6.31658 4.90237 5.68342 5.29289 5.29289Z" />
  </symbol>
  <symbol id="cross-rounded-filled" viewBox="0 0 20 20">
    <title>cross</title>
    <path d="M10 0C4.5 0 0 4.5 0 10C0 15.5 4.5 20 10 20C15.5 20 20 15.5 20 10C20 4.5 15.5 0 10 0ZM14.0625 14.0625C13.75 14.375 13.25 14.375 12.9375 14.0625L9.9375 11.4375L7 14.0625C6.6875 14.375 6.1875 14.375 5.875 14.0625C5.5625 13.75 5.5625 13.25 5.875 12.9375L8.5 9.9375L5.875 6.9375C5.625 6.625 5.625 6.1875 5.875 5.875C6.1875 5.625 6.6875 5.625 7 5.875L10 8.5L13 5.875V5.9375C13.3125 5.625 13.8125 5.625 14.125 5.9375C14.4375 6.25 14.4375 6.6875 14.125 7L11.4375 10L14.0625 13C14.375 13.3125 14.375 13.8125 14.0625 14.0625Z" />
  </symbol>
  <symbol id="dot" viewBox="0 0 32 32">
    <title>dot</title>
    <circle cx="16" cy="16" r="5" />
  </symbol>
  <symbol id="download" viewBox="0 0 20 20">
    <title>download</title>
    <path d="M17.6001 8.02422C17.434 7.95299 17.2382 7.91147 17.0128 7.89966C16.8583 7.89966 16.6922 7.91129 16.5145 7.93509L16.3186 7.97052L13.6127 9.78624V3.96543C13.6245 3.83479 13.5889 3.72205 13.5059 3.6272C13.4228 3.53254 13.3099 3.49656 13.1676 3.52036H10.4795C10.3607 3.50855 10.2538 3.54416 10.159 3.6272C10.0643 3.71024 10.0223 3.82316 10.0344 3.96543V9.78624L7.34629 7.97052L7.13261 7.93509C6.96654 7.91147 6.80637 7.89966 6.65211 7.89966C6.42662 7.91147 6.22494 7.95299 6.04706 8.02422C5.83338 8.10725 5.66122 8.23771 5.53058 8.41559C5.32871 8.68869 5.22777 8.99131 5.22777 9.32345C5.22777 9.65559 5.32871 9.95821 5.53058 10.2313C5.54239 10.2431 5.77968 10.5278 6.24247 11.0855C8.21245 13.4828 9.62461 15.1324 10.479 16.0344C10.8351 16.4618 11.2861 16.7585 11.8319 16.9245C12.3659 16.7585 12.8051 16.4618 13.1494 16.0344C13.9089 15.2037 15.1965 13.6965 17.0122 11.5128C17.7123 10.6703 18.0743 10.2431 18.0983 10.2313C18.312 9.97039 18.4247 9.66777 18.4365 9.32345C18.4482 8.97913 18.3474 8.67688 18.1337 8.41559C18.0031 8.23771 17.825 8.10725 17.5995 8.02422H17.6001ZM19.7363 16.9423H17.547V18.2598C17.547 18.3786 17.5054 18.4795 17.4224 18.5626C17.3394 18.6456 17.2325 18.6932 17.1019 18.7048H6.61724C6.4984 18.7048 6.39747 18.6574 6.31443 18.5626C6.2314 18.4679 6.18379 18.3666 6.17217 18.2598V16.9423H4.0005V20.4314C3.97689 20.6805 4.05992 20.8942 4.24961 21.0725C4.43949 21.2507 4.65317 21.3337 4.89065 21.3216H18.8999C19.149 21.3334 19.3627 21.2503 19.5409 21.0725C19.7192 20.8942 19.7845 20.6811 19.7369 20.4314C19.7369 19.2684 19.7369 18.1053 19.7369 16.9423H19.7363Z" />
  </symbol>
  <symbol id="format-bold" viewBox="0 -960 960 960">
    <path d="M272-200v-560h221q65 0 120 40t55 111q0 51-23 78.5T602-491q25 11 55.5 41t30.5 90q0 89-65 124.5T501-200H272Zm121-112h104q48 0 58.5-24.5T566-372q0-11-10.5-35.5T494-432H393v120Zm0-228h93q33 0 48-17t15-38q0-24-17-39t-44-15h-95v109Z"/>
  </symbol>
  <symbol id="format-italic" viewBox="0 -960 960 960">
    <path d="M200-200v-100h160l120-360H320v-100h400v100H580L460-300h140v100H200Z"/>
  </symbol>
  <symbol id="format-link" viewBox="0 -960 960 960">
    <path d="M440-280H280q-83 0-141.5-58.5T80-480q0-83 58.5-141.5T280-680h160v80H280q-50 0-85 35t-35 85q0 50 35 85t85 35h160v80ZM320-440v-80h320v80H320Zm200 160v-80h160q50 0 85-35t35-85q0-50-35-85t-85-35H520v-80h160q83 0 141.5 58.5T880-480q0 83-58.5 141.5T680-280H520Z"/>
  </symbol>
  <symbol id="format-list-bullet" viewBox="0 -960 960 960">
    <path d="M360-200v-80h480v80H360Zm0-240v-80h480v80H360Zm0-240v-80h480v80H360ZM200-160q-33 0-56.5-23.5T120-240q0-33 23.5-56.5T200-320q33 0 56.5 23.5T280-240q0 33-23.5 56.5T200-160Zm0-240q-33 0-56.5-23.5T120-480q0-33 23.5-56.5T200-560q33 0 56.5 23.5T280-480q0 33-23.5 56.5T200-400Zm0-240q-33 0-56.5-23.5T120-720q0-33 23.5-56.5T200-800q33 0 56.5 23.5T280-720q0 33-23.5 56.5T200-640Z"/>
  </symbol>
  <symbol id="format-list-number" viewBox="0 -960 960 960">
    <path d="M120-80v-60h100v-30h-60v-60h60v-30H120v-60h120q17 0 28.5 11.5T280-280v40q0 17-11.5 28.5T240-200q17 0 28.5 11.5T280-160v40q0 17-11.5 28.5T240-80H120Zm0-280v-110q0-17 11.5-28.5T160-510h60v-30H120v-60h120q17 0 28.5 11.5T280-560v70q0 17-11.5 28.5T240-450h-60v30h100v60H120Zm60-280v-180h-60v-60h120v240h-60Zm180 440v-80h480v80H360Zm0-240v-80h480v80H360Zm0-240v-80h480v80H360Z"/>
  </symbol>
  <symbol id="exclamation" viewBox="0 -960 960 960">
    <title>exclamation</title>
    <path d="m40-120 440-760 440 760H40Zm138-80h604L480-720 178-200Zm302-40q17 0 28.5-11.5T520-280q0-17-11.5-28.5T480-320q-17 0-28.5 11.5T440-280q0 17 11.5 28.5T480-240Zm-40-120h80v-200h-80v200Zm40-100Z"/>
  </symbol>
  <symbol id="exclamation-filled" viewBox="0 0 512 512">
    <title>exclamation</title>
    <path d="M449.07,399.08,278.64,82.58c-12.08-22.44-44.26-22.44-56.35,0L51.87,399.08A32,32,0,0,0,80,446.25H420.89A32,32,0,0,0,449.07,399.08Zm-198.6-1.83a20,20,0,1,1,20-20A20,20,0,0,1,250.47,397.25ZM272.19,196.1l-5.74,122a16,16,0,0,1-32,0l-5.74-121.95v0a21.73,21.73,0,0,1,21.5-22.69h.21a21.74,21.74,0,0,1,21.73,22.7Z" />
  </symbol>
  <symbol id="exclamation-filled-colored" viewBox="0 0 34 32">
    <title>exclamation</title>
    <path d="M32.7212 27.5907L19.3212 1.49075C18.7212 0.190748 17.2212 -0.309252 16.0212 0.190748C15.4212 0.490748 15.0212 0.890748 14.7212 1.49075L1.32117 27.5907C0.321174 29.4907 1.62117 31.9907 3.62117 31.9907H30.3212C32.4212 31.9907 33.6212 29.5907 32.7212 27.5907Z" fill="#FFB612"/>
    <path d="M15.0211 24.2907C15.0211 23.6907 15.2211 23.0907 15.5211 22.5907C15.8211 22.0907 16.4211 21.8907 17.0211 21.8907C17.6212 21.8907 18.1211 22.0907 18.5211 22.4907C18.9211 22.9907 19.1212 23.6907 19.0212 24.2907C19.0212 24.8907 18.8211 25.4907 18.5211 25.9907C18.1211 26.4907 17.6212 26.6907 17.0211 26.6907C16.4211 26.6907 15.9211 26.4907 15.5211 26.0907C15.1211 25.5907 14.9211 24.8907 15.0211 24.2907ZM15.4211 8.69075L18.8211 8.39075L18.5211 16.7907V20.7907L15.4211 20.8907V8.69075Z" fill="black"/>
  </symbol>
  <symbol id="file-audio" viewBox="0 0 24 24">
    <title>csv</title>
    <path d="M10 21C8.9 21 7.95833 20.6083 7.175 19.825C6.39167 19.0417 6 18.1 6 17C6 15.9 6.39167 14.9583 7.175 14.175C7.95833 13.3917 8.9 13 10 13C10.3833 13 10.7375 13.0458 11.0625 13.1375C11.3875 13.2292 11.7 13.3667 12 13.55V3H18V7H14V17C14 18.1 13.6083 19.0417 12.825 19.825C12.0417 20.6083 11.1 21 10 21Z" />
  </symbol>
  <symbol id="file-csv" viewBox="0 0 24 24">
    <title>CSV file</title>
    <path d="M19 2.1h-8.6a1 1 0 0 0-.7.3L4.3 7.8a1 1 0 0 0-.3.7v12.6a1 1 0 0 0 1 1h14a1 1 0 0 0 1-1v-18a1 1 0 0 0-.3-.7 1 1 0 0 0-.7-.3zm-1 18H6v-11h4a1 1 0 0 0 1-1v-4h7v16zm-8.5-2.3c-.3 0-.6-.1-.8-.3-.2-.3-.3-.6-.3-1s0-.8.3-1c.2-.2.5-.3.8-.3a7.8 7.8 0 0 1 .7 0v-.6a2.9 2.9 0 0 0-.7 0 2 2 0 0 0-1.3.4c-.4.4-.6.9-.6 1.6 0 .6.2 1 .5 1.3.4.3.8.5 1.3.5a3.6 3.6 0 0 0 .9-.1v-.6h-.8zm2.9-1.6-.5-.1a.9.9 0 0 1-.4-.2v-.3l.1-.3.6-.1h.8v-.6h-.8c-.5 0-.8 0-1.1.3a1 1 0 0 0-.4.8c0 .2 0 .4.2.6 0 .2.3.3.5.3l.5.2.4.2.1.3c0 .1 0 .2-.2.3l-.6.2a5 5 0 0 1-1-.1v.6a4.6 4.6 0 0 0 1 0c.5 0 .9 0 1.1-.2s.5-.6.5-1l-.2-.5c-.1-.2-.4-.3-.6-.4zm2.8 1.5-.9-3.1h-.8l1 3.8h1.2l1.1-3.8H16l-.8 3z" />
  </symbol>
  <symbol id="file-pdf" viewBox="0 0 24 24">
    <title>PDF file</title>
    <path d="M8.6 17v1.3h-.8v-3.8h1.3c.4 0 .7.1 1 .4.2.2.3.5.3.8 0 .4-.2.7-.4 1-.3.2-.6.3-1 .3h-.4zm0-1.9v1.3a1.5 1.5 0 0 0 .3 0l.5-.1.2-.5c0-.2 0-.4-.2-.5 0-.1-.2-.2-.5-.2h-.3zm3.5 3.2H11v-3.8h1c.7 0 1.2.2 1.6.5.3.3.5.7.5 1.3 0 .7-.2 1.2-.6 1.5s-.8.5-1.4.5zm-.4-3.2v2.6h.4c.4 0 .6-.1.9-.3.2-.2.3-.6.3-1s-.1-.7-.3-1c-.3-.2-.6-.3-1-.3h-.3zm3.1 3.2v-3.8h2v.6h-1.2v1h1.2v.6h-1.2v1.6h-.8zM19 2h-8.6a1 1 0 0 0-.7.3L4.3 7.8a1 1 0 0 0-.3.7v12.6a1 1 0 0 0 1 1h14a1 1 0 0 0 1-1v-18a1 1 0 0 0-.3-.7 1 1 0 0 0-.7-.3zm-1 18H6v-11h4a1 1 0 0 0 1-1v-4h7v16z" />
  </symbol>
  <symbol id="file-presentation" viewBox="0 0 24 24">
    <title>Presentation file</title>
    <path d="M20.6858 3.05548H3.38555C2.97005 3.05548 2.6333 3.39223 2.6333 3.80773V16.9672C2.6333 17.3827 2.97005 17.7195 3.38555 17.7195H9.59105C9.59105 17.7195 9.39005 18.4492 9.02705 19.6035C8.80955 20.2942 8.1323 20.3527 7.9478 20.3557H7.14605C6.9383 20.3557 6.76955 20.5245 6.76955 20.7322V21.4845H17.3003V20.7322C17.3003 20.5245 17.1323 20.3557 16.9238 20.3557H16.1221C15.9376 20.3527 15.2603 20.2942 15.0428 19.6035C14.8966 19.14 14.7788 18.7492 14.6873 18.4432C14.6873 18.4432 13.0313 18.2025 11.3108 17.8672C11.1901 17.844 11.2051 17.7555 11.2186 17.7232H20.6835C21.0991 17.7232 21.4358 17.3865 21.4358 16.971V3.80773C21.4358 3.39223 21.0991 3.05548 20.6835 3.05548H20.6858ZM19.5571 15.0907H4.5128V4.93573H19.5571V15.0907ZM12.4111 7.94473H13.9156V10.9537H12.4111V7.94473ZM14.6678 6.44023H16.1723V10.9537H14.6678V6.44023ZM16.9246 7.56823H18.4291V10.953H16.9246V7.56823ZM14.6678 14.6422C15.3263 14.6422 15.8768 14.193 16.0433 13.5862H18.8048V12.834H16.0433C15.8768 12.2272 15.3263 11.778 14.6678 11.778C14.0093 11.778 13.4588 12.2272 13.2923 12.834H5.64155V13.5862H13.2923C13.4588 14.193 14.0093 14.6422 14.6678 14.6422ZM14.6678 12.4807C15.0698 12.4807 15.3976 12.8077 15.3976 13.2105C15.3976 13.6132 15.0705 13.9402 14.6678 13.9402C14.2658 13.9402 13.9381 13.6132 13.9381 13.2105C13.9381 12.8077 14.2651 12.4807 14.6678 12.4807ZM8.08355 11.706C9.43055 11.706 10.5233 10.614 10.5233 9.26623C10.5233 8.79148 10.3853 8.34973 10.1506 7.97473L7.8983 9.26623V6.83548C6.6503 6.94273 5.64455 7.98973 5.64455 9.26623C5.64455 10.6132 6.73655 11.706 8.0843 11.706H8.08355ZM8.6678 5.46748V7.90723L10.7348 6.61573C10.3036 5.92723 9.54005 5.46823 8.6678 5.46823V5.46748Z" />
  </symbol>
  <symbol id="file-text" viewBox="0 0 24 24">
    <title>Text file</title>
    <path d="M4 19V17H14V19H4ZM4 15V13H20V15H4ZM4 11V9H20V11H4ZM4 7V5H20V7H4Z" />
  </symbol>
  <symbol id="file-unknown" viewBox="0 0 24 24">
    <title>File unknown</title>
    <path d="M7 14H10.675C10.8583 13.6167 11.0708 13.2583 11.3125 12.925C11.5542 12.5917 11.825 12.2833 12.125 12H7V14ZM7 18H10.075C10.025 17.6667 10 17.3333 10 17C10 16.6667 10.025 16.3333 10.075 16H7V18ZM5 22C4.45 22 3.97917 21.8042 3.5875 21.4125C3.19583 21.0208 3 20.55 3 20V4C3 3.45 3.19583 2.97917 3.5875 2.5875C3.97917 2.19583 4.45 2 5 2H13L19 8V10.3C18.6833 10.2 18.3583 10.125 18.025 10.075C17.6917 10.025 17.35 10 17 10V9H12V4H5V20H10.675C10.8583 20.3833 11.0708 20.7417 11.3125 21.075C11.5542 21.4083 11.825 21.7167 12.125 22H5ZM17 12C18.3833 12 19.5625 12.4875 20.5375 13.4625C21.5125 14.4375 22 15.6167 22 17C22 18.3833 21.5125 19.5625 20.5375 20.5375C19.5625 21.5125 18.3833 22 17 22C15.6167 22 14.4375 21.5125 13.4625 20.5375C12.4875 19.5625 12 18.3833 12 17C12 15.6167 12.4875 14.4375 13.4625 13.4625C14.4375 12.4875 15.6167 12 17 12ZM17 20C17.1833 20 17.3375 19.9375 17.4625 19.8125C17.5875 19.6875 17.65 19.5333 17.65 19.35C17.65 19.1667 17.5875 19.0125 17.4625 18.8875C17.3375 18.7625 17.1833 18.7 17 18.7C16.8167 18.7 16.6625 18.7625 16.5375 18.8875C16.4125 19.0125 16.35 19.1667 16.35 19.35C16.35 19.5333 16.4125 19.6875 16.5375 19.8125C16.6625 19.9375 16.8167 20 17 20ZM16.55 18.1H17.45V17.85C17.45 17.6667 17.5 17.5042 17.6 17.3625C17.7 17.2208 17.8167 17.0833 17.95 16.95C18.1833 16.75 18.3667 16.5583 18.5 16.375C18.6333 16.1917 18.7 15.9333 18.7 15.6C18.7 15.1167 18.5417 14.7292 18.225 14.4375C17.9083 14.1458 17.5 14 17 14C16.6167 14 16.2708 14.1125 15.9625 14.3375C15.6542 14.5625 15.4333 14.8667 15.3 15.25L16.1 15.6C16.15 15.4 16.2542 15.225 16.4125 15.075C16.5708 14.925 16.7667 14.85 17 14.85C17.25 14.85 17.4458 14.9125 17.5875 15.0375C17.7292 15.1625 17.8 15.35 17.8 15.6C17.8 15.7833 17.75 15.9375 17.65 16.0625C17.55 16.1875 17.4333 16.3167 17.3 16.45C17.2 16.55 17.0958 16.65 16.9875 16.75C16.8792 16.85 16.7833 16.9667 16.7 17.1C16.65 17.2 16.6125 17.3 16.5875 17.4C16.5625 17.5 16.55 17.6167 16.55 17.75V18.1Z" />
  </symbol>
  <symbol id="file-xml" viewBox="0 0 24 24">
    <title>XML file</title>
    <path d="M9.6 15.6L11 14.175L8.825 12L11 9.825L9.6 8.4L6 12L9.6 15.6ZM14.4 15.6L18 12L14.4 8.4L13 9.825L15.175 12L13 14.175L14.4 15.6ZM5 21C4.45 21 3.97917 20.8042 3.5875 20.4125C3.19583 20.0208 3 19.55 3 19V5C3 4.45 3.19583 3.97917 3.5875 3.5875C3.97917 3.19583 4.45 3 5 3H19C19.55 3 20.0208 3.19583 20.4125 3.5875C20.8042 3.97917 21 4.45 21 5V19C21 19.55 20.8042 20.0208 20.4125 20.4125C20.0208 20.8042 19.55 21 19 21H5ZM5 19H19V5H5V19Z" />
  </symbol>
  <symbol id="file-video" viewBox="0 0 24 24">
    <title>Video file</title>
    <path d="M4 4L6 8H9L7 4H9L11 8H14L12 4H14L16 8H19L17 4H20C20.55 4 21.0208 4.19583 21.4125 4.5875C21.8042 4.97917 22 5.45 22 6V18C22 18.55 21.8042 19.0208 21.4125 19.4125C21.0208 19.8042 20.55 20 20 20H4C3.45 20 2.97917 19.8042 2.5875 19.4125C2.19583 19.0208 2 18.55 2 18V6C2 5.45 2.19583 4.97917 2.5875 4.5875C2.97917 4.19583 3.45 4 4 4ZM4 10V18H20V10H4Z" />
  </symbol>
  <symbol id="file-word" viewBox="0 0 17 21">
    <title>Word file</title>
    <path d="M15.01 0.117188H6.41625C6.15312 0.117188 5.90375 0.220937 5.71563 0.409063L0.291875 5.83281C0.10875 6.02094 0.005 6.27031 0 6.53344V19.1303C0 19.3934 0.10375 19.6522 0.291875 19.8359C0.48 20.0241 0.73375 20.1278 0.9975 20.1278H15.0056C15.2688 20.1278 15.5275 20.0241 15.7113 19.8359C15.8994 19.6478 16.0031 19.3941 16.0031 19.1303V1.11906C16.0031 0.855938 15.8994 0.597188 15.7113 0.413438C15.5325 0.220313 15.2788 0.117188 15.0106 0.117188H15.01ZM14.0081 18.1278H2.00375V7.12094H6.00688C6.27 7.12094 6.52875 7.01719 6.7125 6.82906C6.90062 6.64094 7.00437 6.38719 7.00437 6.12344V2.11594H14.0081V18.1278ZM12.5262 11.6459H3.49C3.38625 11.6459 3.30188 11.5616 3.30188 11.4578V10.4559C3.30188 10.3522 3.38625 10.2678 3.49 10.2678H12.5262C12.63 10.2678 12.7144 10.3522 12.7144 10.4559V11.4578C12.7144 11.5616 12.63 11.6459 12.5262 11.6459ZM12.5262 13.9841H3.49C3.38625 13.9841 3.30188 13.8997 3.30188 13.7959V12.7941C3.30188 12.6903 3.38625 12.6059 3.49 12.6059H12.5262C12.63 12.6059 12.7144 12.6903 12.7144 12.7941V13.7959C12.7144 13.8997 12.63 13.9841 12.5262 13.9841ZM12.5262 16.1947H3.49C3.38625 16.1947 3.30188 16.1103 3.30188 16.0066V15.0047C3.30188 14.9009 3.38625 14.8166 3.49 14.8166H12.5262C12.63 14.8166 12.7144 14.9009 12.7144 15.0047V16.0066C12.7144 16.1103 12.63 16.1947 12.5262 16.1947Z" />
  </symbol>
  <symbol id="file-zip" viewBox="0 0 24 24">
    <title>Zip file</title>
    <path d="M16 12V10H18V12H16ZM16 14H14V12H16V14ZM16 16V14H18V16H16ZM11.175 8L9.175 6H4V18H14V16H16V18H20V8H16V10H14V8H11.175ZM4 20C3.45 20 2.97917 19.8042 2.5875 19.4125C2.19583 19.0208 2 18.55 2 18V6C2 5.45 2.19583 4.97917 2.5875 4.5875C2.97917 4.19583 3.45 4 4 4H10L12 6H20C20.55 6 21.0208 6.19583 21.4125 6.5875C21.8042 6.97917 22 7.45 22 8V18C22 18.55 21.8042 19.0208 21.4125 19.4125C21.0208 19.8042 20.55 20 20 20H4Z" />
  </symbol>
  <symbol id="filter" viewBox="0 0 24 24">
    <title>filter</title>
    <path d="M10 18H14V16H10V18ZM3 6V8H21V6H3ZM6 13H18V11H6V13Z"></path>
  </symbol>
  <symbol id="folder" viewBox="0 0 24 24">
    <title>Folder</title>
    <path d="M7 11.4h10V10H7v1.4Zm0 3.5h6.5v-1.3H7v1.3ZM4.7 19A1.7 1.7 0 0 1 3 17.2V5.8c0-.5.2-1 .5-1.3.3-.3.7-.5 1.2-.5h5.9L12 5.5h7.3c.4 0 .8.1 1.2.5.3.4.5.8.5 1.2v10c0 .5-.2 1-.5 1.3-.4.3-.8.5-1.2.5H4.7Zm0-13.2v11.4h14.6v-10h-8L9.8 5.8h-5Z"/>
  </symbol>
  <symbol id="hamburger" viewBox="0 0 24 24">
    <title>Hamburger</title>
    <path d="M3 4H21V6H3V4ZM3 11H21V13H3V11ZM3 18H21V20H3V18Z" />
  </symbol>
  <symbol id="hourglass" viewBox="0 0 24 24">
    <title>hourglass</title>
    <path d="M8 20H16V17C16 15.9 15.6083 14.9583 14.825 14.175C14.0417 13.3917 13.1 13 12 13C10.9 13 9.95833 13.3917 9.175 14.175C8.39167 14.9583 8 15.9 8 17V20ZM4 22V20H6V17C6 15.9833 6.2375 15.0292 6.7125 14.1375C7.1875 13.2458 7.85 12.5333 8.7 12C7.85 11.4667 7.1875 10.7542 6.7125 9.8625C6.2375 8.97083 6 8.01667 6 7V4H4V2H20V4H18V7C18 8.01667 17.7625 8.97083 17.2875 9.8625C16.8125 10.7542 16.15 11.4667 15.3 12C16.15 12.5333 16.8125 13.2458 17.2875 14.1375C17.7625 15.0292 18 15.9833 18 17V20H20V22H4Z" />
  </symbol>
  <symbol id="info" viewBox="0 0 24 24">
    <title>info</title>
    <path d="M11.325 17H12.825V11H11.325V17ZM11.9995 9.15C12.2332 9.15 12.4292 9.07333 12.5875 8.92C12.7458 8.76667 12.825 8.57667 12.825 8.35C12.825 8.10917 12.746 7.90729 12.588 7.74438C12.4299 7.58146 12.2341 7.5 12.0005 7.5C11.7668 7.5 11.5708 7.58146 11.4125 7.74438C11.2542 7.90729 11.175 8.10917 11.175 8.35C11.175 8.57667 11.254 8.76667 11.4121 8.92C11.5701 9.07333 11.7659 9.15 11.9995 9.15ZM12.0066 22C10.6278 22 9.33192 21.7375 8.11915 21.2125C6.90638 20.6875 5.84583 19.9708 4.9375 19.0625C4.02917 18.1542 3.3125 17.093 2.7875 15.879C2.2625 14.665 2 13.3678 2 11.9875C2 10.6072 2.2625 9.31003 2.7875 8.09602C3.3125 6.88201 4.02917 5.825 4.9375 4.925C5.84583 4.025 6.90701 3.3125 8.12103 2.7875C9.33503 2.2625 10.6322 2 12.0125 2C13.3928 2 14.69 2.2625 15.904 2.7875C17.118 3.3125 18.175 4.025 19.075 4.925C19.975 5.825 20.6875 6.88333 21.2125 8.1C21.7375 9.31667 22 10.6145 22 11.9934C22 13.3723 21.7375 14.6681 21.2125 15.8809C20.6875 17.0936 19.975 18.1526 19.075 19.0579C18.175 19.9632 17.1167 20.6798 15.9 21.2079C14.6833 21.736 13.3855 22 12.0066 22ZM12.0125 20.5C14.3708 20.5 16.375 19.6708 18.025 18.0125C19.675 16.3542 20.5 14.3458 20.5 11.9875C20.5 9.62917 19.6766 7.625 18.0297 5.975C16.3828 4.325 14.3729 3.5 12 3.5C9.65 3.5 7.64583 4.32343 5.9875 5.9703C4.32917 7.61718 3.5 9.62708 3.5 12C3.5 14.35 4.32917 16.3542 5.9875 18.0125C7.64583 19.6708 9.65417 20.5 12.0125 20.5Z" />
  </symbol>
  <symbol id="info-rounded-filled" viewBox="0 0 32 32">
    <title>info</title>
    <path d="M25 4H7V29H25V4Z" fill="white"/>
    <path d="M31.2 3.5C30.9 2.1 29.8 0.899999 28.5 0.799999C24.4 -7.7486e-07 17.4 0 16 0C14.6 0 7.6 -7.7486e-07 3.5 0.799999C2 0.899999 0.9 2 0.8 3.5C0 7.6 0 14.6 0 16C0 17.4 0 24.4 0.8 28.5C1.1 29.9 2.2 31.1 3.5 31.2C7.6 32 14.6 32 16 32C17.4 32 24.4 32 28.5 31.2C29.9 30.9 31.1 29.8 31.2 28.5C32 24.4 32 17.4 32 16C32 11.9 32 7.6 31.2 3.5ZM17.7 25.6H14.3V12L17.7 11.8V25.6ZM17.2 9.6C16.9 10.1 16.6 10.2 16 10.2C15.4 10.2 14.9 10 14.6 9.6C14.1 9.3 14 8.8 14 8.2C14 7.7 14.2 7.3 14.5 6.8C14.8 6.3 15.3 6.2 15.9 6.2C16.5 6.2 17 6.4 17.3 6.8C17.6 7.1 17.8 7.6 17.8 8.2C17.7 8.7 17.5 9.1 17.2 9.6Z" />
  </symbol>
  <symbol id="loader" viewBox="0 0 24 24">
    <title>loader</title>
    <path d="M12 3C16.9706 3 21 7.02944 21 12H19C19 8.13401 15.866 5 12 5V3Z" />
  </symbol>
  <symbol id="magnifier" viewBox="0 0 24 24">
    <title>magnifier</title>
    <path d="M18.031 16.6168L22.3137 20.8995L20.8995 22.3137L16.6168 18.031C15.0769 19.263 13.124 20 11 20C6.032 20 2 15.968 2 11C2 6.032 6.032 2 11 2C15.968 2 20 6.032 20 11C20 13.124 19.263 15.0769 18.031 16.6168ZM16.0247 15.8748C17.2475 14.6146 18 12.8956 18 11C18 7.1325 14.8675 4 11 4C7.1325 4 4 7.1325 4 11C4 14.8675 7.1325 18 11 18C12.8956 18 14.6146 17.2475 15.8748 16.0247L16.0247 15.8748Z" />
  </symbol>
  <symbol id="manage" viewBox="0 0 24 24">
    <title>manage</title>
    <path d="M11.66 18.3947L14.4125 15.6422C14.3082 15.2065 14.291 14.77 14.3442 14.3387H13.1645V12.082H15.4212V12.0857C15.4962 12.0017 15.566 11.9162 15.6485 11.8337C16.1577 11.3245 16.7172 10.966 17.3015 10.7485V2.67998C17.3015 2.26448 16.9647 1.92773 16.5492 1.92773H4.51397C4.09847 1.92773 3.76172 2.26448 3.76172 2.67998V20.3567H9.40322V16.972H11.66V18.3947ZM13.1637 4.56023H15.4205V6.81698H13.1637V4.56023ZM13.1637 8.32073H15.4205V10.5775H13.1637V8.32073ZM7.89872 14.3387H5.64197V12.082H7.89872V14.3387ZM7.89872 10.5775H5.64197V8.32073H7.89872V10.5775ZM7.89872 6.81698H5.64197V4.56023H7.89872V6.81698ZM9.40322 4.56023H11.66V6.81698H9.40322V4.56023ZM9.40322 8.32073H11.66V10.5775H9.40322V8.32073ZM9.40322 14.3387V12.082H11.66V14.3387H9.40322ZM22.121 14.7205C22.0812 14.548 21.8645 14.488 21.7355 14.6095C21.3537 14.968 20.981 15.304 20.7695 15.457C20.4432 15.6932 19.8815 16.1575 19.4787 15.754L18.2907 14.5667C17.888 14.1632 18.3207 13.558 18.557 13.2317C18.7167 13.012 19.0557 12.5987 19.4082 12.1787C19.5162 12.0497 19.4562 11.8495 19.295 11.8037C18.305 11.527 17.3397 11.8427 16.499 12.6842C15.176 14.0072 15.146 15.6415 16.697 17.1925C16.8357 17.3312 16.9745 17.452 17.114 17.566C17.0967 17.6192 16.994 17.623 16.928 17.6012C16.778 17.5532 16.1307 17.278 15.3537 16.4012L10.943 20.812C10.3745 21.3805 10.706 22.051 11.2722 22.6165C11.8385 23.1827 12.5097 23.515 13.0775 22.9465L17.933 18.091C19.088 18.6347 20.2317 18.3655 21.206 17.3905C22.0115 16.585 22.3377 15.6655 22.121 14.7197V14.7205ZM12.356 22.1305C12.026 22.1305 11.7582 21.8627 11.7582 21.5327C11.7582 21.2027 12.026 20.935 12.356 20.935C12.686 20.935 12.9537 21.2027 12.9537 21.5327C12.9537 21.8627 12.686 22.1305 12.356 22.1305Z" />
  </symbol>
  <symbol id="plus" viewBox="0 0 24 24">
    <path d="M12 4C12.5523 4 13 4.44772 13 5V19C13 19.5523 12.5523 20 12 20C11.4477 20 11 19.5523 11 19V5C11 4.44772 11.4477 4 12 4Z" />
    <path d="M4 12C4 11.4477 4.44772 11 5 11H19C19.5523 11 20 11.4477 20 12C20 12.5523 19.5523 13 19 13H5C4.44772 13 4 12.5523 4 12Z" />
  </symbol>
  <symbol id="sort" viewBox="0 0 24 24">
    <title>sort</title>
    <path d="M18.8225 10.4112H6L12.4113 4C14.5481 6.13687 16.6856 8.27437 18.8225 10.4112ZM6.03563 12.875H18.8581L12.4469 19.2863C10.31 17.1494 8.1725 15.0119 6.03563 12.875Z" />
  </symbol>
  <symbol id="sort-down" viewBox="0 0 24 24">
    <title>sort down</title>
    <path d="M12 16L6 10H18L12 16Z" />
  </symbol>
  <symbol id="sort-up" viewBox="0 0 24 24">
    <title>sort up</title>
    <path d="M12 8L18 14H6L12 8Z" />
  </symbol>
  <symbol id="to-top" viewBox="0 0 23 25">
    <title>to top</title>
    <path d="M3.68555 0.347656H20.4593V3.80816H3.68555C3.68555 2.68016 3.68555 1.47641 3.68555 0.347656ZM4.21205 18.3252C4.4378 18.4759 4.73855 18.4759 5.0393 18.5509C5.26505 18.5509 5.4908 18.5509 5.71655 18.4759L6.0173 18.4009L9.7028 15.9184V23.8167C9.7028 23.9674 9.7028 24.1174 9.85355 24.2682C9.92855 24.4189 10.1543 24.4189 10.3051 24.4189H13.9156C14.0663 24.4189 14.2163 24.4189 14.3671 24.2682C14.5178 24.1932 14.5178 23.9674 14.5178 23.8167V15.9934L18.1283 18.4759L18.4291 18.5509C18.6548 18.5509 18.8806 18.6259 19.1063 18.6259C19.4071 18.6259 19.7078 18.5509 19.9335 18.4752C20.2343 18.4002 20.4601 18.1744 20.6108 17.9487C20.9116 17.5722 20.9873 17.1964 20.9873 16.7449C20.9873 16.2934 20.8366 15.9177 20.6108 15.5412C20.6108 15.5412 20.3101 15.1647 19.6328 14.4132C16.9246 10.9527 15.0443 8.69666 13.8406 7.49291C13.3891 6.89141 12.7876 6.51491 12.0353 6.28916C11.2831 6.51491 10.6816 6.89066 10.2301 7.49291C9.17705 8.62091 7.4468 10.6519 4.9643 13.5859C3.9863 14.7139 3.5348 15.3162 3.4598 15.3162C3.15905 15.6927 3.0083 16.0684 3.0083 16.5199C3.0083 16.9714 3.15905 17.4229 3.3848 17.7237C3.68555 18.1002 3.9113 18.2502 4.21205 18.3252Z" />
  </symbol>
  <symbol id="trash-bin" viewBox="0 0 18 20">
    <title>trash bin</title>
    <path fill-rule="evenodd" clip-rule="evenodd" d="M0 5C0 4.44772 0.447715 4 1 4H17C17.5523 4 18 4.44772 18 5C18 5.55228 17.5523 6 17 6H1C0.447715 6 0 5.55228 0 5Z" />
    <path fill-rule="evenodd" clip-rule="evenodd" d="M7 8C7.55228 8 8 8.44771 8 9V15C8 15.5523 7.55228 16 7 16C6.44772 16 6 15.5523 6 15V9C6 8.44771 6.44772 8 7 8Z" />
    <path fill-rule="evenodd" clip-rule="evenodd" d="M11 8C11.5523 8 12 8.44771 12 9V15C12 15.5523 11.5523 16 11 16C10.4477 16 10 15.5523 10 15V9C10 8.44771 10.4477 8 11 8Z" />
    <path fill-rule="evenodd" clip-rule="evenodd" d="M1.91695 4.00345C2.46733 3.95759 2.95068 4.36658 2.99655 4.91695L3.99655 16.917C3.99885 16.9446 4 16.9723 4 17C4 17.5523 4.44772 18 5 18H13C13.5523 18 14 17.5523 14 17C14 16.9723 14.0012 16.9446 14.0035 16.917L15.0035 4.91695C15.0493 4.36658 15.5327 3.95759 16.083 4.00345C16.6334 4.04932 17.0424 4.53267 16.9965 5.08305L15.9997 17.0457C15.9752 18.6815 14.6416 20 13 20H5C3.3584 20 2.02476 18.6815 2.00034 17.0457L1.00345 5.08305C0.957589 4.53267 1.36658 4.04932 1.91695 4.00345Z" />
    <path fill-rule="evenodd" clip-rule="evenodd" d="M5 2C5 0.89543 5.89543 0 7 0H11C12.1046 0 13 0.89543 13 2V5C13 5.55228 12.5523 6 12 6C11.4477 6 11 5.55228 11 5V2H7V5C7 5.55228 6.55228 6 6 6C5.44772 6 5 5.55228 5 5V2Z" />
  </symbol>
</svg>
