<svg xmlns="http://www.w3.org/2000/svg" width="24" height="24" viewBox="0 0 24 24" fill="none">
    <path d="M12.0005 9.31767L6.44363 4.38393C6.15629 4.12837 5.82095 4.00059 5.43761 4.00059C5.05427 4.00059 4.71364 4.13896 4.41571 4.41571C4.14956 4.70305 4.01118 5.03838 4.00059 5.42172C3.99016 5.80506 4.11778 6.1457 4.38393 6.44363L9.31767 12.0005L4.38393 17.5575C4.12837 17.8448 4.00059 18.1801 4.00059 18.5635C4.00059 18.9468 4.13896 19.2822 4.41571 19.5695C4.70305 19.8462 5.04368 19.9846 5.43761 19.9846C5.83138 19.9846 6.17201 19.862 6.45952 19.6172L12 14.6834L17.557 19.6172C17.8443 19.8727 18.1849 19.9952 18.5789 19.9846C18.9728 19.974 19.3081 19.8356 19.5849 19.5695C19.851 19.2822 19.9841 18.9468 19.9841 18.5635C19.9841 18.1801 19.851 17.845 19.5849 17.5575L14.6829 12.0005L19.6167 6.44363C19.8722 6.15629 20 5.81565 20 5.42172C20 5.02779 19.8563 4.69245 19.569 4.41571C19.2922 4.14956 18.9622 4.01118 18.5789 4.00059C18.1955 3.99016 17.8549 4.11778 17.557 4.38393C15.7048 6.02851 13.8527 7.67309 12 9.31767H12.0005Z" fill="#D52B1E"/>
</svg>
