
<svg xmlns="http://www.w3.org/2000/svg" xmlns:xlink="http://www.w3.org/1999/xlink">
  <symbol id="folder" viewBox="0 0 24 24">
    <title>Folder</title>
    <path d="M7 11.4h10V10H7v1.4Zm0 3.5h6.5v-1.3H7v1.3ZM4.7 19A1.7 1.7 0 0 1 3 17.2V5.8c0-.5.2-1 .5-1.3.3-.3.7-.5 1.2-.5h5.9L12 5.5h7.3c.4 0 .8.1 1.2.5.3.4.5.8.5 1.2v10c0 .5-.2 1-.5 1.3-.4.3-.8.5-1.2.5H4.7Zm0-13.2v11.4h14.6v-10h-8L9.8 5.8h-5Z"/>
  </symbol>
  <symbol id="document" viewBox="0 0 17 21">
    <title>Document</title>
      <path d="M15.01 0.117188H6.41625C6.15312 0.117188 5.90375 0.220937 5.71563 0.409063L0.291875 5.83281C0.10875 6.02094 0.005 6.27031 0 6.53344V19.1303C0 19.3934 0.10375 19.6522 0.291875 19.8359C0.48 20.0241 0.73375 20.1278 0.9975 20.1278H15.0056C15.2688 20.1278 15.5275 20.0241 15.7113 19.8359C15.8994 19.6478 16.0031 19.3941 16.0031 19.1303V1.11906C16.0031 0.855938 15.8994 0.597188 15.7113 0.413438C15.5325 0.220313 15.2788 0.117188 15.0106 0.117188H15.01ZM14.0081 18.1278H2.00375V7.12094H6.00688C6.27 7.12094 6.52875 7.01719 6.7125 6.82906C6.90062 6.64094 7.00437 6.38719 7.00437 6.12344V2.11594H14.0081V18.1278ZM12.5262 11.6459H3.49C3.38625 11.6459 3.30188 11.5616 3.30188 11.4578V10.4559C3.30188 10.3522 3.38625 10.2678 3.49 10.2678H12.5262C12.63 10.2678 12.7144 10.3522 12.7144 10.4559V11.4578C12.7144 11.5616 12.63 11.6459 12.5262 11.6459ZM12.5262 13.9841H3.49C3.38625 13.9841 3.30188 13.8997 3.30188 13.7959V12.7941C3.30188 12.6903 3.38625 12.6059 3.49 12.6059H12.5262C12.63 12.6059 12.7144 12.6903 12.7144 12.7941V13.7959C12.7144 13.8997 12.63 13.9841 12.5262 13.9841ZM12.5262 16.1947H3.49C3.38625 16.1947 3.30188 16.1103 3.30188 16.0066V15.0047C3.30188 14.9009 3.38625 14.8166 3.49 14.8166H12.5262C12.63 14.8166 12.7144 14.9009 12.7144 15.0047V16.0066C12.7144 16.1103 12.63 16.1947 12.5262 16.1947Z" />
  </symbol>
  <symbol id="document-csv" viewBox="0 0 24 24">
    <title>CSV document</title>
    <path d="M19 2.1h-8.6a1 1 0 0 0-.7.3L4.3 7.8a1 1 0 0 0-.3.7v12.6a1 1 0 0 0 1 1h14a1 1 0 0 0 1-1v-18a1 1 0 0 0-.3-.7 1 1 0 0 0-.7-.3zm-1 18H6v-11h4a1 1 0 0 0 1-1v-4h7v16zm-8.5-2.3c-.3 0-.6-.1-.8-.3-.2-.3-.3-.6-.3-1s0-.8.3-1c.2-.2.5-.3.8-.3a7.8 7.8 0 0 1 .7 0v-.6a2.9 2.9 0 0 0-.7 0 2 2 0 0 0-1.3.4c-.4.4-.6.9-.6 1.6 0 .6.2 1 .5 1.3.4.3.8.5 1.3.5a3.6 3.6 0 0 0 .9-.1v-.6h-.8zm2.9-1.6-.5-.1a.9.9 0 0 1-.4-.2v-.3l.1-.3.6-.1h.8v-.6h-.8c-.5 0-.8 0-1.1.3a1 1 0 0 0-.4.8c0 .2 0 .4.2.6 0 .2.3.3.5.3l.5.2.4.2.1.3c0 .1 0 .2-.2.3l-.6.2a5 5 0 0 1-1-.1v.6a4.6 4.6 0 0 0 1 0c.5 0 .9 0 1.1-.2s.5-.6.5-1l-.2-.5c-.1-.2-.4-.3-.6-.4zm2.8 1.5-.9-3.1h-.8l1 3.8h1.2l1.1-3.8H16l-.8 3z" />
  </symbol>
  <symbol id="document-pdf" viewBox="0 0 24 24">
    <title>PDF document</title>
    <path d="M8.6 17v1.3h-.8v-3.8h1.3c.4 0 .7.1 1 .4.2.2.3.5.3.8 0 .4-.2.7-.4 1-.3.2-.6.3-1 .3h-.4zm0-1.9v1.3a1.5 1.5 0 0 0 .3 0l.5-.1.2-.5c0-.2 0-.4-.2-.5 0-.1-.2-.2-.5-.2h-.3zm3.5 3.2H11v-3.8h1c.7 0 1.2.2 1.6.5.3.3.5.7.5 1.3 0 .7-.2 1.2-.6 1.5s-.8.5-1.4.5zm-.4-3.2v2.6h.4c.4 0 .6-.1.9-.3.2-.2.3-.6.3-1s-.1-.7-.3-1c-.3-.2-.6-.3-1-.3h-.3zm3.1 3.2v-3.8h2v.6h-1.2v1h1.2v.6h-1.2v1.6h-.8zM19 2h-8.6a1 1 0 0 0-.7.3L4.3 7.8a1 1 0 0 0-.3.7v12.6a1 1 0 0 0 1 1h14a1 1 0 0 0 1-1v-18a1 1 0 0 0-.3-.7 1 1 0 0 0-.7-.3zm-1 18H6v-11h4a1 1 0 0 0 1-1v-4h7v16z" />
  </symbol>
  <symbol id="info" viewBox="0 0 24 24">
    <title>info</title>
    <path d="M11.325 17H12.825V11H11.325V17ZM11.9995 9.15C12.2332 9.15 12.4292 9.07333 12.5875 8.92C12.7458 8.76667 12.825 8.57667 12.825 8.35C12.825 8.10917 12.746 7.90729 12.588 7.74438C12.4299 7.58146 12.2341 7.5 12.0005 7.5C11.7668 7.5 11.5708 7.58146 11.4125 7.74438C11.2542 7.90729 11.175 8.10917 11.175 8.35C11.175 8.57667 11.254 8.76667 11.4121 8.92C11.5701 9.07333 11.7659 9.15 11.9995 9.15ZM12.0066 22C10.6278 22 9.33192 21.7375 8.11915 21.2125C6.90638 20.6875 5.84583 19.9708 4.9375 19.0625C4.02917 18.1542 3.3125 17.093 2.7875 15.879C2.2625 14.665 2 13.3678 2 11.9875C2 10.6072 2.2625 9.31003 2.7875 8.09602C3.3125 6.88201 4.02917 5.825 4.9375 4.925C5.84583 4.025 6.90701 3.3125 8.12103 2.7875C9.33503 2.2625 10.6322 2 12.0125 2C13.3928 2 14.69 2.2625 15.904 2.7875C17.118 3.3125 18.175 4.025 19.075 4.925C19.975 5.825 20.6875 6.88333 21.2125 8.1C21.7375 9.31667 22 10.6145 22 11.9934C22 13.3723 21.7375 14.6681 21.2125 15.8809C20.6875 17.0936 19.975 18.1526 19.075 19.0579C18.175 19.9632 17.1167 20.6798 15.9 21.2079C14.6833 21.736 13.3855 22 12.0066 22ZM12.0125 20.5C14.3708 20.5 16.375 19.6708 18.025 18.0125C19.675 16.3542 20.5 14.3458 20.5 11.9875C20.5 9.62917 19.6766 7.625 18.0297 5.975C16.3828 4.325 14.3729 3.5 12 3.5C9.65 3.5 7.64583 4.32343 5.9875 5.9703C4.32917 7.61718 3.5 9.62708 3.5 12C3.5 14.35 4.32917 16.3542 5.9875 18.0125C7.64583 19.6708 9.65417 20.5 12.0125 20.5Z" />
  </symbol>
  <symbol id="check" viewBox="0 0 24 24">
    <title>check</title>
    <path d="M9.05875 19.8693L2.26562 13.0562L4.41625 10.9056L9.01875 15.5081L19.6706 4.83618L21.8613 6.98681C17.5938 11.2812 13.3263 15.5756 9.05875 19.8693Z" />
  </symbol>
  <symbol id="warning" viewBox="0 0 512 512">
    <title>warning</title>
    <path d="M449.07,399.08,278.64,82.58c-12.08-22.44-44.26-22.44-56.35,0L51.87,399.08A32,32,0,0,0,80,446.25H420.89A32,32,0,0,0,449.07,399.08Zm-198.6-1.83a20,20,0,1,1,20-20A20,20,0,0,1,250.47,397.25ZM272.19,196.1l-5.74,122a16,16,0,0,1-32,0l-5.74-121.95v0a21.73,21.73,0,0,1,21.5-22.69h.21a21.74,21.74,0,0,1,21.73,22.7Z" />
  </symbol>
  <symbol id="sort" viewBox="0 0 24 24">
    <title>sort</title>
    <path d="M18.8225 10.4112H6L12.4113 4C14.5481 6.13687 16.6856 8.27437 18.8225 10.4112ZM6.03563 12.875H18.8581L12.4469 19.2863C10.31 17.1494 8.1725 15.0119 6.03563 12.875Z" />
  </symbol>
  <symbol id="chevron-right" viewBox="0 0 24 24">
    <title>chevron-right</title>
    <path d="M8.00001 19.7602L14.19 12.5087L8.04801 5.22523L8.91601 4.46973L15.7975 12.5087L8.93201 20.5477C8.62101 20.2852 8.31051 20.0227 7.99951 19.7597L8.00001 19.7602Z" />
  </symbol>
  <symbol id="close" viewBox="0 0 24 24">
    <title>close</title>
    <path d="M12.0005 9.31767L6.44363 4.38393C6.15629 4.12837 5.82095 4.00059 5.43761 4.00059C5.05427 4.00059 4.71364 4.13896 4.41571 4.41571C4.14956 4.70305 4.01118 5.03838 4.00059 5.42172C3.99016 5.80506 4.11778 6.1457 4.38393 6.44363L9.31767 12.0005L4.38393 17.5575C4.12837 17.8448 4.00059 18.1801 4.00059 18.5635C4.00059 18.9468 4.13896 19.2822 4.41571 19.5695C4.70305 19.8462 5.04368 19.9846 5.43761 19.9846C5.83138 19.9846 6.17201 19.862 6.45952 19.6172L12 14.6834L17.557 19.6172C17.8443 19.8727 18.1849 19.9952 18.5789 19.9846C18.9728 19.974 19.3081 19.8356 19.5849 19.5695C19.851 19.2822 19.9841 18.9468 19.9841 18.5635C19.9841 18.1801 19.851 17.845 19.5849 17.5575L14.6829 12.0005L19.6167 6.44363C19.8722 6.15629 20 5.81565 20 5.42172C20 5.02779 19.8563 4.69245 19.569 4.41571C19.2922 4.14956 18.9622 4.01118 18.5789 4.00059C18.1955 3.99016 17.8549 4.11778 17.557 4.38393C15.7048 6.02851 13.8527 7.67309 12 9.31767H12.0005Z" />
  </symbol>
  <symbol id="filter" viewBox="0 0 24 24">
    <title>filter</title>
    <path d="M10 18H14V16H10V18ZM3 6V8H21V6H3ZM6 13H18V11H6V13Z"></path>
  </symbol>
  <symbol id="search" viewBox="0 0 24 24">
    <title>search</title>
    <path d="M18.031 16.6168L22.3137 20.8995L20.8995 22.3137L16.6168 18.031C15.0769 19.263 13.124 20 11 20C6.032 20 2 15.968 2 11C2 6.032 6.032 2 11 2C15.968 2 20 6.032 20 11C20 13.124 19.263 15.0769 18.031 16.6168ZM16.0247 15.8748C17.2475 14.6146 18 12.8956 18 11C18 7.1325 14.8675 4 11 4C7.1325 4 4 7.1325 4 11C4 14.8675 7.1325 18 11 18C12.8956 18 14.6146 17.2475 15.8748 16.0247L16.0247 15.8748Z" />
  </symbol>
  <symbol id="step" viewBox="0 0 32 32">
    <title>step</title>
      <circle cx="16" cy="16" r="5" />
  </symbol>
  <symbol id="step-done" viewBox="0 0 32 32">
    <title>step-done</title>
      <path fill-rule="evenodd" clip-rule="evenodd" d="M22.7951 9.85322L13.2484 19.0666L10.7151 16.3599C10.2484 15.9199 9.51509 15.8932 8.98176 16.2666C8.46176 16.6532 8.31509 17.3332 8.63509 17.8799L11.6351 22.7599C11.9284 23.2132 12.4351 23.4932 13.0084 23.4932C13.5551 23.4932 14.0751 23.2132 14.3684 22.7599C14.8484 22.1332 24.0084 11.2132 24.0084 11.2132C25.2084 9.98655 23.7551 8.90655 22.7951 9.83989V9.85322Z" />
  </symbol>
  <symbol id="trash" viewBox="0 0 15 19">
    <title>trash</title>
      <path d="M1.17548 18.3457C1.3566 18.5145 1.56754 18.605 1.80829 18.6168H12.6612C12.9023 18.6168 13.1132 18.5265 13.294 18.3457C13.4751 18.1646 13.5651 17.9537 13.5651 17.7129V5.95553H0.903226V17.7129C0.903226 17.966 0.993601 18.177 1.17435 18.3457H1.17548ZM11.7572 7.76397V15.9033L9.94823 16.8078V7.76397C10.5512 7.76397 11.1542 7.76397 11.7572 7.76397ZM8.13923 7.76397V15.9033L6.33023 16.8078V7.76397C6.93323 7.76397 7.53623 7.76397 8.13923 7.76397ZM4.52179 7.76397V15.9033L2.71279 16.8078V7.76397C3.31579 7.76397 3.91879 7.76397 4.52179 7.76397ZM10.8527 2.33753V1.43303C10.8527 1.17991 10.7624 0.962781 10.5816 0.781656C10.4005 0.600531 10.1895 0.516156 9.94879 0.528531H4.52235C4.28123 0.528531 4.07029 0.612906 3.88954 0.781656C3.70841 0.950406 3.61841 1.16753 3.61841 1.43303V2.33753H0.904914C0.651789 2.33753 0.440852 2.42191 0.272102 2.59066C0.103352 2.75941 0.0127891 2.97653 0.000976562 3.24203V5.05103H14.4713V3.24203C14.4713 2.98891 14.3809 2.77178 14.2002 2.59066C14.019 2.40953 13.8081 2.32516 13.5674 2.33753C12.6629 2.33753 11.7584 2.33753 10.8544 2.33753H10.8527Z" />
  </symbol>
  <symbol id="confirmation" viewBox="0 0 20 20">
    <title>confirmation</title>
      <path d="M2.68125 0.232302C0.24375 0.625999 0 1.55088 0 9.98726C0 18.5924 0.21875 19.3235 2.925 19.761C4.825 20.0797 15.1687 20.0797 17.05 19.761C19.8562 19.2985 19.975 18.8298 20 9.98726C20 1.13843 19.8562 0.675993 17.05 0.213554C15.3187 -0.0864048 4.4125 -0.061409 2.68125 0.232302ZM14.4625 5.38787C14.6312 5.5566 14.7563 5.85031 14.7563 6.05028C14.7563 6.56271 9.85625 14.6554 9.4625 14.7991C8.925 14.9928 8.4625 14.4304 6.80625 11.6245C5.175 8.83741 5.075 8.5437 5.5375 8.08126C6 7.61882 6.29375 7.71256 7.73125 9.01239L9.1 10.2122L10.8562 8.20625C12.8062 6.00654 13.7125 5.10041 14 5.10041C14.1 5.09416 14.2937 5.21914 14.4625 5.38787Z" />
  </symbol>
</svg>
