<svg width="24" height="24" viewBox="0 0 24 24" fill="none" xmlns="http://www.w3.org/2000/svg">
<path d="M2.94438 5.76312C2.67646 5.76312 2.45542 5.8502 2.28125 6.02437C2.10687 6.19874 2.01312 6.42624 2 6.70749V18.6256C2 18.8935 2.09375 19.1146 2.28125 19.2887C2.46875 19.4631 2.69 19.5569 2.94438 19.57H21.1531C21.421 19.57 21.6488 19.4762 21.8363 19.2887C22.0238 19.1012 22.1112 18.88 22.0975 18.6256V6.70749C22.0975 6.43958 22.0104 6.21187 21.8363 6.02437C21.6619 5.83687 21.4344 5.74937 21.1531 5.76312C15.0837 5.76312 9.01375 5.76312 2.94438 5.76312ZM12.0487 12.8781L4.13 7.65249H19.9875C17.3413 9.39437 14.695 11.1362 12.0487 12.8781ZM15.345 13.9831C15.2912 14.0369 15.2781 14.0769 15.305 14.1037L18.0788 17.6812H6.08L8.81313 14.1644C8.88 14.0837 8.88 14.0306 8.81313 14.0037L3.88937 17.6819V9.38124L11.6269 14.5062C11.761 14.6 11.9083 14.6469 12.0688 14.6469C12.2294 14.6469 12.3638 14.6 12.4706 14.5062L20.2081 9.38124V17.6819C18.5869 16.4494 16.9656 15.2162 15.3444 13.9837L15.345 13.9831Z" fill="#696969"/>
</svg>
