<svg xmlns="http://www.w3.org/2000/svg" width="24" height="25" viewBox="0 0 24 25" fill="none">
    <path d="M3.68555 0.347656H20.4593V3.80816H3.68555C3.68555 2.68016 3.68555 1.47641 3.68555 0.347656ZM4.21205 18.3252C4.4378 18.4759 4.73855 18.4759 5.0393 18.5509C5.26505 18.5509 5.4908 18.5509 5.71655 18.4759L6.0173 18.4009L9.7028 15.9184V23.8167C9.7028 23.9674 9.7028 24.1174 9.85355 24.2682C9.92855 24.4189 10.1543 24.4189 10.3051 24.4189H13.9156C14.0663 24.4189 14.2163 24.4189 14.3671 24.2682C14.5178 24.1932 14.5178 23.9674 14.5178 23.8167V15.9934L18.1283 18.4759L18.4291 18.5509C18.6548 18.5509 18.8806 18.6259 19.1063 18.6259C19.4071 18.6259 19.7078 18.5509 19.9335 18.4752C20.2343 18.4002 20.4601 18.1744 20.6108 17.9487C20.9116 17.5722 20.9873 17.1964 20.9873 16.7449C20.9873 16.2934 20.8366 15.9177 20.6108 15.5412C20.6108 15.5412 20.3101 15.1647 19.6328 14.4132C16.9246 10.9527 15.0443 8.69666 13.8406 7.49291C13.3891 6.89141 12.7876 6.51491 12.0353 6.28916C11.2831 6.51491 10.6816 6.89066 10.2301 7.49291C9.17705 8.62091 7.4468 10.6519 4.9643 13.5859C3.9863 14.7139 3.5348 15.3162 3.4598 15.3162C3.15905 15.6927 3.0083 16.0684 3.0083 16.5199C3.0083 16.9714 3.15905 17.4229 3.3848 17.7237C3.68555 18.1002 3.9113 18.2502 4.21205 18.3252Z" fill="#696969"/>
</svg>
