<svg xmlns="http://www.w3.org/2000/svg" viewBox="0 0 562.17 116.88">
  <defs>
    <style>
      .cls-1{fill:#000}.cls-1,.cls-2,.cls-3{stroke-width:0}.cls-2{fill:#164194}.cls-3{fill:#c3bfb8}
    </style>
  </defs>
  <path d="M6.12 27.47c2.64-2.06 5.99-3.06 9.74-3.06 1.95 0 4.69.4 6.38.87.43.11.69.18 1.01.14.03.83.22 3.1.5 5.3-.18.25-.72.29-.97.07-.54-2.45-2.17-5.26-7.39-5.26-5.52 0-10.2 3.5-10.2 10.96S9.98 48.24 15.9 48.24c4.65 0 6.7-3.03 7.53-5.16.25-.18.79-.11.94.14-.25 1.88-1.19 4.25-1.73 4.94-.43.07-.87.22-1.26.36-.8.29-3.39.83-5.7.83-3.25 0-6.34-.65-8.98-2.41-2.88-1.98-5.12-5.26-5.12-9.91 0-4 1.8-7.42 4.54-9.55ZM68.13 20.54c0-4.06-.22-5.05-2.69-5.32l-1.75-.16c-.44-.33-.38-1.15.05-1.37 2.96-.27 6.69-.44 11.79-.44 3.45 0 6.75.27 9.21 1.54 2.36 1.15 4.17 3.35 4.17 6.86 0 3.95-2.3 5.98-5.59 7.51 0 .55.44.71 1.04.82 2.96.55 7.35 3.29 7.35 9.16 0 6.36-4.71 10.64-14.58 10.64-1.59 0-4.28-.16-6.58-.16s-4.28.11-6.3.16c-.33-.16-.44-1.04-.11-1.37l.98-.16c2.91-.44 3.02-1.1 3.02-6.86V20.55Zm4.49 7.29c0 1.54.06 1.65 2.85 1.54 5.59-.22 8.61-1.86 8.61-7.02s-4-7.41-8.17-7.41c-1.21 0-2.03.11-2.52.33-.55.16-.77.44-.77 1.43v11.14Zm0 12.73c0 1.97.11 4.77 1.15 5.98 1.04 1.26 2.69 1.54 4.33 1.54 4.88 0 8.61-2.19 8.61-7.68 0-4.34-2.19-9.38-10.91-9.38-2.96 0-3.18.33-3.18 1.43v8.12ZM178.81 41.83c0 2.92.44 4.67 1.75 5.18.22.22.22.66-.07.88-.88 0-2.19.29-3.57.65-3.86 1.02-9.11 1.9-13.04 1.9-8.67 0-16.61-2.41-22.22-8.09-4.37-4.37-6.7-10.13-6.7-16.54s2.04-12.46 6.56-17.27c4.88-5.1 12.09-8.53 23.1-8.53 4.15 0 8.02.8 9.25 1.1 1.38.29 3.64.8 4.52.66 0 2.4.44 6.19 1.1 10.56-.22.58-1.53.66-1.97.22-2.04-7.87-7.51-10.35-14.94-10.35-14.14 0-20.33 10.06-20.33 20.99 0 13.99 7.21 25 21.85 25 4.52 0 7.22-.95 8.02-2.19.37-.51.73-1.82.73-4.15v-2.91c0-6.12-.22-6.56-4.74-7.07l-3.21-.37c-.58-.29-.51-1.6 0-1.82 2.12.15 6.12.22 10.42.22 2.84 0 5.32-.07 7.73-.22.51.29.58 1.39.07 1.82l-1.16.15c-3.06.36-3.14 2.41-3.14 6.12v4.08Z" class="cls-2"/>
  <path d="M136.62 82.11c2.33-6.19 3.06-8.6 3.06-9.76 0-1.02-.66-1.46-2.04-1.68l-3.42-.51c-.44-.44-.29-1.53.36-1.82 3.42.14 5.75.22 8.01.22 1.61 0 3.35-.07 4.88-.22-1.02 3.5-.44 7.94.37 14.21l1.16 9.4c.8 6.27 1.24 10.13 1.6 13.34h.14c2.84-3.42 5.61-7.14 8.38-10.71l11.59-14.94c5.54-7.14 6.71-9.98 7.07-11.29 1.24.14 2.55.22 4.52.22 2.84 0 5.1-.07 7.36-.22.58.36.36 1.38 0 1.82l-1.68.29c-2.55.44-3.64.88-4.37 1.68-1.02 1.17-1.75 3.43-3.35 9.04l-6.34 22.59c-1.53 5.4-2.04 7.95-2.12 9.11-.07 1.17.88 1.82 2.92 1.97l2.48.22c.51.51.29 1.53-.29 1.82-2.7-.15-5.98-.22-9.33-.22-2.99 0-6.12.07-8.82.22-.51-.44-.51-1.53 0-1.82l1.89-.22c1.32-.15 3.21-.58 4.01-1.38.87-.88 2.33-4.67 3.72-9.26l5.83-19.09c1.17-3.72 2.18-7 2.77-9.18l-.22-.07c-1.02 1.32-2.91 3.79-6.77 8.89l-11.08 14.36c-4.16 5.39-8.45 10.93-11.66 16.4-.44.29-1.09.07-1.38-.29.07-2.62-.29-6.49-1.16-14.87-.95-9.4-2.12-20.84-2.48-24.49h-.15c-1.17 2.62-2.26 5.69-3.35 8.67l-5.46 14.72c-3.43 9.4-4.37 12.25-4.37 13.63 0 .8.37 1.39 2.19 1.68l3.13.51c.29.44.14 1.46-.22 1.82-2.04-.15-4.95-.22-8.38-.22-2.99 0-5.46.07-7.79.22-.44-.44-.44-1.6.07-1.82l1.97-.22c1.6-.15 3.21-.66 4.15-1.97 1.16-1.46 4.22-8.82 8.81-20.92l3.79-9.84ZM226.62 77.33c1.65-5.15 1.7-5.92-1.21-6.47l-1.1-.22c-.33-.44-.27-1.15.33-1.37 1.92.11 3.79.16 6.09.16h10.37c3.51 0 6.09 0 7.73-.16-.38.93-1.7 5.32-2.25 7.29-.22.44-1.21.38-1.37-.06.33-2.85.49-4.22-1.92-4.88-1.26-.33-2.96-.49-5.81-.49h-3.24c-1.43 0-1.64.22-2.14 1.86l-3.51 11.24c-.5 1.54-.55 1.59.99 1.59h2.74c5.21 0 6.31-.33 7.57-2.69l.88-1.65c.22-.38 1.26-.33 1.37.11-.38.93-1.21 3.29-1.87 5.32-.6 2.09-1.15 4.11-1.43 5.32-.33.44-1.15.38-1.37-.05v-1.54c0-2.85-1.43-2.91-5.65-2.91h-2.74c-1.54 0-1.65.06-2.14 1.59l-2.25 7.41c-.93 3.07-1.48 4.93-.93 6.03.39.77 1.43 1.15 6.09 1.15 6.04 0 8.23-.33 11.69-5.7.44-.28 1.04-.17 1.26.33-.49 1.59-2.36 5.76-3.79 7.24-3.62-.11-8.39-.17-12.56-.17h-6.47c-2.25 0-4.11.06-6.53.17-.44-.28-.44-1.05-.06-1.37l1.92-.16c2.63-.22 3.18-.93 4.93-6.53l6.37-20.41ZM287.7 74.7c.87-2.78.54-3.1-1.08-3.21l-1.19-.04c-.25-.18-.18-.68 0-.86 1.3-.18 3.39-.43 6.06-.43 1.91 0 4.11.14 5.84.87 1.77.76 3.06 2.13 3.06 4.54 0 3.64-3.64 5.34-5.62 5.48-.57.04-.33.29 0 .4 2.05.69 3.75 2.7 3.75 5.3 0 1.33-.4 3.17-1.95 4.69-1.51 1.51-4.18 2.74-8.65 2.74-1.94 0-3.28-.11-4.79-.11s-2.67.04-3.71.11c-.29-.18-.29-.69-.04-.9l.72-.11c1.73-.25 2.09-.61 3.24-4.29l4.36-14.16Zm-1.98 15.21c-.76 2.38.29 3.13 2.88 3.13 3.03 0 6.81-1.88 6.81-6.74 0-3.06-2.63-4.54-5.33-4.54-1.73 0-1.87.04-2.23 1.23l-2.13 6.92Zm3.17-10.28c-.25.87-.21 1.05 1.33 1.05 2.6 0 7.21-1.26 7.21-5.8 0-2.09-1.59-3.6-4.54-3.6-1.37 0-1.44-.04-1.77 1.15l-2.24 7.21Z" class="cls-3"/>
  <path d="M0 57.47h300.87v.75H0zM346.16 0h.75v116.87h-.75z" class="cls-1"/>
  <path d="M373.92 36.07c0 .17 0 .32-.02.44 0 .12-.03.22-.05.31-.02.09-.05.16-.08.22s-.09.13-.16.21c-.07.08-.22.18-.44.3-.21.12-.48.24-.79.35-.31.11-.67.21-1.07.28s-.83.11-1.3.11c-.91 0-1.73-.14-2.46-.42-.73-.28-1.35-.7-1.87-1.26-.51-.56-.91-1.25-1.18-2.09-.27-.83-.41-1.8-.41-2.91s.15-2.13.45-3 .72-1.61 1.26-2.2c.54-.59 1.19-1.05 1.94-1.35.76-.31 1.59-.46 2.5-.46a6.264 6.264 0 0 1 2.02.33c.29.1.55.21.79.34.23.13.39.24.49.33.09.09.16.17.19.23.04.06.06.14.08.24.02.1.04.21.05.34 0 .13.02.29.02.48 0 .21 0 .38-.02.52-.01.14-.04.26-.07.35s-.08.15-.12.19c-.05.04-.1.06-.16.06-.1 0-.23-.06-.39-.18a7.25 7.25 0 0 0-.61-.4c-.25-.15-.55-.28-.89-.4-.35-.12-.76-.18-1.24-.18-.53 0-1 .11-1.41.32-.41.21-.77.52-1.05.92-.29.4-.51.88-.66 1.45s-.23 1.21-.23 1.92c0 .78.08 1.45.24 2.03.16.57.39 1.04.69 1.41.3.37.66.64 1.08.83.42.18.89.27 1.42.27.48 0 .89-.06 1.24-.17.35-.11.65-.24.9-.37.25-.14.45-.26.62-.37.16-.11.29-.16.37-.16.07 0 .12.01.16.04.04.03.08.08.1.16.03.08.05.2.06.34.01.15.02.34.02.59ZM389.74 31.29c0 1.1-.14 2.09-.41 2.95-.27.87-.68 1.6-1.22 2.21-.54.6-1.21 1.07-2.01 1.38-.8.32-1.72.48-2.76.48s-1.93-.14-2.7-.4c-.77-.27-1.41-.68-1.92-1.24-.51-.55-.9-1.26-1.15-2.11-.26-.85-.38-1.87-.38-3.04 0-1.07.14-2.04.41-2.9.27-.86.68-1.59 1.22-2.19.54-.6 1.21-1.06 2-1.38.8-.32 1.72-.48 2.77-.48s1.89.13 2.66.4c.77.27 1.41.68 1.93 1.23.52.55.91 1.25 1.17 2.1.26.84.4 1.84.4 2.99Zm-2.83.14c0-.7-.05-1.33-.16-1.9-.11-.57-.3-1.06-.56-1.47a2.58 2.58 0 0 0-1.05-.94c-.44-.22-.98-.33-1.64-.33s-1.22.12-1.66.37c-.45.25-.8.58-1.08 1-.27.42-.47.9-.58 1.46-.11.56-.17 1.15-.17 1.77 0 .72.05 1.38.16 1.95.11.58.29 1.07.55 1.48.26.41.61.72 1.04.94.44.22.99.32 1.65.32s1.22-.12 1.66-.37c.44-.25.8-.58 1.08-1 .27-.42.47-.92.58-1.48.11-.56.17-1.16.17-1.8ZM401.39 36.95c0 .21 0 .38-.03.52-.02.14-.04.26-.08.35-.03.09-.08.16-.13.2a.28.28 0 0 1-.18.06h-6.08c-.23 0-.42-.07-.57-.2-.15-.13-.23-.35-.23-.65V25.18c0-.07.02-.13.07-.18.04-.05.12-.1.22-.13s.24-.06.42-.08c.17-.02.39-.03.65-.03s.49.01.66.03c.17.02.31.05.41.08.1.03.18.08.22.13.04.05.07.12.07.18v10.67h4.17c.07 0 .13.02.18.06.05.04.09.1.13.18.04.09.06.2.08.34.02.14.03.31.03.52ZM412.37 36.95c0 .21 0 .38-.03.52-.02.14-.04.26-.08.35-.04.09-.08.16-.13.2s-.11.06-.18.06h-6.08c-.23 0-.42-.07-.57-.2-.15-.13-.23-.35-.23-.65V25.18c0-.07.02-.13.07-.18.04-.05.12-.1.22-.13s.24-.06.41-.08.39-.03.65-.03.49.01.66.03.31.05.41.08c.1.03.18.08.22.13.04.05.07.12.07.18v10.67h4.17c.07 0 .13.02.18.06.05.04.09.1.13.18.03.09.06.2.08.34.02.14.03.31.03.52ZM423.93 37.02c0 .2 0 .36-.03.5-.02.13-.04.24-.08.32a.42.42 0 0 1-.13.18c-.05.04-.11.06-.17.06h-6.66c-.23 0-.42-.07-.57-.2-.15-.13-.23-.35-.23-.65V25.66c0-.3.08-.52.23-.65.15-.13.34-.2.57-.2h6.62c.06 0 .12.02.16.05.05.03.09.09.12.18.04.09.06.2.08.33.02.13.03.3.03.51 0 .19 0 .35-.03.49-.02.13-.04.24-.08.32-.03.08-.07.14-.12.18-.05.04-.1.06-.16.06h-4.74v3.24h4.01c.06 0 .12.02.17.06.05.04.09.1.13.17.03.08.06.18.08.32.02.13.03.3.03.49s0 .36-.03.49c-.02.13-.04.23-.08.31-.04.08-.08.13-.13.17-.05.03-.11.05-.17.05h-4.01v3.74h4.78c.06 0 .12.02.17.06.05.04.09.1.13.18.03.08.06.19.08.32.02.13.03.3.03.5ZM438.74 26.87c0 .2 0 .37-.03.51-.02.14-.04.26-.07.34a.37.37 0 0 1-.11.18c-.04.03-.1.05-.16.05-.09 0-.23-.06-.43-.18-.2-.12-.46-.26-.79-.4a8.8 8.8 0 0 0-1.17-.4c-.46-.12-.98-.18-1.58-.18-.64 0-1.22.11-1.74.33-.52.22-.96.54-1.33.94-.37.41-.65.9-.85 1.47-.2.57-.3 1.2-.3 1.89 0 .76.1 1.43.3 2 .2.58.48 1.06.85 1.45.36.39.8.68 1.31.88.51.2 1.07.3 1.69.3.3 0 .6-.03.89-.1.29-.07.57-.17.82-.31v-3.08h-2.51c-.12 0-.22-.08-.29-.23-.07-.15-.1-.42-.1-.78 0-.19 0-.35.03-.48.02-.13.04-.23.08-.31.03-.08.07-.14.12-.17.05-.04.1-.06.16-.06h4.48c.11 0 .21.02.29.06.08.04.16.09.23.17.06.08.12.17.15.27.04.11.05.23.05.36v5.28c0 .21-.04.38-.11.54-.07.15-.22.27-.44.36s-.5.18-.83.28c-.33.1-.67.18-1.02.25s-.71.12-1.07.15c-.36.03-.72.05-1.08.05-1.06 0-2.01-.15-2.85-.46-.84-.3-1.55-.75-2.13-1.32a5.67 5.67 0 0 1-1.33-2.11c-.31-.83-.46-1.77-.46-2.82s.16-2.06.49-2.93c.33-.86.79-1.6 1.39-2.21.6-.6 1.33-1.07 2.18-1.39.85-.32 1.8-.48 2.84-.48.57 0 1.1.04 1.57.12.47.08.88.17 1.24.29.35.11.64.23.88.36s.39.24.49.34c.09.1.16.23.2.41.04.17.06.43.06.77ZM451.45 37.02c0 .2 0 .36-.03.5-.02.13-.04.24-.08.32s-.08.14-.13.18c-.05.04-.11.06-.17.06h-6.66c-.23 0-.42-.07-.57-.2-.15-.13-.23-.35-.23-.65V25.66c0-.3.08-.52.23-.65.15-.13.34-.2.57-.2H451c.06 0 .12.02.16.05.05.03.09.09.12.18.04.09.06.2.08.33.02.13.03.3.03.51 0 .19 0 .35-.03.49-.02.13-.04.24-.08.32-.03.08-.07.14-.12.18-.05.04-.1.06-.16.06h-4.74v3.24h4.01c.06 0 .12.02.17.06.05.04.09.1.13.17.03.08.06.18.08.32.02.13.03.3.03.49s0 .36-.03.49c-.02.13-.04.23-.08.31-.04.08-.08.13-.13.17-.05.03-.11.05-.17.05h-4.01v3.74h4.78c.06 0 .12.02.17.06.05.04.09.1.13.18.03.08.06.19.08.32.02.13.03.3.03.5ZM471.6 25.92c0 .2 0 .37-.03.51-.02.14-.04.25-.08.34-.04.09-.08.15-.13.19-.05.04-.11.06-.17.06h-3.32v10.69c0 .07-.02.13-.07.18-.04.05-.12.1-.22.13s-.24.06-.42.08-.39.03-.65.03-.48-.01-.65-.03a2.87 2.87 0 0 1-.42-.08.458.458 0 0 1-.22-.13.312.312 0 0 1-.07-.18V27.02h-3.32c-.07 0-.13-.02-.17-.06a.39.39 0 0 1-.12-.19c-.03-.09-.06-.2-.08-.34-.02-.14-.03-.31-.03-.51s0-.38.03-.52c.02-.14.04-.26.08-.34.04-.09.08-.15.12-.18.05-.04.11-.06.17-.06h9.35c.06 0 .12.02.17.06s.09.1.13.18c.03.09.06.2.08.34.02.14.03.32.03.52ZM483.13 37.02c0 .2 0 .36-.03.5-.02.13-.04.24-.08.32a.42.42 0 0 1-.13.18c-.05.04-.11.06-.17.06h-6.67a.88.88 0 0 1-.57-.2c-.15-.13-.23-.35-.23-.65V25.66c0-.3.08-.52.23-.65.15-.13.34-.2.57-.2h6.62c.06 0 .12.02.16.05.05.03.09.09.12.18s.06.2.08.33c.02.13.03.3.03.51 0 .19 0 .35-.03.49-.02.13-.04.24-.08.32-.04.08-.08.14-.12.18-.05.04-.1.06-.16.06h-4.74v3.24h4.01c.06 0 .12.02.17.06.05.04.09.1.13.17.04.08.06.18.08.32.02.13.03.3.03.49s0 .36-.03.49c-.02.13-.04.23-.08.31-.03.08-.08.13-.13.17-.05.03-.11.05-.17.05h-4.01v3.74h4.78c.06 0 .12.02.17.06.05.04.09.1.13.18.03.08.06.19.08.32.02.13.03.3.03.5ZM497.46 37.73c0 .08-.01.14-.04.19-.03.05-.09.09-.2.13-.1.03-.25.06-.45.07-.2.01-.47.02-.81.02-.29 0-.52 0-.69-.02-.17-.01-.31-.04-.41-.08a.51.51 0 0 1-.21-.14.68.68 0 0 1-.1-.21l-1.19-2.96c-.14-.34-.28-.63-.42-.89a2.77 2.77 0 0 0-.46-.65c-.17-.17-.36-.31-.58-.39-.22-.09-.47-.13-.76-.13h-.84v5.06c0 .07-.02.13-.07.18-.04.05-.12.1-.22.13s-.24.06-.41.08c-.17.02-.39.03-.66.03s-.48-.01-.65-.03c-.17-.02-.31-.05-.41-.08a.514.514 0 0 1-.22-.13.3.3 0 0 1-.06-.18V25.68c0-.3.08-.52.23-.65.15-.13.34-.2.57-.2h3.44c.35 0 .64 0 .86.02.23.01.43.03.62.05.53.08 1.01.21 1.44.39.43.18.79.43 1.09.72.3.3.53.65.68 1.06.16.41.24.87.24 1.4 0 .44-.06.85-.17 1.22-.11.37-.28.69-.5.98-.22.29-.49.54-.81.75-.32.21-.69.38-1.1.51.2.1.38.21.56.35.17.14.34.3.49.5.15.2.3.42.44.67.14.25.27.53.4.85l1.12 2.61c.1.26.17.45.21.57.03.12.05.21.05.28Zm-3.48-9c0-.44-.1-.81-.3-1.11-.2-.3-.52-.51-.97-.64a4.56 4.56 0 0 0-.47-.08c-.17-.02-.41-.03-.72-.03h-1.21v3.76h1.37c.38 0 .72-.05 1-.14.29-.09.53-.22.72-.39.19-.17.33-.37.43-.6.1-.23.14-.49.14-.78ZM374.35 62.1c0 .47-.06.9-.19 1.28s-.31.72-.54 1.02c-.23.29-.5.55-.82.76-.32.21-.67.39-1.05.52s-.79.24-1.23.3c-.43.06-.92.1-1.45.1h-3.53c-.23 0-.42-.07-.57-.2-.15-.13-.23-.35-.23-.65V53.66c0-.3.08-.52.23-.65.15-.13.34-.2.57-.2h3.33c.81 0 1.5.07 2.07.2.56.14 1.04.34 1.42.62.39.28.68.63.89 1.05.21.42.31.92.31 1.5 0 .32-.04.62-.12.91s-.2.54-.36.77c-.16.23-.35.44-.58.62-.23.18-.49.32-.79.43.38.07.72.19 1.04.36a2.951 2.951 0 0 1 1.39 1.61c.14.36.21.77.21 1.22Zm-3.49-5.59c0-.27-.04-.51-.12-.72-.08-.21-.21-.39-.37-.53s-.37-.25-.62-.32c-.25-.08-.58-.11-1-.11h-1.36v3.45h1.51c.39 0 .7-.05.93-.14.23-.09.43-.22.58-.38.15-.16.27-.35.34-.56.08-.22.11-.44.11-.68Zm.69 5.68c0-.31-.05-.58-.15-.83-.1-.24-.25-.45-.45-.61-.2-.16-.45-.29-.76-.38-.31-.09-.71-.13-1.2-.13h-1.6v3.77h1.95c.38 0 .69-.04.95-.12.26-.08.48-.2.67-.35.19-.15.33-.35.44-.57.11-.23.16-.49.16-.79ZM386.48 65.02c0 .2 0 .36-.03.5-.02.13-.04.24-.08.32a.42.42 0 0 1-.13.18c-.05.04-.11.06-.17.06h-6.66c-.23 0-.42-.07-.57-.2-.15-.13-.23-.35-.23-.65V53.66c0-.3.08-.52.23-.65.15-.13.34-.2.57-.2h6.62c.06 0 .12.02.16.05.05.03.09.09.12.18.04.09.06.2.08.33.02.13.03.3.03.51 0 .19 0 .35-.03.49-.02.13-.04.24-.08.32-.03.08-.07.14-.12.18-.05.04-.1.06-.16.06h-4.74v3.24h4.01c.06 0 .12.02.17.06.05.04.09.1.13.17.03.08.06.18.08.32.02.13.03.3.03.49s0 .36-.03.49c-.02.13-.04.23-.08.31-.04.08-.08.13-.13.17-.05.03-.11.05-.17.05h-4.01v3.74h4.78c.06 0 .12.02.17.06.05.04.09.1.13.18.03.08.06.19.08.32.02.13.03.3.03.5ZM402.53 59.29c0 1.1-.14 2.09-.41 2.95-.27.87-.68 1.61-1.22 2.21-.54.6-1.21 1.07-2.01 1.38-.8.32-1.72.48-2.76.48s-1.93-.14-2.7-.41c-.77-.27-1.41-.68-1.92-1.24-.51-.55-.9-1.26-1.15-2.11s-.38-1.87-.38-3.04c0-1.07.14-2.04.41-2.9.27-.86.68-1.59 1.22-2.19.54-.6 1.21-1.06 2-1.38.8-.32 1.72-.48 2.77-.48s1.89.13 2.66.4c.77.27 1.41.68 1.93 1.23.52.55.91 1.25 1.17 2.1.26.84.4 1.84.4 2.99Zm-2.83.14c0-.7-.05-1.33-.16-1.9-.11-.57-.3-1.06-.56-1.47a2.58 2.58 0 0 0-1.05-.94c-.44-.22-.98-.33-1.64-.33s-1.22.12-1.66.37c-.45.25-.8.58-1.08 1-.27.42-.47.9-.58 1.46-.11.56-.17 1.15-.17 1.77 0 .72.05 1.38.16 1.95.11.58.29 1.07.55 1.48.26.41.61.72 1.04.94.44.21.99.32 1.65.32s1.22-.12 1.66-.37c.44-.25.8-.58 1.08-1 .27-.42.47-.92.58-1.48.11-.56.17-1.16.17-1.8ZM418.83 59.29c0 1.1-.14 2.09-.41 2.95-.27.87-.68 1.61-1.22 2.21a5.24 5.24 0 0 1-2 1.38c-.8.32-1.72.48-2.76.48s-1.93-.14-2.7-.41c-.77-.27-1.41-.68-1.92-1.24-.51-.55-.9-1.26-1.15-2.11-.26-.85-.38-1.87-.38-3.04 0-1.07.14-2.04.41-2.9.27-.86.68-1.59 1.22-2.19.54-.6 1.21-1.06 2-1.38.8-.32 1.72-.48 2.77-.48s1.89.13 2.66.4c.77.27 1.41.68 1.93 1.23.52.55.91 1.25 1.17 2.1.26.84.4 1.84.4 2.99Zm-2.83.14c0-.7-.05-1.33-.16-1.9-.11-.57-.3-1.06-.56-1.47a2.58 2.58 0 0 0-1.05-.94c-.44-.22-.98-.33-1.64-.33s-1.22.12-1.66.37c-.44.25-.8.58-1.08 1s-.47.9-.58 1.46c-.11.56-.17 1.15-.17 1.77 0 .72.05 1.38.16 1.95.11.58.29 1.07.55 1.48.26.41.61.72 1.05.94.44.21.99.32 1.65.32s1.22-.12 1.66-.37c.45-.25.8-.58 1.08-1 .27-.42.47-.92.58-1.48.11-.56.17-1.16.17-1.8ZM433.04 65.73c0 .08-.01.14-.04.19-.03.05-.09.09-.19.13-.1.03-.25.06-.45.07-.2.01-.47.02-.81.02-.29 0-.52 0-.69-.02-.17-.01-.31-.04-.41-.08-.1-.04-.17-.08-.21-.14s-.08-.13-.1-.21l-1.19-2.96c-.14-.34-.28-.63-.42-.89a2.77 2.77 0 0 0-.46-.65c-.17-.17-.36-.31-.58-.39-.22-.09-.47-.13-.76-.13h-.84v5.06c0 .07-.02.13-.07.18-.04.05-.12.1-.22.13s-.24.06-.41.08c-.17.02-.39.03-.66.03s-.48 0-.65-.03c-.17-.02-.31-.05-.41-.08a.422.422 0 0 1-.21-.13.3.3 0 0 1-.06-.18V53.68c0-.3.08-.52.23-.65.15-.13.34-.2.57-.2h3.43c.35 0 .64 0 .86.02.23.01.43.03.62.05.53.08 1.01.21 1.44.39.43.18.79.43 1.09.72.3.3.52.65.68 1.06.16.41.24.87.24 1.4 0 .44-.06.85-.17 1.22-.11.37-.28.69-.5.98-.22.29-.49.54-.81.75-.32.21-.69.38-1.1.51.2.1.38.21.56.35.17.14.34.3.49.5.15.2.3.42.44.67.14.25.27.53.4.85l1.12 2.61c.1.26.17.45.21.57.03.12.05.21.05.28Zm-3.47-9c0-.44-.1-.81-.3-1.11-.2-.3-.52-.51-.97-.64a4.56 4.56 0 0 0-.47-.08c-.17-.02-.41-.03-.72-.03h-1.21v3.76h1.37c.38 0 .72-.05 1-.14.29-.09.53-.22.72-.39.19-.17.33-.37.43-.6.1-.23.14-.49.14-.78ZM448.15 59.25c0 1.22-.16 2.26-.48 3.12-.32.87-.77 1.57-1.37 2.12-.59.55-1.32.95-2.17 1.2-.85.26-1.86.38-3.04.38h-3.17a.88.88 0 0 1-.57-.2c-.15-.13-.23-.35-.23-.65V53.65c0-.3.08-.52.23-.65.15-.13.34-.2.57-.2h3.4c1.18 0 2.19.14 3.01.41.82.28 1.52.69 2.08 1.23s.99 1.22 1.29 2.02c.29.8.44 1.73.44 2.78Zm-2.79.09c0-.63-.07-1.21-.22-1.75s-.38-1.01-.71-1.4c-.33-.4-.74-.71-1.25-.93-.51-.22-1.18-.33-2-.33h-1.36v9.02h1.41c.74 0 1.36-.1 1.87-.29.51-.19.93-.48 1.27-.87.34-.39.59-.87.76-1.44.17-.57.25-1.24.25-2.01ZM460.33 65.02c0 .2 0 .36-.03.5-.02.13-.04.24-.08.32s-.08.14-.13.18c-.05.04-.11.06-.17.06h-6.67a.88.88 0 0 1-.57-.2c-.15-.13-.23-.35-.23-.65V53.66c0-.3.08-.52.23-.65.15-.13.34-.2.57-.2h6.62c.06 0 .12.02.16.05.05.03.09.09.12.18s.06.2.08.33c.02.13.03.3.03.51 0 .19 0 .35-.03.49-.02.13-.04.24-.08.32-.04.08-.08.14-.12.18-.05.04-.1.06-.16.06h-4.74v3.24h4.01c.06 0 .12.02.17.06.05.04.09.1.13.17.04.08.06.18.08.32.02.13.03.3.03.49s0 .36-.03.49c-.02.13-.04.23-.08.31-.03.08-.08.13-.13.17-.05.03-.11.05-.17.05h-4.01v3.74h4.78c.06 0 .12.02.17.06.05.04.09.1.13.18.03.08.06.19.08.32.02.13.03.3.03.5ZM472.09 64.95c0 .21 0 .38-.03.52-.02.14-.04.26-.08.35s-.08.16-.13.2a.28.28 0 0 1-.18.06h-6.08a.86.86 0 0 1-.57-.2c-.15-.13-.23-.35-.23-.65V53.18c0-.07.02-.13.07-.18.04-.05.12-.1.22-.13s.24-.06.42-.08c.17-.02.39-.03.65-.03s.48.01.66.03c.17.02.31.05.41.08.1.03.18.08.22.13.04.05.07.12.07.18v10.67h4.17c.07 0 .13.02.18.06.05.04.09.1.13.19.03.09.06.2.08.34.02.14.03.31.03.52ZM478.49 65.71c0 .07-.02.13-.07.18-.04.05-.12.1-.22.13s-.24.06-.41.08c-.17.02-.39.03-.66.03s-.48 0-.65-.03a2.87 2.87 0 0 1-.42-.08.458.458 0 0 1-.22-.13.312.312 0 0 1-.07-.18V53.18c0-.07.02-.13.07-.18.04-.05.12-.1.23-.13.11-.03.24-.06.41-.08.17-.02.39-.03.65-.03s.49.01.66.03c.17.02.31.05.41.08.1.03.18.08.22.13.04.05.07.12.07.18v12.53ZM495.05 65.13c0 .16-.03.3-.08.42s-.13.23-.22.31c-.09.08-.2.14-.33.18-.13.04-.25.06-.38.06h-1.15c-.24 0-.45-.02-.62-.07a1.19 1.19 0 0 1-.48-.26c-.15-.13-.29-.3-.43-.51-.14-.21-.29-.49-.46-.84l-3.3-6.2c-.19-.37-.39-.77-.58-1.19-.2-.43-.37-.84-.53-1.25h-.02c.03.49.05.98.06 1.47.01.49.02.99.02 1.51v6.94c0 .07-.02.13-.06.18-.04.05-.1.1-.2.14-.09.04-.22.07-.37.09-.16.02-.36.03-.6.03s-.44 0-.6-.03a1.33 1.33 0 0 1-.37-.09c-.09-.04-.15-.08-.18-.14a.29.29 0 0 1-.05-.18V53.77c0-.32.09-.56.28-.72.19-.16.42-.24.69-.24h1.45c.26 0 .48.02.66.07.18.04.34.12.48.22.14.1.27.24.39.43.12.18.25.4.38.67l2.58 4.85.45.87c.15.28.29.57.43.85s.27.56.4.84c.13.27.26.55.38.82h.01c-.02-.48-.04-.98-.05-1.5s-.02-1.02-.02-1.49v-6.22c0-.07.02-.13.06-.18s.11-.1.21-.14c.1-.04.22-.07.38-.09.16-.02.36-.03.6-.03.23 0 .43 0 .58.03.16.02.28.05.36.09.09.04.15.09.18.14s.05.12.05.18v11.93ZM510.69 54.87c0 .2 0 .37-.03.51-.02.14-.04.26-.07.34a.37.37 0 0 1-.11.18c-.04.03-.1.05-.16.05-.09 0-.23-.06-.43-.18-.2-.12-.46-.26-.79-.4a8.8 8.8 0 0 0-1.17-.4c-.46-.12-.98-.18-1.58-.18-.64 0-1.22.11-1.74.33-.52.22-.96.54-1.33.94-.37.41-.65.9-.85 1.47-.2.57-.3 1.2-.3 1.89 0 .76.1 1.43.3 2 .2.58.48 1.06.85 1.45.36.39.8.68 1.31.88.51.2 1.07.3 1.69.3.3 0 .6-.03.89-.1.29-.07.57-.17.82-.31v-3.08h-2.51c-.12 0-.22-.08-.29-.23-.07-.15-.1-.41-.1-.78 0-.19 0-.35.03-.48.02-.13.04-.23.08-.31.03-.08.08-.14.12-.17.05-.04.1-.06.16-.06h4.48c.11 0 .21.02.29.06.08.04.16.09.22.17.07.08.12.17.15.27.03.11.05.23.05.37v5.28c0 .21-.04.38-.11.54-.07.15-.22.28-.44.36-.22.09-.5.18-.83.28-.33.1-.67.18-1.02.25s-.71.12-1.07.15c-.36.03-.72.05-1.08.05-1.06 0-2.01-.15-2.85-.46-.84-.3-1.55-.75-2.13-1.32a5.67 5.67 0 0 1-1.33-2.11c-.31-.83-.46-1.77-.46-2.83s.16-2.06.49-2.93c.33-.86.79-1.6 1.39-2.21.6-.6 1.33-1.07 2.18-1.39.85-.32 1.8-.48 2.84-.48.57 0 1.1.04 1.57.12.47.08.88.17 1.23.29.35.11.64.23.88.36s.39.24.49.34c.09.1.16.23.2.41.04.17.06.43.06.77ZM528.98 65.61c-.03.12-.08.21-.13.28-.05.07-.14.13-.27.16-.12.04-.29.06-.5.07-.21.01-.49.02-.83.02h-.7c-.2 0-.36-.01-.5-.03a1.22 1.22 0 0 1-.33-.06c-.08-.03-.16-.06-.21-.1s-.1-.09-.13-.15-.06-.13-.09-.22l-3.95-11.76c-.08-.25-.13-.44-.15-.58-.02-.14.02-.25.1-.32.09-.07.23-.12.44-.13.21-.02.49-.03.86-.03.31 0 .56 0 .74.02.18.01.31.04.41.07.1.03.16.09.2.15.04.07.07.15.11.26l3.23 10.23 3.17-10.18c.03-.12.06-.21.1-.28.04-.07.11-.13.21-.17.1-.04.24-.07.43-.08.19-.01.44-.02.76-.02s.56.01.73.03c.17.02.29.07.36.15.06.08.08.19.06.33-.02.14-.08.34-.16.57l-3.96 11.77ZM547.27 65.07c.08.25.13.44.15.58.02.14 0 .25-.08.32s-.21.12-.4.13c-.19.02-.45.03-.79.03s-.62 0-.82-.02c-.19 0-.34-.03-.45-.06a.432.432 0 0 1-.22-.13.586.586 0 0 1-.1-.21l-.89-2.67h-4.98l-.84 2.59a.67.67 0 0 1-.11.24c-.04.06-.12.12-.21.15-.1.04-.24.06-.42.08-.18.01-.42.02-.71.02-.31 0-.56 0-.74-.03-.18-.02-.3-.07-.37-.15-.07-.08-.09-.19-.07-.33.02-.14.07-.34.15-.57l4.09-11.77c.04-.12.09-.21.14-.28.05-.07.14-.13.26-.16.12-.04.29-.06.5-.07.21-.01.49-.02.84-.02.4 0 .72 0 .96.02.24 0 .43.03.56.07.13.04.23.09.29.17s.11.18.15.31l4.1 11.76Zm-6.09-9.73-1.88 5.64h3.76l-1.88-5.64ZM562.17 65.13c0 .16-.03.3-.08.42s-.13.23-.22.31c-.09.08-.2.14-.33.18-.13.04-.25.06-.38.06h-1.15c-.24 0-.45-.02-.62-.07-.17-.05-.33-.13-.48-.26-.15-.13-.29-.3-.43-.51-.14-.21-.29-.49-.46-.84l-3.3-6.2c-.19-.37-.39-.77-.58-1.19-.2-.43-.38-.84-.53-1.25h-.02c.03.49.05.98.06 1.47.01.49.02.99.02 1.51v6.94c0 .07-.02.13-.06.18s-.1.1-.19.14c-.09.04-.22.07-.37.09-.16.02-.36.03-.6.03s-.44 0-.59-.03-.28-.05-.37-.09c-.09-.04-.15-.08-.18-.14a.374.374 0 0 1-.05-.18V53.77c0-.32.09-.56.28-.72.19-.16.42-.24.69-.24h1.45c.26 0 .48.02.66.07.18.04.34.12.48.22.14.1.27.24.39.43.12.18.25.4.38.67l2.58 4.85.45.87c.15.29.29.57.43.85s.27.56.4.84c.13.27.26.55.38.82-.02-.48-.04-.98-.05-1.5 0-.52-.01-1.02-.01-1.49v-6.22c0-.07.02-.13.06-.18s.11-.1.21-.14c.1-.04.22-.07.38-.09.16-.02.36-.03.6-.03.23 0 .43 0 .58.03.16.02.28.05.36.09.08.04.14.09.18.14.03.05.05.12.05.18v11.93ZM375.38 82.87c0 .2 0 .37-.03.51-.02.14-.04.26-.07.34-.03.09-.07.14-.11.18-.04.03-.1.05-.16.05-.09 0-.23-.06-.43-.18-.2-.12-.46-.26-.79-.4a8.8 8.8 0 0 0-1.17-.4c-.45-.12-.98-.18-1.58-.18-.64 0-1.22.11-1.74.33-.52.22-.96.54-1.33.94-.37.41-.65.9-.85 1.47-.2.57-.3 1.2-.3 1.89 0 .76.1 1.43.3 2 .2.58.48 1.06.85 1.45.36.39.8.68 1.31.88.51.2 1.07.3 1.69.3.3 0 .6-.03.89-.1.29-.07.57-.17.82-.31v-3.08h-2.51c-.12 0-.22-.08-.29-.23-.07-.15-.1-.41-.1-.78 0-.19 0-.35.03-.48.02-.13.04-.23.08-.31s.08-.14.12-.17c.05-.04.1-.06.16-.06h4.48c.11 0 .21.02.29.06.08.04.16.09.22.17.07.08.12.17.15.27.03.11.05.23.05.37v5.28c0 .21-.04.38-.11.54-.07.15-.22.28-.44.36-.22.09-.5.18-.83.28-.33.1-.67.18-1.02.25s-.71.12-1.07.15c-.36.03-.72.05-1.08.05-1.06 0-2.01-.15-2.85-.46-.84-.3-1.55-.75-2.13-1.32a5.67 5.67 0 0 1-1.33-2.11c-.31-.83-.46-1.77-.46-2.83s.16-2.06.49-2.93c.33-.87.79-1.6 1.39-2.2.6-.61 1.33-1.07 2.18-1.39.85-.32 1.8-.48 2.84-.48.57 0 1.1.04 1.57.12.47.08.88.17 1.23.29.35.11.64.23.88.36s.39.24.49.34c.09.1.16.23.2.4s.06.43.06.77ZM388.09 93.02c0 .2 0 .36-.03.5-.02.13-.04.24-.08.32-.04.08-.08.14-.13.18-.05.04-.11.06-.17.06h-6.67c-.23 0-.42-.07-.57-.2-.15-.13-.23-.35-.23-.65V81.66c0-.3.08-.52.23-.65.15-.13.34-.2.57-.2h6.62c.06 0 .12.02.16.05.05.03.09.09.12.18s.06.2.08.33c.02.13.03.3.03.51 0 .19 0 .35-.03.49-.02.13-.04.24-.08.32-.03.08-.08.14-.12.18-.05.04-.1.06-.16.06h-4.74v3.24h4.01c.06 0 .12.02.17.06.05.04.09.1.13.17.03.08.06.18.08.32.02.13.03.29.03.49s0 .36-.03.49c-.02.13-.04.23-.08.31-.03.08-.08.13-.13.17-.05.03-.11.05-.17.05h-4.01v3.74h4.78c.06 0 .12.02.17.06.05.04.09.1.13.18.03.08.06.19.08.32.02.13.03.3.03.5ZM403.51 93.13c0 .16-.03.3-.08.42s-.13.23-.22.31c-.09.08-.2.14-.33.18-.13.04-.25.06-.38.06h-1.15c-.24 0-.45-.02-.62-.07a1.19 1.19 0 0 1-.48-.26c-.15-.13-.29-.3-.43-.51-.14-.21-.29-.49-.46-.84l-3.3-6.2c-.19-.37-.39-.77-.58-1.2-.2-.43-.37-.84-.53-1.25h-.02c.03.49.05.98.06 1.47.01.49.02.99.02 1.51v6.94c0 .07-.02.13-.06.18-.04.05-.1.1-.2.14s-.22.07-.37.09c-.16.02-.36.03-.6.03s-.44 0-.6-.03a1.33 1.33 0 0 1-.37-.09c-.09-.04-.15-.08-.18-.14a.29.29 0 0 1-.05-.18V81.77c0-.32.09-.56.28-.72.19-.16.42-.24.69-.24H395c.26 0 .48.02.66.07.18.04.34.12.48.22.14.1.27.25.39.43s.25.41.38.67l2.58 4.85.45.87c.15.28.29.57.43.85s.27.56.4.84c.13.27.26.55.38.82h.01c-.02-.48-.04-.98-.05-1.5 0-.52-.02-1.02-.02-1.49v-6.22c0-.07.02-.13.06-.18s.11-.1.21-.14c.1-.04.22-.07.38-.09.16-.02.36-.03.6-.03.23 0 .43 0 .58.03.16.02.28.05.36.09.09.04.15.09.18.14.03.05.05.12.05.18v11.93ZM416.99 93.02c0 .2 0 .36-.03.5-.02.13-.04.24-.08.32-.04.08-.08.14-.13.18-.05.04-.11.06-.17.06h-6.66c-.23 0-.42-.07-.57-.2-.15-.13-.23-.35-.23-.65V81.66c0-.3.08-.52.23-.65.15-.13.34-.2.57-.2h6.62c.06 0 .12.02.16.05.05.03.09.09.12.18s.06.2.08.33c.02.13.03.3.03.51 0 .19 0 .35-.03.49-.02.13-.04.24-.08.32-.03.08-.08.14-.12.18-.05.04-.1.06-.16.06h-4.74v3.24h4.01c.06 0 .12.02.17.06.05.04.09.1.13.17.03.08.06.18.08.32.02.13.03.29.03.49s0 .36-.03.49c-.02.13-.04.23-.08.31-.03.08-.08.13-.13.17-.05.03-.11.05-.17.05h-4.01v3.74h4.78c.06 0 .12.02.17.06.05.04.09.1.13.18.03.08.06.19.08.32.02.13.03.3.03.5ZM429.34 93.02c0 .2 0 .36-.03.5-.02.13-.04.24-.08.32a.42.42 0 0 1-.13.18c-.05.04-.11.06-.17.06h-6.66c-.23 0-.42-.07-.57-.2-.15-.13-.23-.35-.23-.65V81.66c0-.3.08-.52.23-.65.15-.13.34-.2.57-.2h6.62c.06 0 .12.02.16.05.05.03.09.09.12.18.04.09.06.2.08.33.02.13.03.3.03.51 0 .19 0 .35-.03.49-.02.13-.04.24-.08.32-.03.08-.07.14-.12.18-.05.04-.1.06-.16.06h-4.74v3.24h4.01c.06 0 .12.02.17.06.05.04.09.1.13.17.03.08.06.18.08.32.02.13.03.29.03.49s0 .36-.03.49c-.02.13-.04.23-.08.31-.04.08-.08.13-.13.17-.05.03-.11.05-.17.05h-4.01v3.74h4.78c.06 0 .12.02.17.06.05.04.09.1.13.18.03.08.06.19.08.32.02.13.03.3.03.5ZM441.47 90.1c0 .7-.13 1.31-.39 1.83-.26.53-.61.97-1.06 1.32-.45.35-.96.62-1.56.8-.6.18-1.23.27-1.91.27-.46 0-.88-.04-1.28-.11-.39-.08-.74-.17-1.04-.27-.3-.11-.55-.22-.75-.33-.2-.12-.35-.22-.44-.31a.802.802 0 0 1-.19-.38c-.04-.17-.06-.41-.06-.72 0-.21 0-.39.02-.53.01-.14.04-.26.07-.35a.39.39 0 0 1 .12-.19.28.28 0 0 1 .18-.06c.1 0 .23.06.41.17.17.11.4.24.67.37s.6.26.98.38c.38.11.82.17 1.32.17.33 0 .62-.04.88-.12.26-.08.48-.19.66-.33.18-.14.32-.32.42-.53.1-.21.14-.45.14-.71 0-.3-.08-.56-.25-.77-.16-.21-.38-.41-.64-.57s-.56-.32-.9-.47c-.33-.15-.68-.3-1.04-.47-.36-.16-.7-.35-1.04-.56-.34-.21-.63-.46-.9-.75-.26-.29-.48-.63-.64-1.03-.16-.4-.25-.87-.25-1.42 0-.64.12-1.2.35-1.68.24-.48.55-.88.95-1.2.4-.32.87-.55 1.41-.71.54-.16 1.12-.24 1.73-.24.31 0 .63.02.94.07.31.05.61.11.88.2.27.08.52.17.73.28.21.1.35.19.42.26s.12.13.14.17c.02.05.04.11.06.19.02.08.03.18.04.3v.45c0 .2 0 .37-.01.5-.01.14-.03.25-.05.34-.02.09-.06.15-.1.19-.04.04-.1.06-.18.06s-.2-.05-.36-.14c-.16-.1-.37-.2-.61-.31-.24-.11-.52-.21-.83-.31-.31-.09-.66-.14-1.04-.14-.29 0-.55.04-.77.11-.22.07-.4.17-.55.3-.15.13-.26.28-.33.46s-.11.37-.11.56c0 .29.08.55.24.76.16.21.38.41.65.57.27.17.58.32.92.47.34.15.69.3 1.05.47.36.16.7.35 1.05.56.34.21.65.46.91.75.27.29.48.63.65 1.03.16.39.25.86.25 1.39ZM461.73 93.71c0 .07-.02.13-.06.18s-.11.1-.21.13c-.1.03-.23.06-.39.08-.16.02-.37.03-.62.03s-.45 0-.62-.03c-.16-.02-.29-.05-.39-.08a.387.387 0 0 1-.2-.13.3.3 0 0 1-.06-.18v-10.8h-.02l-3.84 10.79c-.03.09-.07.16-.13.22s-.14.11-.25.14c-.11.04-.24.06-.41.07-.16.01-.36.02-.59.02s-.43 0-.6-.03c-.16-.02-.3-.04-.4-.08a.656.656 0 0 1-.25-.14.387.387 0 0 1-.12-.19l-3.71-10.79h-.02v10.8c0 .07-.02.13-.06.18-.04.05-.11.1-.21.13-.1.03-.23.06-.39.08-.16.02-.37.03-.62.03s-.45 0-.62-.03-.3-.05-.39-.08a.422.422 0 0 1-.21-.13.3.3 0 0 1-.06-.18V81.9c0-.35.09-.62.28-.8.18-.18.43-.28.74-.28h1.76c.31 0 .58.03.81.08a1.47 1.47 0 0 1 .99.73c.11.2.21.44.29.72l2.87 7.91h.04l2.97-7.88c.09-.29.19-.53.29-.73.11-.2.23-.36.37-.48.14-.12.31-.21.5-.26.19-.05.41-.08.67-.08h1.81c.18 0 .34.02.48.07.13.05.24.12.33.21.09.09.15.21.2.34.04.13.07.29.07.46v11.82ZM470.06 93.71c0 .07-.02.13-.07.18-.05.05-.12.1-.22.13s-.24.06-.41.08c-.17.02-.39.03-.66.03s-.48 0-.65-.03a2.87 2.87 0 0 1-.42-.08.458.458 0 0 1-.22-.13.312.312 0 0 1-.07-.18V81.18c0-.07.02-.13.07-.18.04-.05.12-.1.23-.13.11-.03.24-.06.42-.08s.39-.03.65-.03.49 0 .66.03c.17.02.31.05.41.08.1.03.18.08.22.13.04.05.07.12.07.18v12.53ZM486.7 87.25c0 1.22-.16 2.26-.48 3.12-.32.87-.77 1.57-1.37 2.12-.59.55-1.32.95-2.17 1.2-.85.26-1.87.38-3.04.38h-3.17c-.23 0-.42-.07-.57-.2-.15-.13-.23-.35-.23-.65V81.65c0-.3.08-.52.23-.65.15-.13.34-.2.57-.2h3.4c1.18 0 2.19.14 3.01.42.82.28 1.52.69 2.08 1.23s.99 1.21 1.29 2.01c.29.8.44 1.73.44 2.78Zm-2.79.09c0-.63-.07-1.21-.22-1.75s-.38-1.01-.71-1.41-.74-.71-1.25-.93c-.51-.22-1.18-.33-2.01-.33h-1.36v9.02h1.4c.74 0 1.36-.1 1.87-.29.51-.19.93-.48 1.27-.87.34-.39.59-.87.76-1.44.17-.57.25-1.24.25-2.01ZM502.04 87.25c0 1.22-.16 2.26-.48 3.12-.32.87-.77 1.57-1.37 2.12-.59.55-1.32.95-2.17 1.2-.85.26-1.87.38-3.04.38h-3.17c-.23 0-.42-.07-.57-.2-.15-.13-.23-.35-.23-.65V81.65c0-.3.08-.52.23-.65.15-.13.34-.2.57-.2h3.4c1.18 0 2.19.14 3.01.42.82.28 1.52.69 2.08 1.23s.99 1.21 1.29 2.01c.29.8.44 1.73.44 2.78Zm-2.79.09c0-.63-.07-1.21-.22-1.75s-.38-1.01-.71-1.41c-.32-.4-.74-.71-1.25-.93-.51-.22-1.18-.33-2.01-.33h-1.36v9.02h1.4c.74 0 1.36-.1 1.87-.29.51-.19.93-.48 1.27-.87.34-.39.59-.87.76-1.44.17-.57.25-1.24.25-2.01ZM514.22 93.02c0 .2 0 .36-.03.5-.02.13-.04.24-.08.32-.04.08-.08.14-.13.18-.05.04-.11.06-.17.06h-6.67c-.23 0-.42-.07-.57-.2-.15-.13-.23-.35-.23-.65V81.66c0-.3.08-.52.23-.65.15-.13.34-.2.57-.2h6.62c.06 0 .12.02.16.05.05.03.09.09.12.18s.06.2.08.33c.02.13.03.3.03.51 0 .19 0 .35-.03.49-.02.13-.04.24-.08.32-.03.08-.08.14-.12.18-.05.04-.1.06-.16.06h-4.74v3.24h4.01c.06 0 .12.02.17.06.05.04.09.1.13.17.03.08.06.18.08.32.02.13.03.29.03.49s0 .36-.03.49c-.02.13-.04.23-.08.31-.03.08-.08.13-.13.17-.05.03-.11.05-.17.05h-4.01v3.74h4.78c.06 0 .12.02.17.06.05.04.09.1.13.18.03.08.06.19.08.32.02.13.03.3.03.5ZM525.99 92.95c0 .21 0 .38-.03.52-.02.14-.04.26-.08.35-.04.09-.08.16-.13.2a.28.28 0 0 1-.18.06h-6.08c-.23 0-.42-.07-.57-.2-.15-.13-.23-.35-.23-.65V81.18c0-.07.02-.13.07-.18.04-.05.12-.1.22-.13s.24-.06.41-.08c.17-.02.39-.03.65-.03s.49 0 .66.03.31.05.41.08c.1.03.18.08.22.13.04.05.07.12.07.18v10.67h4.17c.07 0 .13.02.18.06.05.04.09.1.13.19.03.09.06.2.08.34.02.14.03.31.03.52ZM537.54 93.02c0 .2 0 .36-.03.5-.02.13-.04.24-.08.32a.42.42 0 0 1-.13.18c-.05.04-.11.06-.17.06h-6.66c-.23 0-.42-.07-.57-.2-.15-.13-.23-.35-.23-.65V81.66c0-.3.08-.52.23-.65.15-.13.34-.2.57-.2h6.62c.06 0 .12.02.16.05.05.03.09.09.12.18.04.09.06.2.08.33.02.13.03.3.03.51 0 .19 0 .35-.03.49-.02.13-.04.24-.08.32-.03.08-.07.14-.12.18-.05.04-.1.06-.16.06h-4.74v3.24h4.01c.06 0 .12.02.17.06.05.04.09.1.13.17.03.08.06.18.08.32.02.13.03.29.03.49s0 .36-.03.49c-.02.13-.04.23-.08.31-.04.08-.08.13-.13.17-.05.03-.11.05-.17.05h-4.01v3.74h4.78c.06 0 .12.02.17.06.05.04.09.1.13.18.03.08.06.19.08.32.02.13.03.3.03.5ZM552.96 93.13c0 .16-.03.3-.08.42s-.13.23-.22.31-.2.14-.33.18c-.13.04-.25.06-.38.06h-1.15c-.24 0-.45-.02-.62-.07-.17-.05-.33-.13-.48-.26-.15-.13-.29-.3-.43-.51-.14-.21-.29-.49-.46-.84l-3.3-6.2c-.19-.37-.39-.77-.58-1.2-.2-.43-.38-.84-.53-1.25h-.02c.03.49.05.98.06 1.47.01.49.02.99.02 1.51v6.94c0 .07-.02.13-.06.18-.04.05-.1.1-.19.14-.09.04-.22.07-.37.09s-.36.03-.61.03-.44 0-.59-.03a1.33 1.33 0 0 1-.37-.09.411.411 0 0 1-.19-.14.374.374 0 0 1-.05-.18V81.77c0-.32.09-.56.28-.72.19-.16.42-.24.69-.24h1.45c.26 0 .48.02.66.07.18.04.34.12.48.22.14.1.27.25.39.43s.25.41.38.67l2.58 4.85.45.87c.15.28.29.57.43.85s.27.56.4.84c.13.27.26.55.38.82-.02-.48-.04-.98-.05-1.5 0-.52-.01-1.02-.01-1.49v-6.22c0-.07.02-.13.06-.18s.11-.1.21-.14c.1-.04.22-.07.38-.09.16-.02.36-.03.61-.03.23 0 .43 0 .58.03.16.02.28.05.37.09.08.04.14.09.18.14.03.05.05.12.05.18v11.93Z" class="cls-2"/>
</svg>
