<svg width="400" height="125" viewBox="0 0 400 125" fill="none" xmlns="http://www.w3.org/2000/svg">
    <path d="M4.32001 40.64C6.18001 39.19 8.55 38.48 11.19 38.48C12.56 38.48 14.5 38.76 15.69 39.09C16 39.17 16.17 39.22 16.4 39.19C16.42 39.78 16.55 41.38 16.75 42.93C16.62 43.11 16.24 43.14 16.06 42.98C15.68 41.25 14.53 39.27 10.84 39.27C6.94001 39.27 3.64001 41.74 3.64001 47.01C3.64001 52.36 7.02001 55.31 11.2 55.31C14.48 55.31 15.93 53.17 16.52 51.67C16.7 51.54 17.08 51.59 17.18 51.77C17 53.09 16.34 54.77 15.96 55.26C15.65 55.31 15.35 55.41 15.07 55.51C14.51 55.71 12.68 56.09 11.05 56.09C8.76001 56.09 6.57001 55.63 4.71001 54.39C2.68001 52.99 1.10001 50.67 1.10001 47.39C1.11001 44.55 2.39001 42.14 4.32001 40.64Z" fill="#144196"/>
    <path d="M48.1 35.74C48.1 32.87 47.95 32.18 46.2 31.99L44.96 31.87C44.65 31.64 44.69 31.05 45 30.9C47.09 30.71 49.72 30.59 53.32 30.59C55.76 30.59 58.08 30.78 59.82 31.67C61.48 32.48 62.76 34.03 62.76 36.51C62.76 39.3 61.13 40.73 58.81 41.82C58.81 42.21 59.12 42.32 59.54 42.4C61.63 42.79 64.73 44.73 64.73 48.87C64.73 53.36 61.4 56.38 54.43 56.38C53.31 56.38 51.41 56.26 49.78 56.26C48.08 56.26 46.76 56.34 45.33 56.38C45.1 56.26 45.02 55.65 45.25 55.41L45.95 55.29C48 54.98 48.08 54.51 48.08 50.45V35.74H48.1ZM51.27 40.89C51.27 41.97 51.31 42.05 53.28 41.97C57.23 41.82 59.35 40.65 59.35 37.01C59.35 33.21 56.53 31.78 53.59 31.78C52.73 31.78 52.16 31.86 51.81 32.01C51.42 32.13 51.27 32.32 51.27 33.02V40.89ZM51.27 49.88C51.27 51.27 51.35 53.25 52.08 54.1C52.82 54.99 53.98 55.18 55.14 55.18C58.58 55.18 61.22 53.63 61.22 49.76C61.22 46.7 59.67 43.14 53.52 43.14C51.43 43.14 51.27 43.37 51.27 44.15V49.88Z" fill="#144196"/>
    <path d="M126.25 50.78C126.25 52.84 126.56 54.07 127.49 54.43C127.64 54.58 127.64 54.89 127.44 55.05C126.82 55.05 125.9 55.25 124.92 55.51C122.19 56.23 118.49 56.85 115.71 56.85C109.59 56.85 103.98 55.15 100.02 51.14C96.93 48.05 95.29 43.99 95.29 39.46C95.29 35.09 96.73 30.66 99.92 27.27C103.37 23.67 108.46 21.25 116.23 21.25C119.16 21.25 121.89 21.82 122.76 22.02C123.74 22.22 125.33 22.58 125.95 22.48C125.95 24.18 126.26 26.85 126.72 29.94C126.57 30.35 125.64 30.4 125.33 30.09C123.89 24.53 120.03 22.78 114.78 22.78C104.8 22.78 100.43 29.88 100.43 37.6C100.43 47.48 105.52 55.25 115.86 55.25C119.05 55.25 120.96 54.58 121.52 53.71C121.78 53.35 122.03 52.43 122.03 50.78V48.72C122.03 44.4 121.88 44.09 118.69 43.73L116.43 43.47C116.02 43.27 116.07 42.34 116.43 42.18C117.93 42.29 120.75 42.34 123.79 42.34C125.8 42.34 127.55 42.29 129.24 42.18C129.6 42.39 129.65 43.16 129.29 43.47L128.47 43.57C126.31 43.83 126.26 45.27 126.26 47.89V50.78H126.25Z" fill="#144196"/>
    <path d="M96.46 79.21C98.11 74.84 98.62 73.14 98.62 72.32C98.62 71.6 98.16 71.29 97.18 71.14L94.76 70.78C94.45 70.47 94.55 69.7 95.02 69.49C97.44 69.59 99.08 69.64 100.68 69.64C101.81 69.64 103.05 69.59 104.13 69.49C103.41 71.96 103.82 75.1 104.39 79.52L105.21 86.16C105.77 90.59 106.08 93.31 106.34 95.57H106.44C108.45 93.15 110.4 90.53 112.36 88.01L120.54 77.46C124.45 72.42 125.27 70.41 125.53 69.49C126.41 69.59 127.33 69.64 128.72 69.64C130.73 69.64 132.32 69.59 133.92 69.49C134.33 69.75 134.18 70.47 133.92 70.78L132.74 70.98C130.94 71.29 130.17 71.6 129.65 72.16C128.93 72.98 128.41 74.58 127.28 78.54L122.8 94.49C121.72 98.3 121.36 100.1 121.31 100.92C121.26 101.74 121.93 102.21 123.37 102.31L125.12 102.46C125.48 102.82 125.32 103.54 124.91 103.75C123.01 103.65 120.69 103.6 118.32 103.6C116.21 103.6 114 103.65 112.09 103.75C111.73 103.44 111.73 102.67 112.09 102.46L113.42 102.31C114.35 102.21 115.69 101.9 116.25 101.33C116.87 100.71 117.9 98.03 118.87 94.79L123 81.33C123.82 78.7 124.54 76.39 124.95 74.85L124.79 74.8C124.07 75.73 122.73 77.48 120.01 81.08L112.2 91.2C109.27 95.01 106.23 98.92 103.97 102.78C103.66 102.98 103.2 102.83 102.99 102.57C103.04 100.72 102.78 97.99 102.17 92.07C101.5 85.43 100.68 77.35 100.42 74.78H100.32C99.5 76.63 98.73 78.8 97.95 80.91L94.09 91.3C91.67 97.94 91 99.95 91 100.92C91 101.49 91.26 101.9 92.55 102.1L94.76 102.46C94.97 102.77 94.86 103.49 94.61 103.75C93.17 103.65 91.11 103.6 88.69 103.6C86.58 103.6 84.84 103.65 83.19 103.75C82.88 103.44 82.88 102.62 83.24 102.46L84.63 102.31C85.76 102.21 86.89 101.85 87.56 100.92C88.38 99.89 90.54 94.7 93.78 86.15L96.46 79.21Z" fill="#C3BEB9"/>
    <path d="M159.99 75.84C161.15 72.2 161.19 71.66 159.14 71.27L158.37 71.11C158.14 70.8 158.18 70.3 158.6 70.15C159.96 70.22 161.27 70.27 162.9 70.27H170.22C172.7 70.27 174.52 70.27 175.68 70.15C175.41 70.81 174.48 73.9 174.09 75.3C173.93 75.61 173.24 75.57 173.12 75.26C173.35 73.24 173.47 72.28 171.76 71.81C170.87 71.58 169.67 71.46 167.66 71.46H165.38C164.37 71.46 164.22 71.61 163.87 72.78L161.39 80.72C161.04 81.8 161 81.84 162.09 81.84H164.03C167.71 81.84 168.49 81.61 169.37 79.94L169.99 78.78C170.15 78.51 170.88 78.55 170.96 78.86C170.69 79.52 170.11 81.18 169.64 82.62C169.21 84.09 168.83 85.53 168.63 86.38C168.4 86.69 167.82 86.65 167.66 86.34V85.25C167.66 83.24 166.65 83.19 163.67 83.19H161.74C160.65 83.19 160.58 83.23 160.23 84.32L158.64 89.55C157.98 91.72 157.59 93.03 157.98 93.81C158.25 94.35 158.99 94.63 162.28 94.63C166.54 94.63 168.09 94.4 170.53 90.6C170.84 90.41 171.27 90.48 171.42 90.83C171.07 91.95 169.75 94.9 168.75 95.94C166.19 95.86 162.82 95.82 159.88 95.82H155.31C153.72 95.82 152.4 95.86 150.7 95.94C150.39 95.74 150.39 95.2 150.66 94.97L152.02 94.85C153.88 94.7 154.27 94.19 155.5 90.24L159.99 75.84Z" fill="#C3BEB9"/>
    <path d="M203.12 73.98C203.73 72.02 203.5 71.79 202.36 71.72L201.52 71.69C201.34 71.56 201.39 71.21 201.52 71.08C202.44 70.95 203.91 70.78 205.79 70.78C207.14 70.78 208.69 70.88 209.91 71.39C211.16 71.92 212.07 72.89 212.07 74.6C212.07 77.17 209.5 78.37 208.1 78.47C207.69 78.49 207.87 78.67 208.1 78.75C209.55 79.23 210.75 80.66 210.75 82.49C210.75 83.43 210.47 84.73 209.38 85.8C208.31 86.87 206.43 87.73 203.27 87.73C201.9 87.73 200.95 87.65 199.88 87.65C198.86 87.65 198 87.68 197.26 87.73C197.06 87.6 197.06 87.25 197.23 87.09L197.74 87.01C198.96 86.83 199.22 86.58 200.03 83.98L203.12 73.98ZM201.72 84.72C201.18 86.4 201.92 86.93 203.75 86.93C205.89 86.93 208.56 85.61 208.56 82.17C208.56 80.01 206.71 78.96 204.79 78.96C203.57 78.96 203.47 78.99 203.21 79.83L201.72 84.72ZM203.96 77.47C203.78 78.08 203.81 78.21 204.9 78.21C206.73 78.21 209.99 77.32 209.99 74.11C209.99 72.63 208.87 71.56 206.78 71.56C205.81 71.56 205.76 71.54 205.53 72.38L203.96 77.47Z" fill="#C3BEB9"/>
    <path d="M212.41 61.82H0V62.35H212.41V61.82Z" fill="black"/>
    <path d="M244.92 21.24H244.39V103.75H244.92V21.24Z" fill="black"/>
    <path d="M263.99 46.71C263.99 46.83 263.99 46.93 263.98 47.02C263.97 47.1 263.96 47.18 263.95 47.24C263.94 47.3 263.92 47.35 263.89 47.4C263.87 47.44 263.83 47.49 263.78 47.55C263.73 47.61 263.62 47.68 263.47 47.76C263.32 47.85 263.13 47.93 262.91 48.01C262.69 48.09 262.44 48.16 262.16 48.21C261.88 48.26 261.57 48.29 261.25 48.29C260.61 48.29 260.03 48.19 259.51 47.99C258.99 47.79 258.55 47.5 258.19 47.1C257.83 46.71 257.55 46.21 257.36 45.63C257.17 45.04 257.07 44.36 257.07 43.57C257.07 42.77 257.18 42.07 257.39 41.45C257.6 40.83 257.9 40.31 258.28 39.89C258.66 39.47 259.12 39.15 259.65 38.93C260.18 38.71 260.77 38.6 261.41 38.6C261.67 38.6 261.92 38.62 262.16 38.67C262.4 38.71 262.62 38.77 262.83 38.84C263.03 38.91 263.22 38.99 263.39 39.08C263.55 39.17 263.67 39.25 263.73 39.32C263.79 39.38 263.84 39.44 263.86 39.48C263.88 39.52 263.9 39.58 263.92 39.65C263.94 39.72 263.95 39.8 263.95 39.89C263.96 39.98 263.96 40.09 263.96 40.23C263.96 40.37 263.95 40.5 263.94 40.6C263.93 40.7 263.91 40.78 263.89 40.85C263.87 40.91 263.84 40.96 263.8 40.99C263.77 41.02 263.73 41.03 263.69 41.03C263.62 41.03 263.52 40.99 263.41 40.9C263.3 40.82 263.15 40.72 262.98 40.62C262.8 40.52 262.59 40.42 262.35 40.34C262.11 40.26 261.81 40.21 261.48 40.21C261.11 40.21 260.78 40.29 260.48 40.44C260.19 40.59 259.94 40.81 259.74 41.09C259.54 41.37 259.38 41.71 259.27 42.11C259.16 42.51 259.11 42.96 259.11 43.46C259.11 44.01 259.17 44.49 259.28 44.89C259.39 45.29 259.55 45.62 259.77 45.89C259.98 46.15 260.23 46.34 260.53 46.47C260.83 46.6 261.16 46.66 261.53 46.66C261.87 46.66 262.16 46.62 262.41 46.54C262.66 46.46 262.87 46.37 263.04 46.28C263.22 46.18 263.36 46.1 263.47 46.02C263.58 45.94 263.67 45.9 263.73 45.9C263.78 45.9 263.82 45.91 263.85 45.93C263.88 45.95 263.9 45.99 263.92 46.05C263.94 46.11 263.95 46.19 263.96 46.29C263.99 46.39 263.99 46.53 263.99 46.71Z" fill="#144196"/>
    <path d="M275.16 43.33C275.16 44.11 275.06 44.8 274.87 45.41C274.68 46.02 274.39 46.54 274.01 46.97C273.63 47.4 273.15 47.72 272.59 47.95C272.03 48.18 271.38 48.29 270.64 48.29C269.91 48.29 269.27 48.19 268.73 48C268.19 47.81 267.74 47.52 267.37 47.13C267.01 46.74 266.74 46.24 266.55 45.64C266.37 45.04 266.28 44.32 266.28 43.5C266.28 42.74 266.38 42.06 266.57 41.45C266.76 40.84 267.05 40.33 267.43 39.9C267.81 39.47 268.28 39.15 268.84 38.92C269.4 38.69 270.06 38.58 270.8 38.58C271.51 38.58 272.13 38.67 272.68 38.86C273.22 39.05 273.68 39.34 274.04 39.73C274.4 40.12 274.68 40.62 274.86 41.21C275.07 41.82 275.16 42.52 275.16 43.33ZM273.16 43.43C273.16 42.94 273.12 42.49 273.04 42.09C272.96 41.69 272.83 41.34 272.64 41.05C272.45 40.76 272.21 40.54 271.9 40.38C271.59 40.22 271.2 40.15 270.74 40.15C270.27 40.15 269.88 40.24 269.57 40.41C269.25 40.59 269 40.82 268.81 41.12C268.62 41.41 268.48 41.76 268.4 42.15C268.32 42.54 268.28 42.96 268.28 43.4C268.28 43.91 268.32 44.37 268.4 44.78C268.48 45.19 268.61 45.54 268.79 45.83C268.97 46.12 269.22 46.34 269.53 46.49C269.84 46.64 270.23 46.72 270.7 46.72C271.17 46.72 271.56 46.63 271.87 46.46C272.18 46.29 272.43 46.05 272.63 45.75C272.82 45.45 272.96 45.1 273.04 44.71C273.12 44.31 273.16 43.88 273.16 43.43Z" fill="#144196"/>
    <path d="M283.39 47.33C283.39 47.47 283.38 47.6 283.37 47.69C283.36 47.79 283.34 47.87 283.31 47.94C283.29 48.01 283.26 48.05 283.22 48.08C283.18 48.11 283.14 48.12 283.09 48.12H278.8C278.64 48.12 278.51 48.07 278.4 47.98C278.29 47.89 278.24 47.73 278.24 47.52V39.01C278.24 38.96 278.25 38.92 278.28 38.88C278.31 38.84 278.36 38.81 278.44 38.78C278.51 38.76 278.61 38.74 278.73 38.72C278.85 38.7 279.01 38.7 279.19 38.7C279.38 38.7 279.53 38.71 279.65 38.72C279.77 38.74 279.87 38.75 279.94 38.78C280.01 38.8 280.06 38.83 280.1 38.88C280.13 38.92 280.15 38.96 280.15 39.01V46.55H283.1C283.15 46.55 283.19 46.56 283.23 46.59C283.27 46.62 283.3 46.66 283.32 46.72C283.34 46.78 283.36 46.86 283.38 46.96C283.38 47.06 283.39 47.18 283.39 47.33Z" fill="#144196"/>
    <path d="M291.14 47.33C291.14 47.47 291.14 47.6 291.12 47.69C291.11 47.79 291.09 47.87 291.07 47.94C291.05 48.01 291.01 48.05 290.98 48.08C290.95 48.11 290.9 48.12 290.85 48.12H286.56C286.4 48.12 286.27 48.07 286.16 47.98C286.05 47.89 286 47.73 286 47.52V39.01C286 38.96 286.02 38.92 286.05 38.88C286.08 38.84 286.13 38.81 286.21 38.78C286.28 38.76 286.38 38.74 286.5 38.72C286.62 38.7 286.78 38.7 286.96 38.7C287.15 38.7 287.3 38.71 287.42 38.72C287.54 38.74 287.64 38.75 287.71 38.78C287.78 38.8 287.83 38.83 287.87 38.88C287.9 38.92 287.92 38.96 287.92 39.01V46.55H290.87C290.92 46.55 290.96 46.56 291 46.59C291.04 46.62 291.07 46.66 291.09 46.72C291.11 46.78 291.13 46.86 291.14 46.96C291.14 47.06 291.14 47.18 291.14 47.33Z" fill="#144196"/>
    <path d="M299.3 47.38C299.3 47.52 299.29 47.64 299.28 47.73C299.27 47.82 299.25 47.9 299.22 47.96C299.2 48.02 299.17 48.06 299.13 48.09C299.09 48.12 299.05 48.13 299.01 48.13H294.31C294.15 48.13 294.02 48.08 293.91 47.99C293.8 47.9 293.75 47.74 293.75 47.53V39.36C293.75 39.15 293.8 38.99 293.91 38.9C294.02 38.8 294.15 38.76 294.31 38.76H298.99C299.03 38.76 299.07 38.77 299.1 38.8C299.14 38.82 299.16 38.87 299.19 38.93C299.21 38.99 299.23 39.07 299.24 39.16C299.25 39.25 299.26 39.37 299.26 39.52C299.26 39.65 299.25 39.77 299.24 39.86C299.23 39.95 299.21 40.03 299.19 40.09C299.17 40.15 299.14 40.19 299.1 40.22C299.07 40.25 299.03 40.26 298.99 40.26H295.65V42.55H298.48C298.52 42.55 298.56 42.56 298.6 42.59C298.64 42.62 298.67 42.66 298.69 42.71C298.71 42.77 298.73 42.84 298.74 42.93C298.75 43.02 298.76 43.14 298.76 43.27C298.76 43.41 298.75 43.53 298.74 43.62C298.73 43.71 298.71 43.78 298.69 43.84C298.66 43.9 298.64 43.93 298.6 43.96C298.56 43.98 298.52 44 298.48 44H295.65V46.64H299.02C299.06 46.64 299.1 46.65 299.14 46.68C299.17 46.71 299.21 46.75 299.23 46.81C299.25 46.87 299.27 46.94 299.29 47.04C299.29 47.12 299.3 47.24 299.3 47.38Z" fill="#144196"/>
    <path d="M309.76 40.21C309.76 40.35 309.75 40.47 309.74 40.57C309.73 40.67 309.71 40.75 309.69 40.81C309.67 40.87 309.64 40.91 309.61 40.94C309.58 40.97 309.54 40.98 309.5 40.98C309.44 40.98 309.34 40.94 309.2 40.85C309.06 40.76 308.88 40.67 308.64 40.57C308.41 40.47 308.13 40.37 307.81 40.29C307.49 40.2 307.12 40.16 306.69 40.16C306.24 40.16 305.83 40.24 305.46 40.39C305.09 40.55 304.78 40.77 304.52 41.06C304.26 41.35 304.06 41.69 303.92 42.1C303.78 42.5 303.71 42.95 303.71 43.43C303.71 43.97 303.78 44.44 303.93 44.85C304.07 45.26 304.27 45.6 304.52 45.88C304.78 46.15 305.09 46.36 305.44 46.5C305.8 46.64 306.2 46.71 306.63 46.71C306.84 46.71 307.05 46.69 307.26 46.64C307.47 46.59 307.66 46.52 307.84 46.42V44.25H306.07C305.98 44.25 305.92 44.2 305.87 44.09C305.82 43.98 305.8 43.8 305.8 43.54C305.8 43.4 305.81 43.29 305.82 43.2C305.83 43.11 305.85 43.03 305.87 42.98C305.89 42.92 305.92 42.88 305.96 42.86C305.99 42.83 306.03 42.82 306.08 42.82H309.24C309.32 42.82 309.39 42.83 309.45 42.86C309.51 42.89 309.56 42.93 309.61 42.98C309.65 43.03 309.69 43.1 309.71 43.17C309.73 43.25 309.75 43.33 309.75 43.43V47.16C309.75 47.3 309.73 47.43 309.67 47.54C309.62 47.65 309.51 47.73 309.36 47.8C309.2 47.86 309.01 47.93 308.78 48C308.55 48.07 308.31 48.13 308.06 48.17C307.81 48.22 307.56 48.26 307.31 48.28C307.06 48.3 306.8 48.32 306.55 48.32C305.8 48.32 305.13 48.21 304.54 48C303.95 47.79 303.45 47.47 303.04 47.07C302.63 46.66 302.31 46.17 302.1 45.58C301.88 44.99 301.78 44.33 301.78 43.59C301.78 42.82 301.9 42.13 302.13 41.52C302.36 40.91 302.69 40.39 303.11 39.96C303.54 39.53 304.05 39.21 304.65 38.98C305.25 38.75 305.92 38.64 306.66 38.64C307.07 38.64 307.43 38.67 307.77 38.72C308.1 38.78 308.39 38.84 308.64 38.92C308.89 39 309.09 39.09 309.26 39.18C309.42 39.27 309.54 39.35 309.61 39.42C309.67 39.49 309.72 39.58 309.75 39.71C309.74 39.79 309.76 39.97 309.76 40.21Z" fill="#144196"/>
    <path d="M318.73 47.38C318.73 47.52 318.72 47.64 318.71 47.73C318.7 47.82 318.68 47.9 318.66 47.96C318.64 48.02 318.61 48.06 318.57 48.09C318.53 48.12 318.49 48.13 318.45 48.13H313.75C313.59 48.13 313.46 48.08 313.35 47.99C313.24 47.9 313.19 47.74 313.19 47.53V39.36C313.19 39.15 313.25 38.99 313.35 38.9C313.46 38.8 313.59 38.76 313.75 38.76H318.43C318.47 38.76 318.51 38.77 318.55 38.8C318.58 38.82 318.61 38.87 318.64 38.93C318.66 38.99 318.68 39.07 318.69 39.16C318.7 39.25 318.71 39.37 318.71 39.52C318.71 39.65 318.7 39.77 318.69 39.86C318.68 39.95 318.66 40.03 318.64 40.09C318.62 40.15 318.59 40.19 318.55 40.22C318.52 40.25 318.48 40.26 318.43 40.26H315.09V42.55H317.92C317.96 42.55 318.01 42.56 318.04 42.59C318.08 42.62 318.11 42.66 318.13 42.71C318.15 42.77 318.17 42.84 318.18 42.93C318.19 43.02 318.2 43.14 318.2 43.27C318.2 43.41 318.2 43.53 318.18 43.62C318.17 43.71 318.15 43.78 318.13 43.84C318.1 43.9 318.08 43.93 318.04 43.96C318.01 43.98 317.96 44 317.92 44H315.09V46.64H318.46C318.51 46.64 318.55 46.65 318.58 46.68C318.62 46.71 318.65 46.75 318.67 46.81C318.7 46.87 318.71 46.94 318.72 47.04C318.72 47.12 318.73 47.24 318.73 47.38Z" fill="#144196"/>
    <path d="M332.95 39.54C332.95 39.68 332.94 39.8 332.93 39.9C332.92 40 332.9 40.08 332.88 40.14C332.85 40.2 332.83 40.25 332.79 40.27C332.75 40.3 332.71 40.31 332.67 40.31H330.32V47.86C330.32 47.91 330.3 47.95 330.27 47.99C330.24 48.03 330.19 48.06 330.11 48.08C330.04 48.1 329.94 48.12 329.82 48.14C329.7 48.15 329.54 48.16 329.36 48.16C329.18 48.16 329.02 48.15 328.9 48.14C328.78 48.13 328.68 48.11 328.61 48.08C328.54 48.05 328.49 48.03 328.46 47.99C328.43 47.95 328.41 47.91 328.41 47.86V40.31H326.06C326.01 40.31 325.97 40.29 325.94 40.27C325.91 40.24 325.88 40.2 325.85 40.14C325.83 40.08 325.81 40 325.8 39.9C325.79 39.8 325.78 39.68 325.78 39.54C325.78 39.4 325.78 39.27 325.8 39.17C325.81 39.07 325.83 38.99 325.85 38.93C325.87 38.87 325.9 38.83 325.94 38.8C325.97 38.77 326.01 38.76 326.06 38.76H332.66C332.7 38.76 332.74 38.77 332.78 38.8C332.81 38.83 332.84 38.87 332.87 38.93C332.89 38.99 332.91 39.07 332.92 39.17C332.95 39.27 332.95 39.39 332.95 39.54Z" fill="#144196"/>
    <path d="M341.1 47.38C341.1 47.52 341.09 47.64 341.08 47.73C341.07 47.82 341.05 47.9 341.02 47.96C341 48.02 340.97 48.06 340.93 48.09C340.89 48.12 340.85 48.13 340.81 48.13H336.1C335.94 48.13 335.81 48.08 335.7 47.99C335.59 47.9 335.54 47.74 335.54 47.53V39.36C335.54 39.15 335.59 38.99 335.7 38.9C335.81 38.8 335.94 38.76 336.1 38.76H340.78C340.82 38.76 340.86 38.77 340.9 38.8C340.93 38.82 340.96 38.87 340.99 38.93C341.01 38.99 341.03 39.07 341.05 39.16C341.06 39.25 341.07 39.37 341.07 39.52C341.07 39.65 341.06 39.77 341.05 39.86C341.04 39.95 341.02 40.03 340.99 40.09C340.97 40.15 340.94 40.19 340.9 40.22C340.87 40.25 340.83 40.26 340.78 40.26H337.44V42.55H340.27C340.31 42.55 340.35 42.56 340.39 42.59C340.42 42.62 340.46 42.66 340.48 42.71C340.5 42.77 340.52 42.84 340.53 42.93C340.54 43.02 340.55 43.14 340.55 43.27C340.55 43.41 340.54 43.53 340.53 43.62C340.52 43.71 340.5 43.78 340.48 43.84C340.46 43.9 340.42 43.93 340.39 43.96C340.35 43.98 340.31 44 340.27 44H337.44V46.64H340.81C340.85 46.64 340.89 46.65 340.93 46.68C340.97 46.71 341 46.75 341.02 46.81C341.05 46.87 341.06 46.94 341.08 47.04C341.09 47.12 341.1 47.24 341.1 47.38Z" fill="#144196"/>
    <path d="M351.21 47.88C351.21 47.93 351.2 47.98 351.18 48.01C351.16 48.05 351.11 48.08 351.04 48.1C350.97 48.12 350.86 48.14 350.72 48.15C350.58 48.16 350.39 48.16 350.15 48.16C349.95 48.16 349.79 48.16 349.66 48.15C349.54 48.14 349.44 48.12 349.37 48.1C349.3 48.07 349.25 48.04 349.22 48C349.19 47.96 349.17 47.91 349.15 47.85L348.31 45.76C348.21 45.52 348.11 45.32 348.01 45.13C347.91 44.95 347.81 44.79 347.69 44.67C347.57 44.55 347.44 44.45 347.28 44.39C347.13 44.33 346.95 44.3 346.74 44.3H346.15V47.87C346.15 47.92 346.13 47.96 346.1 48C346.07 48.04 346.02 48.07 345.94 48.09C345.87 48.11 345.77 48.13 345.65 48.15C345.53 48.16 345.38 48.17 345.19 48.17C345.01 48.17 344.85 48.16 344.73 48.15C344.61 48.14 344.51 48.12 344.44 48.09C344.37 48.06 344.32 48.04 344.29 48C344.26 47.96 344.25 47.92 344.25 47.87V39.36C344.25 39.15 344.3 38.99 344.41 38.9C344.52 38.8 344.65 38.76 344.81 38.76H347.24C347.49 38.76 347.69 38.77 347.85 38.77C348.01 38.78 348.15 38.79 348.29 38.81C348.66 38.86 349.01 38.96 349.31 39.09C349.61 39.22 349.87 39.39 350.08 39.6C350.29 39.81 350.45 40.06 350.56 40.35C350.67 40.64 350.73 40.97 350.73 41.34C350.73 41.65 350.69 41.94 350.61 42.2C350.53 42.46 350.41 42.69 350.26 42.89C350.11 43.09 349.91 43.27 349.69 43.42C349.46 43.57 349.21 43.69 348.92 43.78C349.06 43.85 349.19 43.93 349.31 44.03C349.43 44.13 349.55 44.24 349.66 44.38C349.77 44.52 349.87 44.67 349.97 44.85C350.07 45.02 350.16 45.22 350.25 45.45L351.04 47.3C351.11 47.48 351.16 47.62 351.19 47.7C351.2 47.76 351.21 47.83 351.21 47.88ZM348.76 41.52C348.76 41.21 348.69 40.95 348.55 40.74C348.41 40.53 348.18 40.38 347.86 40.29C347.76 40.26 347.65 40.25 347.53 40.23C347.41 40.22 347.24 40.21 347.02 40.21H346.17V42.87H347.14C347.41 42.87 347.65 42.84 347.85 42.77C348.05 42.7 348.22 42.61 348.36 42.5C348.5 42.38 348.6 42.24 348.66 42.08C348.72 41.91 348.76 41.73 348.76 41.52Z" fill="#144196"/>
    <path d="M264.29 65.08C264.29 65.41 264.24 65.71 264.15 65.99C264.06 66.26 263.93 66.5 263.77 66.71C263.61 66.92 263.42 67.1 263.19 67.24C262.97 67.39 262.72 67.51 262.45 67.61C262.18 67.71 261.89 67.78 261.59 67.82C261.28 67.86 260.94 67.89 260.57 67.89H258.08C257.92 67.89 257.79 67.84 257.68 67.75C257.57 67.66 257.52 67.5 257.52 67.29V59.12C257.52 58.91 257.57 58.75 257.68 58.66C257.79 58.57 257.92 58.52 258.08 58.52H260.43C261 58.52 261.49 58.57 261.89 58.66C262.29 58.76 262.62 58.9 262.89 59.1C263.16 59.3 263.37 59.54 263.52 59.84C263.66 60.14 263.74 60.49 263.74 60.9C263.74 61.13 263.71 61.34 263.65 61.54C263.59 61.74 263.51 61.92 263.4 62.09C263.29 62.25 263.15 62.4 262.99 62.53C262.83 62.66 262.64 62.76 262.44 62.83C262.71 62.88 262.95 62.96 263.17 63.08C263.39 63.2 263.59 63.36 263.76 63.55C263.93 63.74 264.06 63.96 264.16 64.22C264.25 64.48 264.29 64.77 264.29 65.08ZM261.83 61.14C261.83 60.95 261.8 60.78 261.74 60.63C261.68 60.48 261.59 60.36 261.48 60.26C261.37 60.16 261.22 60.08 261.04 60.03C260.86 59.98 260.63 59.95 260.33 59.95H259.37V62.38H260.43C260.71 62.38 260.93 62.35 261.09 62.28C261.25 62.21 261.39 62.13 261.5 62.01C261.61 61.9 261.69 61.76 261.74 61.61C261.81 61.47 261.83 61.31 261.83 61.14ZM262.32 65.15C262.32 64.93 262.28 64.74 262.21 64.57C262.14 64.4 262.03 64.26 261.89 64.14C261.75 64.02 261.57 63.93 261.35 63.87C261.13 63.81 260.85 63.78 260.5 63.78H259.37V66.45H260.75C261.02 66.45 261.24 66.42 261.42 66.37C261.6 66.31 261.76 66.23 261.89 66.12C262.02 66.01 262.13 65.88 262.2 65.72C262.28 65.54 262.32 65.36 262.32 65.15Z" fill="#144196"/>
    <path d="M272.86 67.15C272.86 67.29 272.85 67.41 272.84 67.5C272.83 67.59 272.81 67.67 272.79 67.73C272.76 67.79 272.74 67.83 272.7 67.86C272.66 67.89 272.62 67.9 272.58 67.9H267.87C267.71 67.9 267.58 67.85 267.47 67.76C267.36 67.67 267.31 67.51 267.31 67.3V59.13C267.31 58.92 267.37 58.76 267.47 58.67C267.58 58.58 267.71 58.53 267.87 58.53H272.55C272.6 58.53 272.63 58.54 272.67 58.57C272.7 58.59 272.73 58.64 272.76 58.7C272.78 58.76 272.8 58.84 272.82 58.93C272.83 59.02 272.84 59.14 272.84 59.29C272.84 59.43 272.83 59.54 272.82 59.63C272.81 59.72 272.79 59.8 272.76 59.86C272.74 59.92 272.71 59.96 272.67 59.99C272.64 60.02 272.6 60.03 272.55 60.03H269.21V62.32H272.04C272.08 62.32 272.13 62.33 272.16 62.36C272.2 62.39 272.23 62.43 272.25 62.48C272.27 62.53 272.29 62.61 272.3 62.7C272.31 62.79 272.32 62.91 272.32 63.04C272.32 63.18 272.31 63.3 272.3 63.39C272.29 63.48 272.27 63.56 272.25 63.61C272.22 63.67 272.2 63.7 272.16 63.73C272.13 63.75 272.08 63.77 272.04 63.77H269.21V66.41H272.58C272.62 66.41 272.66 66.42 272.7 66.45C272.74 66.48 272.76 66.52 272.79 66.58C272.81 66.64 272.83 66.71 272.84 66.81C272.85 66.89 272.86 67.01 272.86 67.15Z" fill="#144196"/>
    <path d="M284.19 63.1C284.19 63.88 284.09 64.57 283.9 65.19C283.71 65.8 283.42 66.32 283.04 66.75C282.66 67.18 282.19 67.5 281.62 67.73C281.06 67.95 280.41 68.07 279.67 68.07C278.94 68.07 278.31 67.97 277.76 67.78C277.22 67.59 276.76 67.3 276.4 66.91C276.04 66.52 275.77 66.02 275.59 65.42C275.41 64.82 275.32 64.1 275.32 63.28C275.32 62.52 275.41 61.84 275.61 61.23C275.8 60.62 276.09 60.11 276.47 59.68C276.85 59.26 277.32 58.93 277.88 58.7C278.44 58.47 279.09 58.36 279.84 58.36C280.55 58.36 281.18 58.45 281.72 58.64C282.26 58.83 282.72 59.12 283.08 59.51C283.44 59.9 283.72 60.39 283.9 60.99C284.1 61.59 284.19 62.29 284.19 63.1ZM282.19 63.2C282.19 62.71 282.15 62.26 282.07 61.86C281.99 61.46 281.86 61.11 281.68 60.83C281.5 60.54 281.25 60.32 280.94 60.16C280.63 60 280.25 59.93 279.78 59.93C279.31 59.93 278.92 60.02 278.61 60.19C278.3 60.37 278.04 60.6 277.85 60.9C277.66 61.19 277.52 61.54 277.44 61.93C277.36 62.32 277.32 62.74 277.32 63.18C277.32 63.69 277.36 64.15 277.44 64.56C277.52 64.97 277.65 65.32 277.83 65.61C278.01 65.9 278.26 66.12 278.57 66.27C278.88 66.42 279.27 66.5 279.74 66.5C280.21 66.5 280.6 66.41 280.91 66.24C281.22 66.07 281.48 65.83 281.67 65.53C281.86 65.23 282 64.88 282.08 64.48C282.16 64.07 282.19 63.65 282.19 63.2Z" fill="#144196"/>
    <path d="M295.7 63.1C295.7 63.88 295.6 64.57 295.41 65.19C295.22 65.8 294.93 66.32 294.55 66.75C294.17 67.18 293.69 67.5 293.13 67.73C292.57 67.95 291.92 68.07 291.18 68.07C290.45 68.07 289.81 67.97 289.27 67.78C288.73 67.59 288.28 67.3 287.91 66.91C287.55 66.52 287.28 66.02 287.1 65.42C286.92 64.82 286.83 64.1 286.83 63.28C286.83 62.52 286.93 61.84 287.12 61.23C287.31 60.62 287.6 60.11 287.98 59.68C288.36 59.26 288.84 58.93 289.4 58.7C289.96 58.47 290.62 58.36 291.36 58.36C292.07 58.36 292.7 58.45 293.24 58.64C293.78 58.83 294.24 59.12 294.6 59.51C294.96 59.9 295.24 60.39 295.42 60.99C295.61 61.59 295.7 62.29 295.7 63.1ZM293.7 63.2C293.7 62.71 293.66 62.26 293.58 61.86C293.5 61.46 293.37 61.11 293.19 60.83C293 60.54 292.76 60.32 292.45 60.16C292.14 60 291.75 59.93 291.29 59.93C290.82 59.93 290.43 60.02 290.12 60.19C289.81 60.37 289.56 60.6 289.36 60.9C289.17 61.19 289.03 61.54 288.95 61.93C288.87 62.32 288.83 62.74 288.83 63.18C288.83 63.69 288.87 64.15 288.95 64.56C289.03 64.97 289.16 65.32 289.34 65.61C289.52 65.9 289.77 66.12 290.08 66.27C290.39 66.42 290.78 66.5 291.25 66.5C291.72 66.5 292.11 66.41 292.42 66.24C292.73 66.07 292.99 65.83 293.18 65.53C293.37 65.23 293.51 64.88 293.59 64.48C293.67 64.07 293.7 63.65 293.7 63.2Z" fill="#144196"/>
    <path d="M305.73 67.65C305.73 67.7 305.72 67.75 305.7 67.78C305.68 67.82 305.64 67.85 305.56 67.87C305.49 67.9 305.38 67.91 305.24 67.92C305.1 67.93 304.91 67.93 304.67 67.93C304.47 67.93 304.31 67.93 304.18 67.92C304.06 67.91 303.96 67.89 303.89 67.87C303.82 67.84 303.77 67.81 303.74 67.77C303.71 67.73 303.68 67.68 303.67 67.62L302.83 65.53C302.73 65.29 302.63 65.08 302.53 64.9C302.43 64.72 302.33 64.57 302.21 64.44C302.09 64.32 301.96 64.22 301.8 64.16C301.64 64.1 301.47 64.07 301.26 64.07H300.67V67.64C300.67 67.69 300.65 67.73 300.62 67.77C300.59 67.81 300.54 67.84 300.46 67.87C300.39 67.89 300.29 67.91 300.17 67.93C300.05 67.94 299.89 67.95 299.71 67.95C299.53 67.95 299.38 67.94 299.25 67.93C299.13 67.92 299.03 67.9 298.96 67.87C298.89 67.85 298.84 67.82 298.81 67.77C298.78 67.73 298.77 67.69 298.77 67.64V59.13C298.77 58.92 298.82 58.76 298.93 58.67C299.04 58.58 299.17 58.53 299.33 58.53H301.75C302 58.53 302.2 58.53 302.36 58.54C302.52 58.55 302.67 58.56 302.8 58.58C303.18 58.63 303.51 58.72 303.82 58.85C304.12 58.98 304.38 59.15 304.59 59.36C304.8 59.57 304.96 59.82 305.07 60.11C305.18 60.4 305.24 60.73 305.24 61.1C305.24 61.41 305.2 61.7 305.12 61.96C305.04 62.22 304.92 62.45 304.77 62.65C304.62 62.85 304.42 63.03 304.2 63.18C303.97 63.33 303.71 63.45 303.42 63.54C303.56 63.61 303.69 63.69 303.81 63.79C303.93 63.89 304.05 64 304.16 64.14C304.27 64.28 304.37 64.43 304.47 64.61C304.57 64.79 304.66 64.98 304.75 65.21L305.54 67.06C305.61 67.24 305.66 67.38 305.68 67.46C305.72 67.53 305.73 67.6 305.73 67.65ZM303.28 61.29C303.28 60.98 303.21 60.72 303.07 60.51C302.93 60.3 302.7 60.15 302.38 60.06C302.28 60.04 302.18 60.02 302.05 60C301.93 59.99 301.76 59.98 301.54 59.98H300.69V62.64H301.66C301.93 62.64 302.17 62.61 302.37 62.54C302.57 62.48 302.74 62.38 302.88 62.27C303.02 62.15 303.12 62.01 303.19 61.85C303.25 61.68 303.28 61.49 303.28 61.29Z" fill="#144196"/>
    <path d="M316.4 63.07C316.4 63.93 316.29 64.66 316.06 65.28C315.84 65.89 315.51 66.39 315.09 66.77C314.67 67.16 314.16 67.44 313.56 67.62C312.96 67.8 312.24 67.89 311.41 67.89H309.17C309.01 67.89 308.88 67.84 308.77 67.75C308.66 67.66 308.61 67.5 308.61 67.29V59.12C308.61 58.91 308.66 58.75 308.77 58.66C308.88 58.57 309.01 58.52 309.17 58.52H311.57C312.41 58.52 313.11 58.62 313.69 58.81C314.27 59.01 314.76 59.3 315.16 59.68C315.56 60.06 315.86 60.54 316.07 61.1C316.29 61.67 316.4 62.33 316.4 63.07ZM314.43 63.14C314.43 62.7 314.38 62.28 314.27 61.9C314.17 61.52 314 61.19 313.77 60.91C313.54 60.63 313.25 60.41 312.89 60.25C312.53 60.09 312.06 60.02 311.47 60.02H310.51V66.39H311.5C312.02 66.39 312.46 66.32 312.82 66.19C313.18 66.05 313.47 65.85 313.71 65.58C313.95 65.31 314.13 64.97 314.25 64.56C314.37 64.15 314.43 63.68 314.43 63.14Z" fill="#144196"/>
    <path d="M324.99 67.15C324.99 67.29 324.99 67.41 324.97 67.5C324.96 67.59 324.94 67.67 324.91 67.73C324.89 67.79 324.86 67.83 324.82 67.86C324.78 67.89 324.74 67.9 324.7 67.9H319.99C319.83 67.9 319.7 67.85 319.59 67.76C319.48 67.67 319.43 67.51 319.43 67.3V59.13C319.43 58.92 319.48 58.76 319.59 58.67C319.7 58.58 319.83 58.53 319.99 58.53H324.67C324.71 58.53 324.75 58.54 324.79 58.57C324.82 58.59 324.85 58.64 324.88 58.7C324.9 58.76 324.92 58.84 324.93 58.93C324.94 59.02 324.95 59.14 324.95 59.29C324.95 59.43 324.94 59.54 324.93 59.63C324.92 59.72 324.9 59.8 324.88 59.86C324.85 59.92 324.82 59.96 324.79 59.99C324.76 60.02 324.72 60.03 324.67 60.03H321.32V62.32H324.15C324.19 62.32 324.23 62.33 324.27 62.36C324.31 62.39 324.34 62.43 324.36 62.48C324.39 62.53 324.4 62.61 324.42 62.7C324.43 62.79 324.44 62.91 324.44 63.04C324.44 63.18 324.43 63.3 324.42 63.39C324.41 63.48 324.39 63.56 324.36 63.61C324.34 63.67 324.31 63.7 324.27 63.73C324.23 63.75 324.19 63.77 324.15 63.77H321.32V66.41H324.7C324.74 66.41 324.78 66.42 324.82 66.45C324.86 66.48 324.89 66.52 324.91 66.58C324.93 66.64 324.95 66.71 324.97 66.81C324.99 66.89 324.99 67.01 324.99 67.15Z" fill="#144196"/>
    <path d="M333.31 67.1C333.31 67.24 333.3 67.37 333.29 67.46C333.28 67.56 333.26 67.64 333.23 67.71C333.21 67.78 333.17 67.82 333.14 67.85C333.1 67.88 333.06 67.89 333.01 67.89H328.72C328.56 67.89 328.43 67.84 328.32 67.75C328.21 67.66 328.16 67.5 328.16 67.29V58.78C328.16 58.73 328.18 58.69 328.21 58.65C328.24 58.61 328.29 58.58 328.36 58.56C328.43 58.54 328.53 58.52 328.65 58.5C328.77 58.48 328.93 58.48 329.11 58.48C329.3 58.48 329.45 58.49 329.57 58.5C329.69 58.51 329.79 58.53 329.86 58.56C329.93 58.58 329.98 58.62 330.02 58.65C330.05 58.69 330.07 58.73 330.07 58.78V66.32H333.02C333.07 66.32 333.11 66.33 333.15 66.36C333.18 66.39 333.22 66.43 333.24 66.49C333.26 66.55 333.28 66.63 333.3 66.73C333.3 66.83 333.31 66.95 333.31 67.1Z" fill="#144196"/>
    <path d="M337.82 67.63C337.82 67.68 337.8 67.72 337.77 67.76C337.74 67.8 337.69 67.83 337.61 67.86C337.54 67.88 337.44 67.9 337.32 67.92C337.2 67.93 337.05 67.94 336.86 67.94C336.68 67.94 336.52 67.93 336.4 67.92C336.28 67.91 336.18 67.89 336.11 67.86C336.04 67.84 335.99 67.81 335.96 67.76C335.93 67.72 335.91 67.68 335.91 67.63V58.78C335.91 58.73 335.93 58.69 335.96 58.65C335.99 58.61 336.04 58.58 336.12 58.56C336.2 58.54 336.29 58.52 336.41 58.5C336.53 58.48 336.68 58.48 336.87 58.48C337.06 58.48 337.21 58.49 337.33 58.5C337.45 58.51 337.55 58.53 337.62 58.56C337.69 58.58 337.74 58.62 337.78 58.65C337.81 58.69 337.83 58.73 337.83 58.78V67.63H337.82Z" fill="#144196"/>
    <path d="M349.51 67.23C349.51 67.34 349.49 67.44 349.45 67.53C349.41 67.62 349.36 67.69 349.29 67.75C349.23 67.81 349.15 67.85 349.06 67.88C348.97 67.91 348.88 67.92 348.79 67.92H347.98C347.81 67.92 347.67 67.9 347.54 67.87C347.42 67.84 347.3 67.77 347.2 67.69C347.1 67.6 347 67.48 346.9 67.33C346.8 67.18 346.69 66.98 346.57 66.74L344.24 62.36C344.1 62.1 343.97 61.82 343.83 61.52C343.69 61.22 343.56 60.92 343.45 60.64H343.44C343.46 60.99 343.47 61.33 343.48 61.68C343.49 62.03 343.5 62.38 343.5 62.75V67.65C343.5 67.7 343.49 67.74 343.46 67.78C343.43 67.82 343.39 67.85 343.32 67.88C343.25 67.91 343.17 67.93 343.06 67.94C342.95 67.95 342.81 67.96 342.63 67.96C342.46 67.96 342.32 67.95 342.21 67.94C342.1 67.93 342.01 67.91 341.95 67.88C341.89 67.86 341.84 67.82 341.82 67.78C341.8 67.74 341.79 67.7 341.79 67.65V59.23C341.79 59 341.86 58.83 341.99 58.72C342.12 58.61 342.29 58.55 342.48 58.55H343.5C343.68 58.55 343.84 58.57 343.96 58.6C344.09 58.63 344.2 58.68 344.3 58.76C344.4 58.83 344.49 58.93 344.58 59.06C344.67 59.19 344.76 59.35 344.85 59.53L346.67 62.95C346.78 63.16 346.88 63.36 346.98 63.56C347.08 63.76 347.18 63.96 347.28 64.16C347.38 64.36 347.47 64.56 347.56 64.75C347.65 64.94 347.74 65.14 347.83 65.33H347.84C347.83 64.99 347.81 64.64 347.81 64.27C347.8 63.9 347.8 63.55 347.8 63.22V58.82C347.8 58.77 347.82 58.73 347.84 58.69C347.87 58.65 347.92 58.62 347.99 58.59C348.06 58.56 348.15 58.54 348.26 58.53C348.37 58.52 348.51 58.51 348.69 58.51C348.86 58.51 348.99 58.52 349.1 58.53C349.21 58.54 349.3 58.56 349.36 58.59C349.42 58.62 349.46 58.65 349.49 58.69C349.51 58.73 349.52 58.77 349.52 58.82V67.23H349.51Z" fill="#144196"/>
    <path d="M360.55 59.98C360.55 60.12 360.54 60.24 360.53 60.34C360.52 60.44 360.5 60.52 360.48 60.58C360.46 60.64 360.43 60.68 360.4 60.71C360.37 60.73 360.33 60.75 360.29 60.75C360.23 60.75 360.13 60.71 359.99 60.62C359.85 60.53 359.67 60.44 359.43 60.34C359.2 60.24 358.92 60.14 358.6 60.06C358.28 59.97 357.9 59.93 357.48 59.93C357.03 59.93 356.62 60.01 356.25 60.16C355.88 60.32 355.57 60.54 355.31 60.83C355.05 61.12 354.85 61.46 354.71 61.86C354.57 62.26 354.5 62.71 354.5 63.19C354.5 63.73 354.57 64.2 354.71 64.61C354.85 65.02 355.05 65.36 355.31 65.63C355.57 65.9 355.87 66.11 356.23 66.25C356.59 66.39 356.99 66.46 357.42 66.46C357.63 66.46 357.84 66.44 358.05 66.39C358.26 66.34 358.45 66.27 358.63 66.17V64H356.85C356.76 64 356.7 63.95 356.65 63.84C356.6 63.73 356.58 63.55 356.58 63.29C356.58 63.15 356.59 63.04 356.6 62.95C356.61 62.86 356.63 62.78 356.65 62.73C356.67 62.67 356.7 62.63 356.74 62.61C356.77 62.58 356.81 62.57 356.85 62.57H360.01C360.09 62.57 360.16 62.58 360.22 62.61C360.28 62.64 360.33 62.68 360.38 62.73C360.43 62.78 360.46 62.85 360.49 62.92C360.51 63 360.53 63.08 360.53 63.18V66.91C360.53 67.05 360.51 67.18 360.45 67.29C360.4 67.4 360.29 67.48 360.14 67.55C359.98 67.61 359.79 67.68 359.56 67.74C359.33 67.81 359.09 67.87 358.84 67.91C358.59 67.96 358.34 68 358.09 68.02C357.84 68.04 357.58 68.06 357.32 68.06C356.57 68.06 355.9 67.95 355.31 67.74C354.72 67.52 354.22 67.21 353.81 66.8C353.4 66.39 353.08 65.9 352.87 65.31C352.65 64.73 352.54 64.06 352.54 63.32C352.54 62.55 352.66 61.86 352.89 61.25C353.12 60.64 353.45 60.12 353.87 59.69C354.3 59.26 354.81 58.94 355.41 58.71C356.01 58.48 356.68 58.37 357.42 58.37C357.83 58.37 358.19 58.4 358.53 58.45C358.86 58.51 359.15 58.57 359.4 58.65C359.65 58.73 359.86 58.82 360.02 58.91C360.19 59 360.3 59.08 360.36 59.15C360.42 59.22 360.47 59.31 360.5 59.44C360.54 59.56 360.55 59.74 360.55 59.98Z" fill="#144196"/>
    <path d="M373.47 67.56C373.44 67.64 373.41 67.71 373.38 67.76C373.34 67.81 373.28 67.85 373.19 67.88C373.1 67.91 372.99 67.92 372.84 67.93C372.69 67.94 372.5 67.94 372.25 67.94C372.06 67.94 371.89 67.94 371.75 67.94C371.61 67.93 371.5 67.93 371.4 67.92C371.31 67.91 371.23 67.9 371.17 67.88C371.11 67.86 371.06 67.84 371.02 67.81C370.98 67.78 370.95 67.75 370.93 67.71C370.91 67.67 370.89 67.62 370.87 67.56L368.08 59.26C368.02 59.09 367.99 58.95 367.98 58.85C367.97 58.75 367.99 58.67 368.05 58.62C368.11 58.57 368.21 58.54 368.36 58.53C368.5 58.52 368.71 58.51 368.97 58.51C369.19 58.51 369.37 58.51 369.49 58.52C369.62 58.53 369.71 58.55 369.78 58.57C369.85 58.59 369.89 58.63 369.92 58.68C369.94 58.73 369.97 58.79 370 58.86L372.28 66.08H372.29L374.53 58.89C374.55 58.81 374.57 58.74 374.6 58.69C374.63 58.64 374.68 58.6 374.75 58.57C374.82 58.54 374.92 58.52 375.05 58.51C375.18 58.5 375.36 58.5 375.59 58.5C375.81 58.5 375.98 58.51 376.11 58.52C376.23 58.53 376.32 58.57 376.36 58.62C376.41 58.68 376.42 58.75 376.4 58.86C376.38 58.96 376.35 59.1 376.29 59.26L373.47 67.56Z" fill="#144196"/>
    <path d="M386.38 67.18C386.44 67.35 386.47 67.49 386.49 67.59C386.5 67.69 386.48 67.77 386.43 67.82C386.38 67.87 386.28 67.9 386.15 67.91C386.02 67.92 385.83 67.93 385.59 67.93C385.34 67.93 385.15 67.93 385.02 67.92C384.88 67.91 384.78 67.9 384.7 67.88C384.63 67.86 384.58 67.83 384.55 67.79C384.52 67.75 384.5 67.7 384.48 67.64L383.85 65.76H380.33L379.74 67.59C379.72 67.66 379.7 67.71 379.66 67.76C379.63 67.81 379.58 67.84 379.51 67.87C379.44 67.9 379.34 67.91 379.21 67.92C379.08 67.93 378.91 67.93 378.71 67.93C378.49 67.93 378.31 67.92 378.19 67.91C378.06 67.9 377.98 67.86 377.93 67.81C377.88 67.76 377.86 67.68 377.88 67.58C377.9 67.48 377.93 67.34 377.99 67.17L380.88 58.86C380.91 58.78 380.94 58.71 380.98 58.66C381.02 58.61 381.08 58.57 381.16 58.54C381.24 58.51 381.36 58.5 381.51 58.49C381.66 58.48 381.86 58.48 382.1 58.48C382.38 58.48 382.61 58.48 382.78 58.49C382.95 58.5 383.08 58.51 383.17 58.54C383.26 58.57 383.33 58.61 383.37 58.66C383.41 58.71 383.45 58.79 383.48 58.88L386.38 67.18ZM382.08 60.31L380.75 64.29H383.41L382.08 60.31Z" fill="#144196"/>
    <path d="M396.9 67.23C396.9 67.34 396.88 67.44 396.84 67.53C396.8 67.62 396.75 67.69 396.68 67.75C396.62 67.81 396.54 67.85 396.45 67.88C396.36 67.91 396.27 67.92 396.18 67.92H395.37C395.2 67.92 395.05 67.9 394.93 67.87C394.81 67.84 394.69 67.77 394.59 67.69C394.49 67.6 394.39 67.48 394.29 67.33C394.19 67.18 394.08 66.98 393.96 66.74L391.63 62.36C391.49 62.1 391.36 61.82 391.22 61.52C391.08 61.22 390.96 60.92 390.84 60.64H390.82C390.84 60.99 390.85 61.33 390.86 61.68C390.87 62.03 390.88 62.38 390.88 62.75V67.65C390.88 67.7 390.87 67.74 390.84 67.78C390.81 67.82 390.77 67.85 390.7 67.88C390.63 67.91 390.55 67.93 390.43 67.94C390.32 67.95 390.18 67.96 390 67.96C389.83 67.96 389.69 67.95 389.58 67.94C389.47 67.93 389.38 67.91 389.32 67.88C389.26 67.86 389.21 67.82 389.19 67.78C389.17 67.74 389.15 67.7 389.15 67.65V59.23C389.15 59 389.22 58.83 389.35 58.72C389.48 58.61 389.65 58.55 389.84 58.55H390.86C391.04 58.55 391.2 58.57 391.32 58.6C391.44 58.63 391.56 58.68 391.66 58.76C391.76 58.83 391.85 58.93 391.94 59.06C392.03 59.19 392.12 59.35 392.21 59.53L394.03 62.95C394.14 63.16 394.24 63.36 394.34 63.56C394.44 63.76 394.55 63.96 394.64 64.16C394.74 64.36 394.83 64.56 394.92 64.75C395.01 64.94 395.1 65.14 395.19 65.33H395.2C395.19 64.99 395.17 64.64 395.17 64.27C395.16 63.9 395.16 63.55 395.16 63.22V58.82C395.16 58.77 395.17 58.73 395.2 58.69C395.23 58.65 395.28 58.62 395.34 58.59C395.41 58.56 395.5 58.54 395.61 58.53C395.72 58.52 395.86 58.51 396.04 58.51C396.2 58.51 396.34 58.52 396.45 58.53C396.56 58.54 396.65 58.56 396.71 58.59C396.77 58.62 396.81 58.65 396.84 58.69C396.86 58.73 396.88 58.77 396.88 58.82V67.23H396.9Z" fill="#144196"/>
    <path d="M265.03 79.75C265.03 79.89 265.02 80.01 265.01 80.11C265 80.21 264.98 80.29 264.96 80.35C264.94 80.41 264.91 80.45 264.88 80.48C264.85 80.5 264.81 80.52 264.77 80.52C264.71 80.52 264.61 80.48 264.47 80.39C264.33 80.3 264.14 80.21 263.91 80.11C263.68 80.01 263.4 79.91 263.08 79.83C262.76 79.74 262.39 79.7 261.96 79.7C261.51 79.7 261.1 79.78 260.73 79.93C260.36 80.09 260.05 80.31 259.79 80.6C259.53 80.89 259.33 81.23 259.19 81.63C259.05 82.03 258.98 82.48 258.98 82.96C258.98 83.5 259.05 83.97 259.19 84.38C259.33 84.79 259.53 85.13 259.79 85.41C260.05 85.68 260.35 85.89 260.71 86.03C261.07 86.17 261.47 86.24 261.9 86.24C262.11 86.24 262.32 86.22 262.53 86.17C262.74 86.12 262.93 86.05 263.11 85.95V83.78H261.33C261.24 83.78 261.18 83.72 261.13 83.62C261.08 83.51 261.06 83.33 261.06 83.07C261.06 82.94 261.07 82.82 261.08 82.73C261.09 82.64 261.11 82.56 261.13 82.51C261.15 82.45 261.19 82.41 261.22 82.39C261.26 82.36 261.29 82.35 261.34 82.35H264.5C264.58 82.35 264.65 82.36 264.71 82.39C264.77 82.42 264.82 82.46 264.87 82.51C264.91 82.56 264.95 82.63 264.97 82.7C264.99 82.78 265.01 82.86 265.01 82.96V86.69C265.01 86.83 264.98 86.96 264.93 87.07C264.88 87.18 264.78 87.27 264.62 87.33C264.46 87.39 264.27 87.46 264.04 87.52C263.81 87.59 263.57 87.65 263.32 87.69C263.07 87.74 262.82 87.78 262.57 87.8C262.32 87.82 262.06 87.84 261.81 87.84C261.06 87.84 260.39 87.73 259.8 87.52C259.21 87.31 258.71 86.99 258.3 86.58C257.89 86.17 257.58 85.68 257.36 85.09C257.14 84.5 257.04 83.84 257.04 83.09C257.04 82.32 257.16 81.63 257.39 81.02C257.62 80.41 257.95 79.89 258.37 79.46C258.8 79.03 259.31 78.71 259.91 78.48C260.51 78.25 261.18 78.14 261.92 78.14C262.33 78.14 262.69 78.17 263.03 78.22C263.36 78.28 263.65 78.34 263.9 78.42C264.15 78.5 264.35 78.59 264.52 78.68C264.68 78.77 264.8 78.85 264.87 78.92C264.93 78.99 264.98 79.08 265.01 79.21C265.01 79.33 265.03 79.51 265.03 79.75Z" fill="#144196"/>
    <path d="M273.99 86.92C273.99 87.06 273.98 87.18 273.97 87.27C273.96 87.36 273.94 87.44 273.92 87.5C273.89 87.56 273.87 87.6 273.83 87.63C273.79 87.65 273.75 87.67 273.71 87.67H269C268.84 87.67 268.71 87.62 268.6 87.53C268.49 87.44 268.44 87.28 268.44 87.07V78.9C268.44 78.69 268.49 78.54 268.6 78.44C268.71 78.35 268.84 78.3 269 78.3H273.68C273.72 78.3 273.76 78.31 273.8 78.33C273.83 78.35 273.86 78.4 273.89 78.46C273.91 78.52 273.93 78.6 273.94 78.69C273.95 78.78 273.96 78.9 273.96 79.05C273.96 79.18 273.95 79.3 273.94 79.39C273.93 79.48 273.91 79.56 273.89 79.62C273.87 79.68 273.84 79.72 273.8 79.75C273.77 79.78 273.73 79.79 273.68 79.79H270.33V82.08H273.16C273.2 82.08 273.24 82.09 273.28 82.12C273.32 82.15 273.35 82.19 273.37 82.24C273.39 82.3 273.41 82.37 273.42 82.46C273.43 82.56 273.44 82.67 273.44 82.8C273.44 82.94 273.44 83.05 273.42 83.15C273.41 83.24 273.39 83.31 273.37 83.37C273.35 83.42 273.32 83.46 273.28 83.49C273.24 83.51 273.2 83.52 273.16 83.52H270.33V86.16H273.71C273.75 86.16 273.79 86.17 273.83 86.2C273.87 86.23 273.9 86.27 273.92 86.33C273.94 86.39 273.96 86.46 273.97 86.56C273.99 86.66 273.99 86.78 273.99 86.92Z" fill="#144196"/>
    <path d="M284.88 87C284.88 87.11 284.86 87.21 284.82 87.3C284.78 87.39 284.73 87.46 284.66 87.52C284.6 87.58 284.52 87.62 284.43 87.65C284.34 87.68 284.25 87.69 284.16 87.69H283.35C283.18 87.69 283.03 87.67 282.91 87.64C282.79 87.61 282.67 87.55 282.57 87.46C282.47 87.37 282.36 87.25 282.27 87.1C282.17 86.95 282.06 86.75 281.94 86.51L279.61 82.13C279.47 81.87 279.34 81.59 279.2 81.28C279.06 80.98 278.94 80.69 278.82 80.4H278.81C278.83 80.75 278.84 81.09 278.85 81.44C278.86 81.78 278.87 82.14 278.87 82.51V87.41C278.87 87.46 278.86 87.5 278.83 87.54C278.8 87.58 278.76 87.61 278.69 87.64C278.63 87.66 278.54 87.69 278.43 87.7C278.32 87.72 278.18 87.72 278 87.72C277.83 87.72 277.69 87.71 277.58 87.7C277.47 87.69 277.38 87.66 277.32 87.64C277.26 87.61 277.21 87.58 277.19 87.54C277.17 87.5 277.15 87.46 277.15 87.41V78.99C277.15 78.76 277.21 78.59 277.35 78.48C277.48 78.37 277.64 78.31 277.84 78.31H278.86C279.04 78.31 279.2 78.33 279.32 78.36C279.45 78.39 279.56 78.44 279.66 78.52C279.76 78.59 279.85 78.69 279.94 78.82C280.03 78.95 280.12 79.11 280.21 79.29L282.03 82.71C282.14 82.92 282.24 83.12 282.35 83.32C282.45 83.52 282.55 83.72 282.65 83.92C282.75 84.12 282.84 84.32 282.93 84.51C283.02 84.7 283.11 84.9 283.2 85.09H283.21C283.19 84.75 283.18 84.4 283.18 84.03C283.17 83.66 283.17 83.31 283.17 82.98V78.59C283.17 78.54 283.18 78.5 283.21 78.46C283.24 78.42 283.29 78.39 283.35 78.36C283.42 78.33 283.51 78.31 283.62 78.3C283.73 78.29 283.87 78.28 284.05 78.28C284.22 78.28 284.35 78.29 284.46 78.3C284.57 78.31 284.66 78.33 284.72 78.36C284.78 78.39 284.82 78.42 284.85 78.46C284.87 78.5 284.89 78.54 284.89 78.59V87H284.88Z" fill="#144196"/>
    <path d="M294.4 86.92C294.4 87.06 294.39 87.18 294.38 87.27C294.37 87.36 294.35 87.44 294.33 87.5C294.3 87.56 294.27 87.6 294.24 87.63C294.2 87.65 294.16 87.67 294.12 87.67H289.41C289.25 87.67 289.12 87.62 289.01 87.53C288.9 87.44 288.85 87.28 288.85 87.07V78.9C288.85 78.69 288.9 78.54 289.01 78.44C289.12 78.35 289.25 78.3 289.41 78.3H294.09C294.13 78.3 294.17 78.31 294.21 78.33C294.24 78.35 294.27 78.4 294.3 78.46C294.32 78.52 294.34 78.6 294.35 78.69C294.36 78.78 294.37 78.9 294.37 79.05C294.37 79.18 294.36 79.3 294.35 79.39C294.34 79.48 294.32 79.56 294.3 79.62C294.28 79.68 294.25 79.72 294.21 79.75C294.18 79.78 294.14 79.79 294.09 79.79H290.75V82.08H293.58C293.62 82.08 293.66 82.09 293.7 82.12C293.74 82.15 293.77 82.19 293.79 82.24C293.81 82.3 293.83 82.37 293.84 82.46C293.85 82.56 293.86 82.67 293.86 82.8C293.86 82.94 293.86 83.05 293.84 83.15C293.83 83.24 293.81 83.31 293.79 83.37C293.77 83.42 293.74 83.46 293.7 83.49C293.67 83.51 293.62 83.52 293.58 83.52H290.75V86.16H294.12C294.16 86.16 294.2 86.17 294.24 86.2C294.28 86.23 294.31 86.27 294.33 86.33C294.35 86.39 294.37 86.46 294.38 86.56C294.4 86.66 294.4 86.78 294.4 86.92Z" fill="#144196"/>
    <path d="M303.12 86.92C303.12 87.06 303.11 87.18 303.1 87.27C303.09 87.36 303.07 87.44 303.04 87.5C303.02 87.56 302.99 87.6 302.95 87.63C302.91 87.65 302.87 87.67 302.83 87.67H298.13C297.97 87.67 297.84 87.62 297.73 87.53C297.62 87.44 297.57 87.28 297.57 87.07V78.9C297.57 78.69 297.62 78.54 297.73 78.44C297.84 78.35 297.97 78.3 298.13 78.3H302.81C302.85 78.3 302.89 78.31 302.93 78.33C302.96 78.35 302.99 78.4 303.02 78.46C303.04 78.52 303.06 78.6 303.07 78.69C303.08 78.78 303.09 78.9 303.09 79.05C303.09 79.18 303.08 79.3 303.07 79.39C303.06 79.48 303.04 79.56 303.02 79.62C303 79.68 302.97 79.72 302.93 79.75C302.9 79.78 302.86 79.79 302.81 79.79H299.47V82.08H302.3C302.34 82.08 302.39 82.09 302.42 82.12C302.46 82.15 302.49 82.19 302.51 82.24C302.53 82.3 302.55 82.37 302.56 82.46C302.57 82.56 302.58 82.67 302.58 82.8C302.58 82.94 302.58 83.05 302.56 83.15C302.55 83.24 302.53 83.31 302.51 83.37C302.48 83.42 302.45 83.46 302.42 83.49C302.39 83.51 302.34 83.52 302.3 83.52H299.47V86.16H302.84C302.89 86.16 302.93 86.17 302.96 86.2C303 86.23 303.02 86.27 303.05 86.33C303.08 86.39 303.09 86.46 303.11 86.56C303.11 86.66 303.12 86.78 303.12 86.92Z" fill="#144196"/>
    <path d="M311.69 84.85C311.69 85.34 311.6 85.77 311.42 86.14C311.24 86.51 310.99 86.82 310.67 87.07C310.36 87.32 309.99 87.51 309.57 87.63C309.15 87.76 308.7 87.82 308.22 87.82C307.9 87.82 307.6 87.79 307.32 87.74C307.04 87.69 306.8 87.62 306.59 87.55C306.38 87.47 306.2 87.4 306.06 87.32C305.92 87.24 305.81 87.17 305.75 87.1C305.69 87.04 305.64 86.95 305.61 86.83C305.58 86.71 305.57 86.54 305.57 86.32C305.57 86.17 305.58 86.04 305.58 85.94C305.59 85.84 305.61 85.76 305.63 85.7C305.65 85.64 305.68 85.59 305.72 85.57C305.76 85.54 305.8 85.53 305.85 85.53C305.92 85.53 306.01 85.57 306.14 85.65C306.26 85.73 306.42 85.82 306.62 85.91C306.81 86.01 307.04 86.1 307.31 86.17C307.58 86.25 307.89 86.29 308.24 86.29C308.47 86.29 308.68 86.26 308.86 86.21C309.04 86.15 309.2 86.08 309.33 85.97C309.46 85.87 309.55 85.74 309.62 85.59C309.69 85.44 309.72 85.27 309.72 85.09C309.72 84.88 309.66 84.7 309.54 84.54C309.42 84.39 309.27 84.25 309.09 84.13C308.91 84.01 308.69 83.9 308.46 83.8C308.22 83.7 307.98 83.59 307.73 83.47C307.48 83.35 307.23 83.22 307 83.07C306.76 82.93 306.55 82.75 306.37 82.54C306.19 82.33 306.03 82.09 305.92 81.81C305.8 81.53 305.75 81.19 305.75 80.8C305.75 80.35 305.83 79.96 306 79.62C306.16 79.28 306.39 79 306.67 78.77C306.95 78.55 307.29 78.38 307.67 78.27C308.05 78.16 308.46 78.1 308.89 78.1C309.11 78.1 309.33 78.12 309.56 78.15C309.78 78.18 309.99 78.23 310.18 78.29C310.37 78.35 310.54 78.41 310.69 78.49C310.84 78.56 310.94 78.62 310.99 78.67C311.04 78.72 311.07 78.76 311.09 78.79C311.11 78.82 311.12 78.87 311.13 78.92C311.14 78.98 311.15 79.05 311.16 79.13C311.17 79.21 311.17 79.32 311.17 79.45C311.17 79.59 311.17 79.71 311.16 79.8C311.15 79.9 311.14 79.98 311.12 80.04C311.1 80.1 311.08 80.15 311.05 80.18C311.02 80.21 310.98 80.22 310.92 80.22C310.87 80.22 310.78 80.19 310.67 80.12C310.55 80.05 310.41 79.98 310.24 79.9C310.07 79.82 309.88 79.75 309.65 79.69C309.43 79.62 309.18 79.59 308.92 79.59C308.71 79.59 308.53 79.61 308.38 79.67C308.23 79.72 308.1 79.79 307.99 79.88C307.89 79.97 307.81 80.08 307.76 80.2C307.71 80.32 307.68 80.46 307.68 80.6C307.68 80.81 307.74 80.99 307.85 81.14C307.96 81.29 308.11 81.43 308.3 81.55C308.49 81.67 308.71 81.78 308.95 81.88C309.19 81.98 309.44 82.09 309.69 82.21C309.94 82.32 310.19 82.46 310.43 82.6C310.67 82.75 310.89 82.92 311.07 83.13C311.26 83.34 311.41 83.57 311.52 83.85C311.63 84.15 311.69 84.48 311.69 84.85Z" fill="#144196"/>
    <path d="M325.99 87.4C325.99 87.45 325.97 87.49 325.95 87.53C325.92 87.57 325.88 87.6 325.81 87.62C325.74 87.64 325.65 87.66 325.53 87.68C325.42 87.7 325.27 87.7 325.09 87.7C324.92 87.7 324.77 87.69 324.66 87.68C324.54 87.67 324.45 87.65 324.38 87.62C324.31 87.6 324.26 87.57 324.23 87.53C324.2 87.49 324.19 87.45 324.19 87.4V79.78H324.17L321.46 87.4C321.44 87.46 321.41 87.51 321.37 87.55C321.33 87.59 321.27 87.63 321.19 87.65C321.11 87.67 321.02 87.69 320.9 87.7C320.78 87.71 320.64 87.71 320.48 87.71C320.32 87.71 320.17 87.7 320.06 87.69C319.94 87.68 319.85 87.66 319.77 87.63C319.69 87.6 319.64 87.57 319.59 87.53C319.55 87.49 319.52 87.44 319.5 87.39L316.88 79.77H316.86V87.39C316.86 87.44 316.85 87.48 316.82 87.52C316.79 87.56 316.75 87.59 316.67 87.61C316.6 87.63 316.5 87.65 316.39 87.67C316.28 87.69 316.13 87.69 315.95 87.69C315.78 87.69 315.63 87.68 315.52 87.67C315.4 87.66 315.31 87.64 315.24 87.61C315.17 87.59 315.12 87.56 315.09 87.52C315.06 87.48 315.05 87.44 315.05 87.39V79.04C315.05 78.79 315.11 78.6 315.25 78.48C315.38 78.35 315.55 78.28 315.77 78.28H317.02C317.24 78.28 317.43 78.3 317.59 78.34C317.75 78.37 317.89 78.44 318 78.52C318.11 78.6 318.21 78.71 318.29 78.85C318.37 78.99 318.44 79.16 318.5 79.36L320.52 84.94H320.55L322.65 79.37C322.71 79.17 322.78 79 322.86 78.86C322.93 78.72 323.02 78.61 323.12 78.52C323.22 78.43 323.34 78.37 323.47 78.34C323.6 78.3 323.76 78.28 323.94 78.28H325.22C325.35 78.28 325.46 78.3 325.56 78.33C325.66 78.36 325.73 78.41 325.79 78.48C325.85 78.54 325.9 78.63 325.93 78.72C325.96 78.82 325.98 78.92 325.98 79.04V87.4H325.99Z" fill="#144196"/>
    <path d="M331.87 87.4C331.87 87.45 331.86 87.49 331.82 87.53C331.79 87.57 331.74 87.6 331.67 87.62C331.6 87.64 331.5 87.66 331.38 87.68C331.26 87.7 331.11 87.7 330.92 87.7C330.74 87.7 330.58 87.69 330.46 87.68C330.34 87.67 330.24 87.65 330.17 87.62C330.1 87.6 330.05 87.57 330.01 87.53C329.98 87.49 329.96 87.45 329.96 87.4V78.55C329.96 78.5 329.98 78.46 330.01 78.42C330.04 78.38 330.1 78.35 330.17 78.33C330.25 78.31 330.34 78.29 330.46 78.27C330.58 78.26 330.73 78.25 330.92 78.25C331.11 78.25 331.26 78.26 331.38 78.27C331.5 78.28 331.6 78.3 331.67 78.33C331.74 78.35 331.79 78.39 331.82 78.42C331.85 78.46 331.87 78.5 331.87 78.55V87.4Z" fill="#144196"/>
    <path d="M343.62 82.84C343.62 83.7 343.51 84.43 343.28 85.04C343.06 85.65 342.73 86.15 342.31 86.53C341.89 86.92 341.38 87.2 340.78 87.38C340.18 87.56 339.46 87.65 338.63 87.65H336.39C336.23 87.65 336.1 87.6 335.99 87.51C335.88 87.42 335.83 87.26 335.83 87.05V78.9C335.83 78.69 335.89 78.54 335.99 78.44C336.1 78.35 336.23 78.3 336.39 78.3H338.79C339.63 78.3 340.33 78.4 340.92 78.59C341.5 78.79 341.99 79.07 342.39 79.46C342.79 79.84 343.09 80.32 343.3 80.88C343.51 81.44 343.62 82.1 343.62 82.84ZM341.65 82.91C341.65 82.47 341.6 82.05 341.49 81.67C341.39 81.29 341.22 80.96 340.99 80.68C340.76 80.4 340.47 80.18 340.11 80.02C339.75 79.86 339.28 79.79 338.69 79.79H337.73V86.16H338.72C339.24 86.16 339.68 86.09 340.04 85.96C340.4 85.83 340.69 85.62 340.93 85.35C341.17 85.08 341.35 84.74 341.47 84.33C341.59 83.92 341.65 83.45 341.65 82.91Z" fill="#144196"/>
    <path d="M354.45 82.84C354.45 83.7 354.34 84.43 354.11 85.04C353.89 85.65 353.56 86.15 353.14 86.53C352.72 86.92 352.21 87.2 351.61 87.38C351.01 87.56 350.29 87.65 349.46 87.65H347.22C347.06 87.65 346.93 87.6 346.82 87.51C346.71 87.42 346.66 87.26 346.66 87.05V78.9C346.66 78.69 346.72 78.54 346.82 78.44C346.93 78.35 347.06 78.3 347.22 78.3H349.62C350.46 78.3 351.16 78.4 351.75 78.59C352.33 78.79 352.82 79.07 353.22 79.46C353.62 79.84 353.92 80.32 354.13 80.88C354.34 81.44 354.45 82.1 354.45 82.84ZM352.48 82.91C352.48 82.47 352.43 82.05 352.32 81.67C352.22 81.29 352.05 80.96 351.82 80.68C351.59 80.4 351.3 80.18 350.94 80.02C350.58 79.86 350.11 79.79 349.52 79.79H348.56V86.16H349.55C350.07 86.16 350.51 86.09 350.87 85.96C351.23 85.83 351.52 85.62 351.76 85.35C352 85.08 352.18 84.74 352.3 84.33C352.42 83.92 352.48 83.45 352.48 82.91Z" fill="#144196"/>
    <path d="M363.04 86.92C363.04 87.06 363.03 87.18 363.02 87.27C363.01 87.36 362.99 87.44 362.97 87.5C362.95 87.56 362.91 87.6 362.88 87.63C362.84 87.65 362.8 87.67 362.76 87.67H358.05C357.89 87.67 357.76 87.62 357.65 87.53C357.54 87.44 357.49 87.28 357.49 87.07V78.9C357.49 78.69 357.54 78.54 357.65 78.44C357.76 78.35 357.89 78.3 358.05 78.3H362.73C362.77 78.3 362.81 78.31 362.85 78.33C362.88 78.35 362.91 78.4 362.94 78.46C362.96 78.52 362.98 78.6 362.99 78.69C363 78.78 363.01 78.9 363.01 79.05C363.01 79.18 363 79.3 362.99 79.39C362.98 79.48 362.96 79.56 362.94 79.62C362.92 79.68 362.89 79.72 362.85 79.75C362.82 79.78 362.78 79.79 362.73 79.79H359.38V82.08H362.21C362.25 82.08 362.29 82.09 362.33 82.12C362.37 82.15 362.4 82.19 362.42 82.24C362.44 82.3 362.46 82.37 362.47 82.46C362.48 82.56 362.49 82.67 362.49 82.8C362.49 82.94 362.49 83.05 362.47 83.15C362.46 83.24 362.44 83.31 362.42 83.37C362.4 83.42 362.36 83.46 362.33 83.49C362.29 83.51 362.25 83.52 362.21 83.52H359.38V86.16H362.75C362.79 86.16 362.83 86.17 362.87 86.2C362.9 86.23 362.94 86.27 362.96 86.33C362.98 86.39 363 86.46 363.01 86.56C363.04 86.66 363.04 86.78 363.04 86.92Z" fill="#144196"/>
    <path d="M371.35 86.87C371.35 87.01 371.35 87.14 371.33 87.23C371.32 87.33 371.3 87.41 371.28 87.48C371.26 87.54 371.23 87.59 371.19 87.62C371.15 87.65 371.11 87.67 371.06 87.67H366.77C366.61 87.67 366.48 87.62 366.37 87.53C366.26 87.44 366.21 87.28 366.21 87.07V78.56C366.21 78.51 366.23 78.47 366.26 78.43C366.29 78.39 366.34 78.36 366.41 78.34C366.48 78.32 366.58 78.3 366.7 78.28C366.82 78.27 366.98 78.26 367.16 78.26C367.35 78.26 367.5 78.27 367.62 78.28C367.74 78.29 367.84 78.31 367.91 78.34C367.98 78.36 368.03 78.4 368.07 78.43C368.1 78.47 368.12 78.51 368.12 78.56V86.1H371.07C371.12 86.1 371.16 86.11 371.2 86.14C371.23 86.17 371.26 86.21 371.29 86.27C371.31 86.33 371.33 86.41 371.34 86.51C371.35 86.6 371.35 86.72 371.35 86.87Z" fill="#144196"/>
    <path d="M379.51 86.92C379.51 87.06 379.5 87.18 379.49 87.27C379.48 87.36 379.46 87.44 379.44 87.5C379.41 87.56 379.38 87.6 379.35 87.63C379.31 87.65 379.27 87.67 379.23 87.67H374.53C374.37 87.67 374.23 87.62 374.13 87.53C374.02 87.44 373.96 87.28 373.96 87.07V78.9C373.96 78.69 374.02 78.54 374.13 78.44C374.24 78.35 374.37 78.3 374.53 78.3H379.2C379.25 78.3 379.28 78.31 379.32 78.33C379.36 78.35 379.38 78.4 379.41 78.46C379.44 78.52 379.45 78.6 379.47 78.69C379.48 78.78 379.49 78.9 379.49 79.05C379.49 79.18 379.48 79.3 379.47 79.39C379.46 79.48 379.44 79.56 379.41 79.62C379.39 79.68 379.36 79.72 379.32 79.75C379.29 79.78 379.25 79.79 379.2 79.79H375.86V82.08H378.69C378.73 82.08 378.77 82.09 378.81 82.12C378.85 82.15 378.88 82.19 378.9 82.24C378.92 82.3 378.94 82.37 378.95 82.46C378.96 82.56 378.97 82.67 378.97 82.8C378.97 82.94 378.96 83.05 378.95 83.15C378.94 83.24 378.92 83.31 378.9 83.37C378.88 83.42 378.85 83.46 378.81 83.49C378.77 83.51 378.73 83.52 378.69 83.52H375.86V86.16H379.23C379.27 86.16 379.31 86.17 379.35 86.2C379.38 86.23 379.42 86.27 379.44 86.33C379.46 86.39 379.48 86.46 379.49 86.56C379.51 86.66 379.51 86.78 379.51 86.92Z" fill="#144196"/>
    <path d="M390.4 87C390.4 87.11 390.38 87.21 390.34 87.3C390.3 87.39 390.25 87.46 390.19 87.52C390.12 87.58 390.05 87.62 389.96 87.65C389.87 87.68 389.78 87.69 389.69 87.69H388.88C388.71 87.69 388.57 87.67 388.44 87.64C388.32 87.61 388.2 87.55 388.1 87.46C387.99 87.37 387.9 87.25 387.8 87.1C387.7 86.95 387.59 86.75 387.47 86.51L385.14 82.13C385.01 81.87 384.87 81.59 384.73 81.28C384.59 80.98 384.46 80.69 384.35 80.4H384.33C384.35 80.75 384.36 81.09 384.37 81.44C384.38 81.78 384.38 82.14 384.38 82.51V87.41C384.38 87.46 384.37 87.5 384.34 87.54C384.31 87.58 384.27 87.61 384.2 87.64C384.13 87.66 384.05 87.69 383.93 87.7C383.82 87.72 383.68 87.72 383.5 87.72C383.33 87.72 383.19 87.71 383.08 87.7C382.97 87.69 382.88 87.66 382.82 87.64C382.76 87.61 382.71 87.58 382.69 87.54C382.67 87.5 382.65 87.46 382.65 87.41V78.99C382.65 78.76 382.72 78.59 382.85 78.48C382.98 78.37 383.15 78.31 383.34 78.31H384.36C384.54 78.31 384.7 78.33 384.82 78.36C384.95 78.39 385.06 78.44 385.16 78.52C385.26 78.59 385.35 78.69 385.44 78.82C385.53 78.95 385.62 79.11 385.71 79.29L387.53 82.71C387.64 82.92 387.74 83.12 387.85 83.32C387.95 83.52 388.05 83.72 388.15 83.92C388.25 84.12 388.34 84.32 388.43 84.51C388.52 84.7 388.61 84.9 388.7 85.09H388.71C388.7 84.75 388.68 84.4 388.68 84.03C388.67 83.66 388.67 83.31 388.67 82.98V78.59C388.67 78.54 388.68 78.5 388.71 78.46C388.74 78.42 388.79 78.39 388.85 78.36C388.92 78.33 389.01 78.31 389.12 78.3C389.23 78.29 389.37 78.28 389.55 78.28C389.71 78.28 389.85 78.29 389.96 78.3C390.07 78.31 390.16 78.33 390.22 78.36C390.28 78.39 390.32 78.42 390.35 78.46C390.37 78.5 390.39 78.54 390.39 78.59V87H390.4Z" fill="#144196"/>
</svg>
