<?xml version="1.0" encoding="utf-8"?>
<svg version="1.1" xmlns="http://www.w3.org/2000/svg" xmlns:xlink="http://www.w3.org/1999/xlink" viewBox="0 0 260 80">
	<path fill="#E17000" d="M106.72,48.05l-0.19,0.23c-4.94,6.19-13.77,8.6-20.98,5.72c-3.35-1.34-11.06-5.96-9.94-19.27l0.07-1.08
		c0.08-0.75,0.14-1.96,0.25-3.05c0.03-0.24,0.06-0.46,0.07-0.65c0.02-0.26,0.03-0.5,0.03-0.72c0-1.07-0.33-1.91-0.98-2.52
		c-0.66-0.61-1.57-0.92-2.73-0.92c-1.3,0-2.56,0.26-3.79,0.78c-1.23,0.52-2.62,1.38-4.18,2.59v-0.23c0-1-0.3-1.75-0.89-2.25
		c-0.6-0.51-1.48-0.76-2.64-0.76c-1.21,0-2.41,0.26-3.61,0.79c-1.2,0.53-2.46,1.34-3.79,2.45l0.45-3.33l-8.49,1.11l-0.41,2.74
		l2.88,0.41l-2.78,17.95h5.43l2.35-15.53c1.18-0.68,2.14-1.17,2.89-1.46c0.75-0.29,1.38-0.44,1.89-0.44c0.41,0,0.74,0.1,0.98,0.31
		c0.25,0.2,0.37,0.49,0.37,0.85c-0.02,0.17-0.03,0.33-0.03,0.5c-0.01,0.17-0.03,0.38-0.08,0.63l-2.4,15.15h5.28l2.51-15.62
		c1.15-0.68,2.09-1.17,2.84-1.46c0.75-0.29,1.39-0.44,1.94-0.44c0.41,0,0.72,0.1,0.95,0.31c0.23,0.2,0.34,0.49,0.34,0.85
		c0,0.04,0,0.1,0,0.14l-0.49,3.81C68.71,45.82,73.28,53.9,82,57.19c2.43,0.92,5.04,1.38,7.68,1.38c2.06,0,4.14-0.28,6.16-0.85
		c4.92-1.39,9.07-4.33,11.98-8.51l0.18-0.26L106.72,48.05z"/>
	<path fill="#01689B" d="M92.69,48.31c5.98,0,10.82-4.84,10.82-10.82c0-6.01-4.84-10.85-10.85-10.85c-5.98,0-10.82,4.84-10.82,10.85
		C81.84,43.47,86.68,48.31,92.69,48.31 M92.66,31.79c3.16,0,5.58,2.51,5.58,5.7c0,3.19-2.39,5.67-5.55,5.67
		c-3.16,0-5.58-2.48-5.58-5.67C87.11,34.3,89.53,31.79,92.66,31.79"/>
	<path fill="#01689B" d="M18.94,30.18c-1.46-1.49-4.03-3.53-7.93-3.53c-5.92,0-10.91,4.65-10.91,10.85
		c0,6.26,5.08,10.82,10.91,10.82c3.81,0,6.57-2.26,8-3.81c-0.31-0.31-3.29-3.35-3.6-3.66c-1.02,1.27-2.6,2.29-4.4,2.29
		c-3.1,0-5.58-2.63-5.58-5.64c0-3.16,2.54-5.67,5.58-5.67c2.39,0,3.53,1.36,4.31,2.11C15.72,33.53,18.7,30.43,18.94,30.18
		 M41.44,30.18c-1.46-1.49-4.03-3.53-7.93-3.53c-5.92,0-10.91,4.65-10.91,10.85c0,6.26,5.08,10.82,10.91,10.82
		c3.81,0,6.57-2.26,8-3.81c-0.31-0.31-3.29-3.35-3.6-3.66c-1.02,1.27-2.6,2.29-4.4,2.29c-3.1,0-5.58-2.63-5.58-5.64
		c0-3.16,2.54-5.67,5.58-5.67c2.39,0,3.53,1.36,4.31,2.11C38.22,33.53,41.19,30.43,41.44,30.18"/>
	<path fill="#E17000" d="M112.11,24.38c-3.91-4.52-10.03-7.23-16.36-7.23c-5.55,0-10.85,2.08-14.92,5.86l-0.24,0.22l1.06,1.07
		l0.22-0.19c3.25-2.7,7.44-4.19,11.78-4.19c5.29,0,10.14,2.12,13.3,5.81c3.07,3.59,4.25,8.31,3.41,13.66l-0.06,0.36l0.37,0
		c0,0,3.12,0.01,5.34,0.01h0.27l0.04-0.27C117.17,33.79,115.72,28.55,112.11,24.38"/>
</svg>
