<svg xmlns="http://www.w3.org/2000/svg" viewBox="0 0 277 64"><path d="M121.76,5.18h4.87a22.64,22.64,0,0,1,3.36.34,9,9,0,0,1,2.51,1.34,9.6,9.6,0,0,1,2.86,7.76,20.45,20.45,0,0,1-.34,3.2,14.43,14.43,0,0,1-.84,2.53,4.85,4.85,0,0,1-1.68,2,6.13,6.13,0,0,1-1.67,1.18,8.8,8.8,0,0,1-1.85.67,11,11,0,0,1-2.35.17h-4.87a2.47,2.47,0,0,1-1.51-.34,1.1,1.1,0,0,1-.67-.84,6.27,6.27,0,0,1-.17-1.69V7.37a3.44,3.44,0,0,1,.5-1.85A2.32,2.32,0,0,1,121.76,5.18Zm1.51,3V21h2.85a4.65,4.65,0,0,0,1.52-.17,4.22,4.22,0,0,0,1.17-.34,1.47,1.47,0,0,0,1-.5,7.5,7.5,0,0,0,1.84-5.57,9,9,0,0,0-.83-4.21,2.87,2.87,0,0,0-2.19-1.69A7.73,7.73,0,0,0,125.79,8l-2.52.17Z" style="fill:#1d1d1b"/><path d="M146.94,4.84A10.59,10.59,0,0,1,152,6a8.73,8.73,0,0,1,3.19,3.37,11.37,11.37,0,0,1,1.18,5.23,11.27,11.27,0,0,1-.68,4.05,11.13,11.13,0,0,1-1.84,3,8.06,8.06,0,0,1-2.86,2,10.65,10.65,0,0,1-7.89,0,7.66,7.66,0,0,1-4.53-5.23,10,10,0,0,1-.67-3.88,11.48,11.48,0,0,1,.67-4,7,7,0,0,1,1.85-3,8.67,8.67,0,0,1,2.85-2A6.57,6.57,0,0,1,146.94,4.84Zm5.54,9.78a8.22,8.22,0,0,0-.67-3.54A4.3,4.3,0,0,0,150,8.72a6.79,6.79,0,0,0-3-.84,9.67,9.67,0,0,0-2.18.33,6.34,6.34,0,0,0-1.68,1.18,9,9,0,0,0-1.17,2.2,5.35,5.35,0,0,0-.34,2.86,18.49,18.49,0,0,0,.34,3,4,4,0,0,0,1.17,2.19A6.92,6.92,0,0,0,144.76,21a3.21,3.21,0,0,0,2.18.33,4.88,4.88,0,0,0,2.69-.67,4.71,4.71,0,0,0,1.85-2.19A8.36,8.36,0,0,0,152.48,14.62Z" style="fill:#1d1d1b"/><path d="M166.76,16.81h-3.53v5.4a2.87,2.87,0,0,1-.5,1.68,2.07,2.07,0,0,1-1.35.68,1.52,1.52,0,0,1-1.34-.68,3.2,3.2,0,0,1-.5-1.68V7.37a2.5,2.5,0,0,1,.67-1.85A3.32,3.32,0,0,1,162.05,5h4.87a11.27,11.27,0,0,1,3.36.34A9.2,9.2,0,0,1,172,6.53a7.37,7.37,0,0,1,1.34,1.85,4.39,4.39,0,0,1,.34,2.53,4.84,4.84,0,0,1-1.85,4.38A7.41,7.41,0,0,1,166.76,16.81Zm-1-8.77h-2.52V14h2.52a4.89,4.89,0,0,0,2.18-.34,3.73,3.73,0,0,0,1.34-.84,3.25,3.25,0,0,0,.51-1.69,3,3,0,0,0-.67-2A4.07,4.07,0,0,0,165.75,8Z" style="fill:#1d1d1b"/><path d="M177,22.21V7.2a2.87,2.87,0,0,1,.5-1.68,1.67,1.67,0,0,1,2.69,0,3.29,3.29,0,0,1,.5,1.68v15a2.87,2.87,0,0,1-.5,1.68,2.07,2.07,0,0,1-1.35.68,1.52,1.52,0,0,1-1.34-.68A3.29,3.29,0,0,1,177,22.21Z" style="fill:#1d1d1b"/><path d="M190.09,7.2l7.22,11.13V7a3.21,3.21,0,0,1,.51-1.68A1.3,1.3,0,0,1,199,4.84a1.91,1.91,0,0,1,1.35.51,2.87,2.87,0,0,1,.5,1.68V21.87c0,1.69-.67,2.53-2,2.53-.33,0-.67,0-.83-.17-.34-.17-.51-.34-.84-.5l-.68-.68-.67-.84-7.22-11V22.38a3.29,3.29,0,0,1-.5,1.68,1.9,1.9,0,0,1-1.34.51,1.53,1.53,0,0,1-1.35-.68,2.87,2.87,0,0,1-.5-1.68V7.54a3.26,3.26,0,0,1,.17-1.35,2,2,0,0,1,.84-.84,2.21,2.21,0,0,1,1.34-.51,7.11,7.11,0,0,1,.84.17c.17.17.5.17.67.34l.67.67A2.79,2.79,0,0,0,190.09,7.2Z" style="fill:#1d1d1b"/><path d="M222.16,16.48v3.7a3.24,3.24,0,0,1-.17,1.18c-.16.34-.33.51-.5.85-.17.17-.67.34-1,.67a10.51,10.51,0,0,1-3.19,1.35,24.86,24.86,0,0,1-3.35.34,9.78,9.78,0,0,1-3.87-.68,6,6,0,0,1-3-2,6,6,0,0,1-2-3,11.26,11.26,0,0,1-.67-4.05,11.26,11.26,0,0,1,.67-4,8.72,8.72,0,0,1,1.84-3.2,10.33,10.33,0,0,1,3.19-2,10.07,10.07,0,0,1,4-.68,11.46,11.46,0,0,1,3.36.51,6.38,6.38,0,0,1,2.35,1.35,6.52,6.52,0,0,1,1.35,1.68,2.78,2.78,0,0,1,.5,1.52,1.55,1.55,0,0,1-.5,1.18,2.23,2.23,0,0,1-1.35.51c-.33,0-.5-.17-.84-.17-.17-.17-.5-.34-.67-.51-.5-.67-.84-1.35-1.17-1.69a2.66,2.66,0,0,0-1.35-1,4.67,4.67,0,0,0-2.18-.33,5.85,5.85,0,0,0-2.35.5,4.91,4.91,0,0,0-1.85,1.35,9.16,9.16,0,0,0-1.17,2.19,5.4,5.4,0,0,0-.34,2.87,6.78,6.78,0,0,0,1.51,5.06,5.72,5.72,0,0,0,4.2,1.85,12.82,12.82,0,0,0,2.52-.34,13.21,13.21,0,0,0,2.35-1v-3.2h-2.86a3,3,0,0,1-1.67-.34,1.3,1.3,0,0,1-.51-1.18,1.19,1.19,0,0,1,.51-1,1.09,1.09,0,0,1,1.17-.34h4.37a3.64,3.64,0,0,1,1.34.17,1.12,1.12,0,0,1,.84.68C222,15.46,222,16,222.16,16.48Z" style="fill:#1d1d1b"/><path d="M131.43,54.57l-1-2.19h-7.55L122,54.91a10.19,10.19,0,0,1-.84,2,1.52,1.52,0,0,1-1.18.51,1.9,1.9,0,0,1-1.34-.51,2.07,2.07,0,0,1-.67-1.52,1.52,1.52,0,0,1,.17-.84,9,9,0,0,0,.33-1.18l4.87-12.31a7.66,7.66,0,0,0,.51-1.18c.16-.34.33-.84.5-1.18a4.41,4.41,0,0,1,1-.84,3.11,3.11,0,0,1,1.34-.34,3.9,3.9,0,0,1,1.34.34,2,2,0,0,1,.84.84l.51,1a9.55,9.55,0,0,0,.5,1.35l4.87,12.31a9.57,9.57,0,0,1,.67,2,1.53,1.53,0,0,1-.5,1.18,1.91,1.91,0,0,1-1.35.51,1.52,1.52,0,0,1-.84-.17c-.16,0-.33-.17-.5-.34-.17-.33-.33-.5-.5-.84A2.42,2.42,0,0,1,131.43,54.57Zm-7.55-5.06h5.7l-2.85-7.92Z" style="fill:#1d1d1b"/><path d="M137.14,49V39.73a2.87,2.87,0,0,1,.5-1.68,1.82,1.82,0,0,1,1.51-.68,1.53,1.53,0,0,1,1.35.68,3.29,3.29,0,0,1,.5,1.68v9.45a14.56,14.56,0,0,0,.34,2.69,3.89,3.89,0,0,0,1.17,1.69,4.68,4.68,0,0,0,2.52.67,3.79,3.79,0,0,0,3.19-1.18,5.79,5.79,0,0,0,.84-3.71V39.73a2.87,2.87,0,0,1,.5-1.68,1.64,1.64,0,0,1,1.52-.68,1.52,1.52,0,0,1,1.34.68,3.29,3.29,0,0,1,.5,1.68V49a29,29,0,0,1-.33,3.71,6.61,6.61,0,0,1-1.68,2.69,4.74,4.74,0,0,1-2.35,1.35,6.64,6.64,0,0,1-3.19.34,13.87,13.87,0,0,1-3.7-.51,6.11,6.11,0,0,1-2.52-1.34,4.69,4.69,0,0,1-1.34-2.53A10.32,10.32,0,0,1,137.14,49Z" style="fill:#1d1d1b"/><path d="M169.21,40.91H165V54.74a2.93,2.93,0,0,1-.5,1.69,2.11,2.11,0,0,1-1.35.67,1.54,1.54,0,0,1-1.34-.67,3.33,3.33,0,0,1-.5-1.69V40.91h-4.2a3.11,3.11,0,0,1-1.34-.33,1.54,1.54,0,0,1-.51-1.18,1.51,1.51,0,0,1,.51-1.18,1.29,1.29,0,0,1,1.34-.34h12.09a4.84,4.84,0,0,1,1.51.34,1.5,1.5,0,0,1,.5,1.18,1.53,1.53,0,0,1-.5,1.18A1.62,1.62,0,0,1,169.21,40.91Z" style="fill:#1d1d1b"/><path d="M181.3,37.54a10.55,10.55,0,0,1,5,1.18,8.72,8.72,0,0,1,3.19,3.37,12.35,12.35,0,0,1,.51,9.28,8.89,8.89,0,0,1-1.85,3.2,8.08,8.08,0,0,1-2.85,2,10.55,10.55,0,0,1-7.89,0,7.24,7.24,0,0,1-2.86-2,7.36,7.36,0,0,1-1.68-3.2,35.61,35.61,0,0,1-.67-4,11.48,11.48,0,0,1,.67-4,7.07,7.07,0,0,1,1.85-3,8.77,8.77,0,0,1,2.85-2A6.59,6.59,0,0,1,181.3,37.54Zm5.37,9.78a8.37,8.37,0,0,0-.67-3.54,4.4,4.4,0,0,0-1.85-2.36,5.61,5.61,0,0,0-2.85-.84,10.46,10.46,0,0,0-2.19.33,6.13,6.13,0,0,0-1.67,1.18,9.07,9.07,0,0,0-1.18,2.2,5.45,5.45,0,0,0-.34,2.86,18.49,18.49,0,0,0,.34,3,4,4,0,0,0,1.18,2.19,6.69,6.69,0,0,0,1.67,1.35,3.25,3.25,0,0,0,2.19.34,4.87,4.87,0,0,0,2.68-.68,4.71,4.71,0,0,0,1.85-2.19A6.55,6.55,0,0,0,186.67,47.32Z" style="fill:#1d1d1b"/><path d="M198.93,48.67h-1.35v6.07a2.86,2.86,0,0,1-.5,1.69,1.88,1.88,0,0,1-2.69.16l-.16-.16a3.25,3.25,0,0,1-.51-1.69V40.07a3.36,3.36,0,0,1,.51-1.85,3.32,3.32,0,0,1,1.84-.51h6.21a9.48,9.48,0,0,1,2.19.17,7.44,7.44,0,0,1,1.68.34,2.64,2.64,0,0,1,1.51,1.18,3.53,3.53,0,0,1,1,1.68,9,9,0,0,1,.33,2,4.87,4.87,0,0,1-1.17,3.37,7.69,7.69,0,0,1-3.7,1.85A9,9,0,0,1,206,50a20,20,0,0,1,1.68,2.19,9,9,0,0,1,1.17,2.19,3.19,3.19,0,0,1,.34,1.35c0,.17-.17.51-.17.68l-.67.67a1.81,1.81,0,0,1-.84.17,3.11,3.11,0,0,1-1.18-.34,1.71,1.71,0,0,1-.67-.84,15.28,15.28,0,0,0-.84-1.35l-1.51-2.53A6.34,6.34,0,0,0,201.78,50a2.58,2.58,0,0,0-1.34-1A4.91,4.91,0,0,0,198.93,48.67Zm2.18-7.92h-3.53V46h3.36a11,11,0,0,0,2.35-.17,2.3,2.3,0,0,0,1.35-.84,2.91,2.91,0,0,0,.5-1.69,3.11,3.11,0,0,0-.34-1.34,3,3,0,0,0-1.17-.85,6.64,6.64,0,0,0-2.52-.33Z" style="fill:#1d1d1b"/><path d="M212.69,54.91v-15a2.81,2.81,0,0,1,.51-1.68,2.05,2.05,0,0,1,1.34-.68,1.5,1.5,0,0,1,1.34.68,3.21,3.21,0,0,1,.51,1.68v15a2.81,2.81,0,0,1-.51,1.68,2,2,0,0,1-1.34.68,1.51,1.51,0,0,1-1.34-.68A3.21,3.21,0,0,1,212.69,54.91Z" style="fill:#1d1d1b"/><path d="M233,40.91h-4.2V54.74a2.86,2.86,0,0,1-.5,1.69,2.11,2.11,0,0,1-1.34.67,1.54,1.54,0,0,1-1.35-.67,3.33,3.33,0,0,1-.5-1.69V40.91h-4.2a3.11,3.11,0,0,1-1.34-.33,1.54,1.54,0,0,1-.51-1.18,1.51,1.51,0,0,1,.51-1.18,1.29,1.29,0,0,1,1.34-.34H233a4.84,4.84,0,0,1,1.51.34A1.51,1.51,0,0,1,235,39.4a1.54,1.54,0,0,1-.51,1.18A2.53,2.53,0,0,1,233,40.91Z" style="fill:#1d1d1b"/><path d="M249.46,40.75H240.9v4.72h7.89a3.16,3.16,0,0,1,1.35.33c.33.34.5.68.33,1a1.9,1.9,0,0,1-.33,1,1.32,1.32,0,0,1-1.35.33H240.9v5.4h8.9a3.11,3.11,0,0,1,1.34.34,1.51,1.51,0,0,1,.51,1.18,1.54,1.54,0,0,1-.51,1.18,1.3,1.3,0,0,1-1.34.33H239.56a3.38,3.38,0,0,1-1.85-.5,3.47,3.47,0,0,1-.5-1.86V40.07a3.69,3.69,0,0,1,.17-1.35,2,2,0,0,1,.84-.84,1.75,1.75,0,0,1,1.34-.17h10.07a3.16,3.16,0,0,1,1.35.34c.33.33.5.67.33,1a3.27,3.27,0,0,1-.33,1.18A2.71,2.71,0,0,1,249.46,40.75Z" style="fill:#1d1d1b"/><path d="M254.67,54.91v-15a2.87,2.87,0,0,1,.5-1.68,2.07,2.07,0,0,1,1.35-.68,1.52,1.52,0,0,1,1.34.68,3.2,3.2,0,0,1,.5,1.68v15a2.8,2.8,0,0,1-.5,1.68,2.07,2.07,0,0,1-1.34.68,1.53,1.53,0,0,1-1.35-.68A3.29,3.29,0,0,1,254.67,54.91Z" style="fill:#1d1d1b"/><path d="M275,40.91h-4.2V54.74a2.86,2.86,0,0,1-.51,1.69,2.09,2.09,0,0,1-1.34.67,1.53,1.53,0,0,1-1.34-.67,3.25,3.25,0,0,1-.51-1.69V40.91H262.9a3.16,3.16,0,0,1-1.35-.33,1.56,1.56,0,0,1-.5-1.18,1.53,1.53,0,0,1,.5-1.18,1.31,1.31,0,0,1,1.35-.34H275a4.91,4.91,0,0,1,1.51.34,1.53,1.53,0,0,1,.5,1.18,1.56,1.56,0,0,1-.5,1.18A2.54,2.54,0,0,1,275,40.91Z" style="fill:#1d1d1b"/><path d="M52.38,32.81a9.2,9.2,0,0,0-11.58-5.9,9.36,9.36,0,0,0-5.71,11.8,9.22,9.22,0,0,0,11.59,5.9h0a9.22,9.22,0,0,0,5.7-11.8Z" style="fill:#e19f39"/><path d="M94.53,11.9A15.15,15.15,0,1,0,66,22a15.2,15.2,0,0,0,19.14,9.44h0A16,16,0,0,0,94.53,11.9Z" style="fill:#42833b"/><path d="M104.43,45.79A12.38,12.38,0,0,0,88.82,38h0a12.45,12.45,0,0,0,7.89,23.61h0A12.43,12.43,0,0,0,104.43,45.79Z" style="fill:#d8002b"/><path d="M67.16,46.63a5.6,5.6,0,0,0-6.88-3.54A5.59,5.59,0,0,0,63.8,53.71a5.88,5.88,0,0,0,3.36-7.08Z" style="fill:#000"/><path d="M31.06,17.13A15.14,15.14,0,0,0,11.92,7.52,15.37,15.37,0,0,0,2.35,26.74c0,.17,0,.17.17.33a15.28,15.28,0,0,0,19.14,9.61h.17A15.7,15.7,0,0,0,31.06,17.13Z" style="fill:#006f9d"/><path d="M105.94,45.28a13.9,13.9,0,0,0-17-9.1l-1.51-4a17.18,17.18,0,0,0,8.39-20.91A17,17,0,0,0,74.38.94,16.84,16.84,0,0,0,64.14,22.18c.17.34.17.51.33.85L52.38,29.27a10.8,10.8,0,0,0-8.73-4.56,10.59,10.59,0,0,0-8.73,4.56L32.4,28.09A17.27,17.27,0,0,0,22.83,6a18,18,0,0,0-6-1A17,17,0,0,0,0,22a21.41,21.41,0,0,0,.84,5.56,16.8,16.8,0,0,0,16,11.47h0a18.68,18.68,0,0,0,5.37-.85,16.19,16.19,0,0,0,8.73-6.91l2.52,1.18A11.07,11.07,0,0,0,40.46,46.3a10.77,10.77,0,0,0,3.19.5h0a8.85,8.85,0,0,0,3.53-.67A10.87,10.87,0,0,0,53.9,32.3L66,26.06a20.09,20.09,0,0,0,4.87,5.06L64.31,41.57a7.1,7.1,0,0,0-9.07,3.55,7.21,7.21,0,1,0,12.93,6.4A7.1,7.1,0,0,0,68.5,46a18.21,18.21,0,0,0-1.34-2.53L74,32.64a19.38,19.38,0,0,0,6,1.18,13,13,0,0,0,4.36-.68l1.51,4A14.35,14.35,0,0,0,92.85,64h0a14.48,14.48,0,0,0,4.53-.84,13.86,13.86,0,0,0,8.56-17.88ZM21.16,34.83a12.43,12.43,0,0,1-4.37.67h0A13.57,13.57,0,1,1,30.22,21.85V22a15.23,15.23,0,0,1-1.34,6.07A12.78,12.78,0,0,1,21.16,34.83Zm29.38,4.22a6.53,6.53,0,0,1-4.2,3.7,3.82,3.82,0,0,1-2.35.34h0A7.4,7.4,0,0,1,36.6,35.5a7.61,7.61,0,0,1,5-7.08A3.88,3.88,0,0,1,44,28.09a7.42,7.42,0,0,1,7,5.05A8.69,8.69,0,0,1,50.54,39.05ZM65.31,50.17a3.66,3.66,0,0,1-2.18,2,2.85,2.85,0,0,1-1.18.17,3.94,3.94,0,0,1-3.69-2.7,3.88,3.88,0,0,1,.17-3,3.67,3.67,0,0,1,2.18-2,2.85,2.85,0,0,1,1.18-.17,3.81,3.81,0,0,1,3.86,3.88h0a6,6,0,0,1-.34,1.85Zm2.19-29A13.44,13.44,0,0,1,75.89,4h0a13.5,13.5,0,0,1,17,8.27v.16A13.44,13.44,0,0,1,67.5,21.34Zm34.75,33.56A10.37,10.37,0,0,1,96,60.12a11.82,11.82,0,0,1-3.36.68h0a10.85,10.85,0,0,1-3.53-21.08,11.86,11.86,0,0,1,3.36-.67,10.85,10.85,0,0,1,10.75,10.79,8.33,8.33,0,0,1-1,4.89Z"/></svg>