<svg xmlns="http://www.w3.org/2000/svg" xml:space="preserve" width="314.002" height="125" style="enable-background:new 0 0 314.0018311 125">
  <path d="M0 0h314v125H0z" style="fill:none"/>
  <path d="M0 0h50v100H0z" style="fill:#154273"/>
  <path d="M25.904 77.363h-.87V74.95h.87v2.413zm3.923-10.639h-.87V64.31h.87v2.414zm-16.115-4.162c-.066 0-.516.001-.516.094s.21.045.516.097c.696.12.97.47 1.46.47.443 0 .896-.302.72-.944-.03-.107-.092-.082-.106-.009-.068.287-.42.451-.791.451-.46 0-.559-.16-1.283-.16zM8.92 64.973c.076.107.897 1.172-.363 1.579-.056.019-.075.073.009.109.93.388 1.382-.327 1.382-.327.468 1.072-.25 1.667-.25 1.667.101.193.546.516 1.222.667.256-.137.616-.4.766-.803 0 0 .182.468.016.915 1.902.173 2.575-1.347 4.04-1.074.043.008.062-.019.062-.064 0-.937-.574-2.651-2.388-2.999-1.809-.349-1.322-1.092-1.322-1.092.763-.034 1.203.298 1.203.298.14-.229-.057-.475-.057-.475.073-.088.114-.398.114-.398-.86-.002-1.085-.186-1.085-.186-.132-.51.222-1.23 1.498-.459.318-.284.294-.716.294-.716.097-.045.156-.197.156-.261 0-.213-1.02-.784-1.282-.852-.063-.31-.459-.755-1.658-.594-.567.07-.976-.079-.785-.409.032-.056-.07-.066-.122-.012-.132.131-.313.502.184.75.55.28.583.831.587.91.01.118-.131.128-.162.011-.254-.93-1.526-1.131-2.28-.636.045.498.581.827.875.827.169 0 .403-.168.403-.4 0-.113.058-.098.091-.01.125.33-.365 1.015-1.094.599-.741.741-.445 1.655-.371 1.992.133.605-.163 1.191-.708.918-.028-.013-.056-.024-.056.041 0 .381.496.81 1.08.484zm4.083-3.738c-.346.386-.91.298-1.045-.34.71-.036 1.016.035 1.045.34zm22.069 1.486c-.372 0-.723-.164-.791-.45-.015-.074-.078-.1-.106.008-.176.642.277.943.72.943.49 0 .764-.35 1.46-.47.306-.05.515-.003.515-.096s-.45-.094-.516-.094c-.724 0-.823.16-1.282.16zm7.155 1.768c0-.065-.027-.054-.055-.04-.545.272-.84-.314-.708-.919.074-.337.37-1.25-.371-1.992-.73.416-1.22-.268-1.095-.6.034-.087.091-.102.091.01 0 .233.234.401.403.401.294 0 .83-.329.875-.827-.753-.495-2.025-.295-2.279.636-.031.117-.172.107-.163-.01.005-.08.038-.632.588-.91.496-.25.315-.62.184-.75-.054-.055-.155-.045-.123.011.192.33-.217.479-.784.409-1.2-.161-1.595.285-1.658.594-.263.068-1.282.64-1.282.852 0 .064.06.216.156.26 0 0-.024.433.294.717 1.275-.77 1.629-.05 1.498.46 0 0-.226.183-1.085.185 0 0 .04.31.114.398 0 0-.197.246-.057.475 0 0 .44-.332 1.203-.298 0 0 .487.743-1.323 1.092-1.813.348-2.387 2.062-2.387 3 0 .044.019.071.061.063 1.466-.273 2.138 1.247 4.04 1.074-.165-.447.017-.915.017-.915.15.404.51.666.766.803.675-.151 1.12-.474 1.221-.667 0 0-.717-.595-.249-1.667 0 0 .451.715 1.382.327.084-.036.064-.09.01-.109-1.262-.407-.44-1.472-.364-1.579.585.327 1.08-.103 1.08-.484zm-4.118-3.593c-.136.637-.7.725-1.045.34.029-.306.334-.377 1.045-.34zM24.7 50.212c0 .16.07.301.124.38.112.159.095.246.042.3-.052.053-.14.07-.3-.042a.68.68 0 0 0-.38-.124c-.274 0-.41.18-.41.334 0 .154.136.334.41.334.161 0 .301-.069.38-.125.16-.11.248-.094.3-.04.053.051-.025.603-.086 1.037-.454.095-.673.459-.673.67 0 .547.584.863.927 1.046.343-.183.928-.499.928-1.045 0-.212-.22-.576-.673-.671-.062-.434-.14-.986-.087-1.038.053-.053.14-.07.3.041a.68.68 0 0 0 .38.125c.274 0 .41-.18.41-.334 0-.154-.136-.334-.41-.334a.68.68 0 0 0-.38.124c-.16.112-.247.095-.3.041-.052-.053-.07-.14.042-.3a.687.687 0 0 0 .125-.379c0-.274-.18-.41-.335-.41-.154 0-.334.136-.334.41zm.334 4.06a.666.666 0 1 0-.002 1.332.666.666 0 0 0 .002-1.331zm0 6.412c2.669 0 4.174.509 4.174.509.015-1.348.006-2.1.779-1.987-.423-1.133 1.398-1.577 1.398-3.054 0-.972-.688-1.082-.89-1.082-.605 0-.51.392-1.024.392-.064 0-.13-.015-.13.031 0 .17.145.46.38.46.316 0 .323-.315.557-.315.102 0 .247.082.247.406 0 .627-.41 1.323-.896 1.862-.112-.154-.264-.25-.445-.25-.287 0-.54.3-.54.67a.82.82 0 0 0 .072.352c-.162.09-.306.142-.414.142-.219 0-.549-.089-.549-.57 0-1.068 1.434-2.01 1.434-3.366 0-.647-.432-1.292-1.336-1.292-.969 0-.788.885-1.627.885-.038 0-.069.012-.069.046 0 .056.146.546.58.546.464 0 .594-.803 1.005-.803.154 0 .383.09.383.634 0 .423-.21 1.106-.51 1.762a.604.604 0 0 0-.423-.189c-.36 0-.617.348-.617.763a.94.94 0 0 0 .281.683c-.211.27-.427.491-.72.491-.58 0-.836-.329-.836-.687 0-.388.707-.528.707-1.133 0-.411-.267-.643-.524-.643-.277 0-.419.183-.447.183-.028 0-.17-.183-.447-.183-.257 0-.524.232-.524.643 0 .605.707.745.707 1.133 0 .358-.256.687-.834.687-.294 0-.51-.22-.722-.49a.941.941 0 0 0 .282-.684c0-.415-.258-.763-.618-.763a.604.604 0 0 0-.422.189c-.3-.656-.51-1.339-.51-1.762 0-.544.23-.634.383-.634.41 0 .54.803 1.006.803.433 0 .579-.49.579-.546 0-.034-.032-.046-.07-.046-.838 0-.658-.885-1.626-.885-.904 0-1.336.645-1.336 1.292 0 1.356 1.434 2.298 1.434 3.367 0 .48-.33.569-.55.569-.108 0-.251-.052-.414-.142a.82.82 0 0 0 .072-.352c0-.37-.252-.67-.54-.67-.181 0-.332.096-.444.25-.486-.539-.896-1.235-.896-1.862 0-.324.145-.406.246-.406.235 0 .242.315.557.315.236 0 .38-.29.38-.46 0-.046-.065-.03-.129-.03-.515 0-.42-.393-1.023-.393-.204 0-.891.11-.891 1.082 0 1.477 1.82 1.921 1.398 3.054.773-.113.763.64.778 1.987 0 0 1.506-.51 4.174-.51zm-4.892 1.99c-.727.16-1.248.31-1.481.381.012-.32.134-.618.42-.684.036-.01.045-.058.011-.081-.647-.43-.994.394-1.004.42-.23-.017-.579.055-.579.365 0 .927-2.12 1.442-2.612 1.518.866.334 1.227 1.426 1.227 1.426.629-.63 1.364-1.184 1.526-1.184.167 0 .23.21.244.335.004.04.042.054.068.018.33-.49.171-.602.145-.746-.021-.115.012-.544.492-.494v6.188l-.247.05c-.113.02-1.018-.75-2.054-1.467-1.036-.716-1.592-.287-2.774.352-1.546.837-3.11.078-3.11.078-1.333.953-1.786 3.706-1.786 3.706a3.08 3.08 0 0 1-1.123.234c-1.018 0-1.205-.616-1.205-.984 0-1.57 1.967-2.245 1.967-3.793 0-.375-.173-1.903-2.063-1.903l-1.691-.003c-.708 0-.885-.51-.983-.704-.038-.076-.11-.032-.083.028.055.13-.081.327-.081.72 0 .629.37 1.007 1.057 1.007.313 0 .607-.09.703-.146.064-.037.097.024.068.058-.3.35-.324 1.006-.2 1.165.028.038.065.028.072-.003.166-.664.788-1.292 1.626-1.292 1.025 0 1.02.872 1.02 1.082 0 1.26-2.213 2.185-2.213 3.918 0 1.757 1.856 2.134 2.932 1.855-.063 1.76-2.077 2.359-2.138 1.1-.004-.06-.048-.074-.08.005-.255.622-.155 1.17.63 1.343.052.013.027.042-.022.075-.776.494-.355 2.433-.317 3.004.058.822-.76.724-.826.7-.034-.013-.067.004-.015.069.58.71 1.296.06 1.296.06.541.17.206.632-.155.874-.057.038-.052.075.01.08.08.005.918.075 1.067-.592.37.443.916.281 1.03.223.162-.083.946-.368 1.025.514.004.064.042.023.067-.01.593-.746-.042-1.206-.395-1.26a.598.598 0 0 1 .931.11c.029.038.056.046.061-.028.05-.946-.72-1.032-1.218-.621-.023-.097-.19-.629.563-.61.018 0 .054-.027.016-.064-.584-.617-1.064-.056-1.175.078-.26.307-.908.185-.967.177.203-3.287 3.098-2.123 3.496-3.72.019-.085.057-.053.065-.022.11.39 1.092.444 1.272-.324.01-.048.004-.085-.03-.049-.838.837-2.726-1.78-.15-3.907 2.2-1.813 4.17-.802 4.92-.205.04.263-.117.347-.217.38-.036.01-.047.043.01.066.21.08.505.054.643-.142.473.33.068.745-.123.86-.048.031-.027.063.013.07.434.079.79-.364.808-.619l.073.042v1.867c0 2.66 3.068 3.029 6.435 5.284 3.367-2.255 6.435-2.624 6.435-5.284v-1.867l.074-.042c.017.255.374.698.808.62.04-.008.06-.04.013-.07-.191-.116-.596-.531-.123-.861.138.196.433.221.643.142.056-.023.046-.056.01-.067-.1-.032-.257-.116-.217-.379.75-.597 2.72-1.608 4.92.205 2.576 2.127.688 4.744-.15 3.907-.035-.036-.04.001-.03.05.18.767 1.163.713 1.272.323.008-.03.046-.063.065.022.398 1.597 3.293.433 3.496 3.72-.06.008-.707.13-.967-.177-.111-.134-.591-.695-1.175-.078-.038.037-.003.064.016.064.752-.019.586.513.562.61-.497-.411-1.267-.325-1.217.62.004.075.032.067.06.03a.598.598 0 0 1 .932-.111c-.353.054-.988.514-.395 1.26.025.033.062.074.067.01.078-.882.862-.597 1.024-.514.115.058.66.22 1.031-.223.149.667.987.597 1.068.591.06-.004.065-.04.01-.08-.362-.24-.697-.702-.156-.872 0 0 .716.65 1.296-.061.051-.065.018-.082-.015-.07-.067.025-.885.123-.826-.7.038-.57.459-2.51-.317-3.003-.05-.033-.075-.062-.021-.075.784-.174.884-.72.63-1.343-.033-.08-.077-.065-.081-.005-.061 1.259-2.075.66-2.138-1.1 1.075.279 2.932-.098 2.932-1.855 0-1.733-2.214-2.657-2.214-3.918 0-.21-.005-1.082 1.02-1.082.838 0 1.46.628 1.627 1.292.006.03.044.041.073.003.123-.16.1-.815-.2-1.165-.031-.034.003-.095.067-.058.095.057.39.146.703.146.687 0 1.057-.378 1.057-1.007 0-.393-.136-.59-.081-.72.027-.06-.046-.104-.083-.028-.099.195-.276.704-.983.704l-1.692.003c-1.89 0-2.063 1.528-2.063 1.903 0 1.548 1.967 2.222 1.967 3.793 0 .368-.187.984-1.205.984-.417 0-.857-.12-1.122-.234 0 0-.453-2.753-1.787-3.706 0 0-1.564.759-3.109-.078-1.182-.64-1.739-1.068-2.775-.352-1.036.717-1.94 1.486-2.053 1.466l-.248-.049v-6.188c.48-.05.514.38.493.494-.026.144-.184.256.145.746.025.036.063.023.067-.018.014-.125.077-.335.244-.335.162 0 .898.555 1.527 1.184 0 0 .361-1.092 1.227-1.426-.492-.076-2.613-.59-2.613-1.518 0-.31-.35-.382-.578-.365-.011-.026-.358-.85-1.005-.42a.044.044 0 0 0 .012.08c.286.067.408.364.42.685-.618-.19-3.25-.928-6.374-.928a22.87 22.87 0 0 0-4.022.375v2.145h-.87v-1.972M14.38 84.648c-.231-.093-.384-.241-.384-.545V82.77c-.38-.134-1.424-.532-3.505-.532-1.73 0-2.272.39-2.297.528l-.46 2.536s.7-.64 3.209-.476c3.022.192 6.152 1.975 6.152.074v-1.118c-2.368 0-2.715.753-2.715.865zm18.592-.865v1.118c0 1.901 3.13.118 6.152-.074 2.508-.164 3.209.476 3.209.476l-.46-2.536c-.025-.138-.567-.528-2.297-.528-2.08 0-3.125.398-3.505.532v1.332c0 .304-.153.452-.384.545 0-.112-.347-.865-2.715-.865zm-7.939-1.151c4.866 0 9.807.254 10.453.988.051.058.073-.001.073-.045v-2.579c0-.752-5.097-1.19-10.526-1.19-5.429 0-10.526.438-10.526 1.19l.001 2.579c0 .044.022.103.073.045.646-.734 5.587-.988 10.452-.988zm-4.34-12.159-.491-.127-.041.06-.571-.25.51-.004c.048 0 .051-.03.026-.054l-.436-.427.563.21c.038.012.052-.015.034-.04-.159-.236-.376-.551-.376-.551l.553.37c.03.021.054.001.041-.03l-.261-.647.504.477c.023.02.05.009.043-.023l-.14-.647.37.541c.022.032.05.023.05-.015l.013-.591.235.54c.016.038.043.04.063-.007l.19-.458.023.616-.083.016-.103.741c.735-.172 1.65-1.428 2.352-1.428.835 0 1.14.979 2.684.482.39.577.526 1.079.676 1.773.596.56 1.434.374 1.434-.22 0-.8-.873-.953-.873-1.787 0-.373.262-.909.974-.909.377 0 .93.162 1.247.162.377 0 .458-.273.5-.386.035-.085.137-.057.127.01-.012.077.044.186.044.365 0 .528-.768.597-.863.532-.04-.028-.069.015-.04.037.115.093.09.408-.048.608-.016.022-.038.018-.042-.003-.083-.378-.526-.845-.917-.845-.144 0-.43.084-.43.415 0 .475.951.908.951 1.892 0 1.023-1.013 1.268-2.032 1.013.035.969 1.48 1.545 1.515.852.002-.048.028-.018.043.001.214.296.116.522-.157.636.252.114.297.622.371.926.111.455.594.203.618.19.026-.016.035-.002.024.027-.183.474-.668.295-.668.295-.255.179.053.34.284.408.034.01.032.035.005.045-.17.063-.534.177-.71-.128-.132.315-.4.306-.505.306-.186 0-.31.191-.267.446.004.022-.012.029-.028.016-.444-.295-.19-.64-.01-.727-.031-.019-.337-.146-.467.212-.01.028-.027.03-.037.003-.194-.516.23-.666.534-.536-.02-.073-.18-.325-.582-.244-.018.005-.03-.003-.018-.028.065-.158.264-.391.628-.155.186.115.507-.053.536-.068-.647-1.288-1.905-.21-2.186-1.219-.005-.021-.03-.04-.048.016-.067.215-.615.23-.716-.194-.008-.033.005-.037.026-.016.08.081.253.154.48-.173.15-.217.17-.506.17-.702 0-.784-.782-2.099-2.003-2.099-.77 0-1.6.301-2.215.75l.573.131a.887.887 0 0 1-1.124.775l.09-.663c-.09.027-.315.107-.435.278-.008.013-.026.01-.03-.005-.105-.376.205-.565.302-.614.01-.007.01-.015-.01-.015a.551.551 0 0 0-.478.264c-.007.01-.02.008-.023-.001-.022-.07-.071-.263.059-.4zm1.703 4.478c-.22.268-.412.012-.7.012-.271 0-.316.227-.323.317-.001.016-.01.023-.022.006-.307-.42.036-.648.236-.678-.029-.03-.33-.232-.523.046-.015.02-.033.01-.033-.013-.01-.52.403-.557.675-.329.05-.196-.078-.329-.298-.34-.027 0-.031-.017-.02-.029.092-.1.181-.144.271-.144.29 0 .327.366.516.366.284 0 .685-.382.724-.423-.008-.022-.28-.757-.226-1.197.003-.019-.007-.021-.02-.013-.137.077-.485.074-.485-.354 0-.035.01-.037.03-.01.152.211.4-.026.523-.165.134-.15.847-1.189 1.8-1.189.21.001.48.115.698.267-.329.4-.002.784.242.734.028-.005.033.022.006.031-1.26.474-1.822.663-1.822 1.718 0 .55.188.855.511.784.025-.007.031.004.014.022a.473.473 0 0 1-.364.186c-.262 0-.309-.143-.45-.143-.144 0-.613.276-.613.507 0 .087.055.205.221.314.01.007.005.016-.004.017-.106.02-.478.052-.564-.3zm3.317-10.253c-.394-.024-.646.063-.634.19.191.2.446.178.634-.19zm-1.454.973c.278-.07.585-.037.617-.026.044.014.043.08-.007.087-.58.075-.607.341-.977.341-.244 0-.508-.245-.409-.607.013-.047.05-.048.06-.004.037.156.263.326.716.21zM16.73 78.53c.385.492.754.03 1.257.03.246 0 .546.083.603.576.002.025.024.033.048 0 .549-.75-.077-1.174-.437-1.228.078-.07.615-.4.955.087.019.027.056.019.056-.018 0-.95-.712-1.016-1.227-.605-.097-.37.182-.614.541-.614.043 0 .058-.03.036-.055-.636-.682-1.112.175-1.22.312-.255.338-1.163-.297-1.526-.675 0 0 .803-.841.803-1.61 0-.046-.005-.11-.005-.137 0-.024.01-.033.032-.02a.62.62 0 0 0 .296.077c.184 0 .53-.058.53-.711 0-.05-.022-.047-.043-.017-.095.138-.2.168-.282.168-.648 0-2.001-2.162-3.597-2.162-.417 0-1.206.301-1.605.732.193.114.23.348.21.519-.03.274-.247.41-.47.472-.04.01-.043.038 0 .056.806.308 2.273.863 2.606 1.15.394.34.317.984.088 1.871-.22.853-.692.737-.866.709-.025-.004-.034.012-.018.032.209.262.461.35.678.35.419 0 .575-.26.792-.26.365 0 1.128.523 1.128.92 0 .223-.174.426-.399.572-.015.01-.012.028.01.032.174.03.889.09 1.027-.553zm17.634.553c.022-.004.025-.021.011-.032-.225-.146-.4-.349-.4-.572 0-.397.763-.92 1.128-.92.217 0 .374.26.792.26.217 0 .47-.088.679-.35.015-.02.006-.036-.018-.032-.174.028-.646.144-.866-.709-.229-.887-.306-1.532.088-1.871.333-.287 1.8-.842 2.606-1.15.043-.018.04-.047 0-.056-.223-.062-.44-.198-.47-.472-.02-.171.016-.405.21-.519-.399-.431-1.189-.732-1.605-.732-1.596 0-2.95 2.162-3.598 2.162-.08 0-.186-.03-.281-.168-.021-.03-.044-.032-.044.017 0 .653.346.71.53.71a.623.623 0 0 0 .297-.076c.02-.013.031-.004.031.02 0 .026-.005.091-.005.136 0 .77.804 1.61.804 1.61-.364.379-1.272 1.014-1.526.676-.108-.137-.585-.994-1.22-.312-.022.025-.007.055.036.055.358 0 .637.244.541.614-.515-.411-1.227-.345-1.227.605 0 .037.037.045.056.018.34-.488.877-.158.954-.087-.36.054-.985.477-.436 1.228.024.033.045.025.048 0 .057-.493.357-.577.602-.577.504 0 .872.463 1.257-.03.138.644.853.583 1.026.554zM21.45 66.608c-.051.07-.22-.003-.283-.032-.015-.007-.017 0-.012.01.04.09.202.361.443.361.108 0 .267-.063.312-.136 0 0 .94.305 1.405.433-.18.24-.293.53-.316.844-.375-.23-1.874-1.035-1.874-1.035l-.465.636c-.077.105-.449-.166-.372-.272l.355-.486c-.117-.124-.4-.046-.477-.024-.011.003-.021-.002-.011-.02.045-.096.221-.39.663-.258.002-.27-.4-.183-.505-.154-.013.003-.017-.003-.005-.015.108-.116.435-.38.8-.164l.16-.219-.322-.338.201-.277.226.303 1.73-2.37c.043-.058.386-.158.516-.186.013.133.028.488-.013.547l-1.703 2.391.36.119-.2.278-.423-.198-.19.262zm6.07-.388c0 .218.134.536.425.445.014-.007.028-.003.024.012-.044.242-.477.464-.674.177-.175.37-.135.717.244.921.02.012.024.038 0 .056a.494.494 0 0 1-.74-.189c-.31.234-.266.733-.077.902 0 .003-.86.511-1.64.148-.517-.248-.938-.565-1.605-.514.092-.935.56-1.182 1.42-1.316.687-.111.774-.427.676-.665-.233-.063-.66.152-.66.152-.078-.129.034-.263.034-.263-.043-.051-.064-.224-.064-.224.48 0 .565-.106.565-.106.086-.5-.423-.553-.811-.284-.18-.159-.152-.371-.152-.371-.053-.027-.087-.11-.087-.146 0-.118.57-.44.716-.476.037-.166.244-.396.849-.341.072-.16-.045-.746-.12-.904-.023-.047.011-.074.064-.04.212.133.422.627.565.636 0 0 .68-.357.714-.337.032.019.129.779.129.779.09.111.615.002.845.1.058.026.055.068.004.076-.172.03-.72.265-.81.417.314.47.166 1.164.166 1.355z" style="fill:#fff"/>
  <path d="m61.426 64.371 4.9-8.558h-2.714c-.62 0-1.038.342-1.271 1.055l-.109.341h-.496l.186-2.31h6.031l.14.34-4.868 8.606h2.744c.992 0 1.318-.295 1.612-1.101l.093-.295h.496l-.248 2.31h-6.356l-.14-.388zM72.637 57.255c1.907 0 3.38 1.427 3.38 3.581 0 2.559-1.784 4.17-3.628 4.17-1.876 0-3.395-1.317-3.395-3.58 0-2.543 1.736-4.17 3.643-4.17zm-.155 6.853c1.039 0 2.123-1.007 2.123-3.132 0-1.814-.976-2.821-2.077-2.821-1.07 0-2.124 1.07-2.124 3.116 0 1.875.977 2.837 2.078 2.837zM76.986 64.495c.404-.154.823-.465.823-.837v-5.24L76.8 58v-.341a7.286 7.286 0 0 1 1.86-.28h.372v1.085h.016l.433-.48c.42-.45.837-.682 1.365-.682.543 0 .805.233.805.666 0 .295-.092.636-.248.93a1.567 1.567 0 0 0-.96-.356c-.481 0-.93.217-1.365.636v4.93l1.07.233v.294c-.527.186-1.039.263-1.922.263-.45 0-.884-.03-1.24-.14v-.263zM83.496 62.496v-.016c-.697-.28-1.394-1.085-1.394-2.155 0-1.737 1.394-3.07 3.085-3.07.635 0 1.41.264 1.673.512.28-.264.869-.496 1.365-.496.263 0 .511.046.667.093l-.109 1.023a7.805 7.805 0 0 0-1.659-.17v.015c.512.388.884 1.054.884 1.69 0 1.798-1.473 3.023-3.147 3.023-.341 0-.698-.077-.962-.186-.232.14-.496.466-.496.744 0 .466.388.714.993.714l2.17-.016c1.302-.015 2.03.589 2.03 1.737 0 1.472-1.627 2.712-3.782 2.712-1.953 0-2.96-.79-2.96-1.813 0-.822.635-1.488 1.472-1.722v-.014c-.574-.203-.915-.62-.915-1.21s.496-1.194 1.085-1.395zm1.52 5.255c1.472 0 2.449-.729 2.449-1.473 0-.604-.403-.945-1.147-.945h-2.496c-.449.201-.79.713-.79 1.24 0 .636.682 1.178 1.984 1.178zm1.628-7.783c0-1.302-.729-1.922-1.55-1.922-.884 0-1.628.837-1.628 2.186 0 1.302.728 1.938 1.488 1.938.945 0 1.69-.682 1.69-2.202zM89.744 64.495c.42-.154.822-.465.822-.837v-5.24L89.574 58v-.326c.697-.202 1.41-.295 1.845-.295h.496l-.078.837v5.892l.868.233v.294c-.527.186-1.008.263-1.798.263-.356 0-.806-.03-1.163-.14v-.263zm.652-9.426c0-.48.34-.914.883-.914.434 0 .806.325.806.837 0 .543-.372.961-.868.961-.465 0-.821-.372-.821-.884zM93.767 64.495c.403-.154.82-.465.82-.837v-5.24L93.582 58v-.341a7.286 7.286 0 0 1 1.86-.28h.372v.837c.527-.527 1.395-.868 2.294-.868 1.288 0 2.171.822 2.171 2.42v4.34l.806.233v.294c-.418.17-.961.263-1.628.263-.325 0-.697-.03-1.008-.14v-.263c.388-.17.559-.465.559-1.022V60.51c0-1.52-.636-2.093-1.55-2.093-.637 0-1.256.217-1.598.48v5.21l.869.233v.294c-.527.186-1.023.263-1.798.263-.372 0-.807-.03-1.163-.14v-.263zM102.129 63.085c.697.651 1.364.977 2.185.977.869 0 1.319-.42 1.319-.961 0-.544-.31-.885-1.334-1.319l-.775-.325c-.899-.388-1.395-1.039-1.395-1.923 0-1.224 1.085-2.279 2.697-2.279 1.24 0 1.736.372 1.736.961 0 .233-.03.435-.077.652-.496-.341-1.178-.59-1.767-.59-.992 0-1.457.434-1.457.962 0 .558.278.868 1.209 1.224l.837.326c1.116.434 1.535 1.008 1.535 1.922 0 1.194-1.148 2.28-2.884 2.28-1.364 0-1.969-.434-1.969-1.271 0-.218.047-.466.14-.636zM108.437 60.526l.045-2.062h-.852v-.51l1.675-1.66.511-.062-.062 1.395h2.047l-.11.837h-1.984l-.03 1.954c-.016.65-.016 1.24-.016 1.814 0 1.256.372 1.69.945 1.69.45 0 .837-.155 1.148-.403l.155.062c-.062.914-.604 1.38-1.675 1.38-1.24 0-1.844-.651-1.844-2.156 0-.744.03-1.565.047-2.279zM112.715 64.495c.419-.154.822-.465.822-.837v-5.24l-.992-.418v-.326c.697-.202 1.41-.295 1.845-.295h.496l-.078.837v5.892l.868.233v.294c-.528.186-1.008.263-1.798.263-.357 0-.807-.03-1.163-.14v-.263zm.651-9.426c0-.48.341-.914.884-.914.434 0 .806.325.806.837 0 .543-.372.961-.868.961-.465 0-.822-.372-.822-.884zM117.135 60.526l.046-2.062h-.853v-.51l1.675-1.66.512-.062-.063 1.395h2.047l-.108.837h-1.985l-.031 1.954c-.016.65-.016 1.24-.016 1.814 0 1.256.372 1.69.946 1.69.45 0 .838-.155 1.147-.403l.155.062c-.062.914-.604 1.38-1.674 1.38-1.24 0-1.845-.651-1.845-2.156 0-.744.031-1.565.047-2.279zM122.104 58.418l-.884-.434v-.325c.697-.202 1.301-.295 1.736-.295h.512l-.093.868v3.504c0 1.628.51 2.155 1.503 2.155a2.98 2.98 0 0 0 1.52-.45v-5.023l-.9-.434v-.325c.714-.202 1.318-.295 1.752-.295h.512l-.093.868v5.24c.108.264.34.543.589.806-.233.248-.666.543-1.054.729a2.064 2.064 0 0 1-.73-.899c-.386.357-1.27.822-2.232.822-1.317 0-2.138-.76-2.138-2.543v-3.969zM129.942 58.418l-.883-.434v-.325c.697-.202 1.301-.295 1.736-.295h.512l-.094.868v3.504c0 1.628.512 2.155 1.504 2.155a2.98 2.98 0 0 0 1.52-.45v-5.023l-.9-.434v-.325c.714-.202 1.318-.295 1.752-.295h.512l-.093.868v5.24c.108.264.34.543.589.806-.233.248-.667.543-1.054.729a2.055 2.055 0 0 1-.729-.899c-.387.357-1.271.822-2.232.822-1.318 0-2.14-.76-2.14-2.543v-3.969zM137.78 60.526l.046-2.062h-.852v-.51l1.674-1.66.512-.062-.062 1.395h2.047l-.11.837h-1.984l-.03 1.954c-.016.65-.016 1.24-.016 1.814 0 1.256.372 1.69.945 1.69.45 0 .837-.155 1.148-.403l.155.062c-.063.914-.605 1.38-1.675 1.38-1.24 0-1.845-.651-1.845-2.156 0-.744.032-1.565.047-2.279zM144.662 64.465c.682-.187.9-.528.9-1.364v-7.458l-.977-.264v-.449a13.585 13.585 0 0 1 1.705-.109h.573l4.31 7.085.031-.015v-6.294l-.992-.248v-.326c.512-.155 1.023-.264 1.55-.264.62 0 .9.047 1.302.171v.279c-.681.217-.883.496-.883 1.458v8.123l-.729.17-4.898-8.077-.016.016v7.163l.945.248v.34c-.449.171-.899.264-1.41.264-.62 0-1.039-.047-1.41-.155v-.294zM157.201 57.271c1.675 0 2.682 1.116 2.682 2.899 0 .294 0 .604-.015.992h-4.573c0 1.736 1.007 2.744 2.294 2.744.76 0 1.597-.263 2.185-.666.032.077.063.248.063.403 0 .698-1.024 1.348-2.667 1.348-1.767 0-3.21-1.379-3.21-3.55 0-2.697 1.629-4.17 3.241-4.17zm1.442 3.085c0-1.52-.65-2.248-1.566-2.248-.852 0-1.752 1.023-1.752 2.248h3.318zM164.615 57.287c.372 0 .822.046 1.07.108v-2.728l-1.054-.42v-.34a7.712 7.712 0 0 1 1.923-.28h.496l-.093.869v8.883c.108.31.294.636.589.9-.31.279-.651.495-1.085.728a2.808 2.808 0 0 1-.744-.93c-.496.512-1.35.884-1.985.884-1.566 0-2.822-1.303-2.822-3.365 0-2.79 1.69-4.31 3.705-4.31zm1.086 6.17v-5.132a3.782 3.782 0 0 0-1.132-.17c-1.318 0-2.31 1.038-2.31 3.193 0 1.69.884 2.605 1.86 2.605.59 0 1.225-.202 1.582-.496zM171.791 57.271c1.675 0 2.682 1.116 2.682 2.899 0 .294 0 .604-.015.992h-4.573c0 1.736 1.007 2.744 2.294 2.744.76 0 1.596-.263 2.185-.666.032.077.063.248.063.403 0 .698-1.024 1.348-2.667 1.348-1.767 0-3.21-1.379-3.21-3.55 0-2.697 1.629-4.17 3.241-4.17zm1.441 3.085c0-1.52-.65-2.248-1.565-2.248-.853 0-1.752 1.023-1.752 2.248h3.317zM175.47 64.495c.404-.154.823-.465.823-.837v-5.24L175.285 58v-.341a7.286 7.286 0 0 1 1.86-.28h.373v1.085h.015l.434-.48c.419-.45.837-.682 1.364-.682.543 0 .806.233.806.666 0 .295-.093.636-.248.93a1.567 1.567 0 0 0-.961-.356c-.48 0-.93.217-1.365.636v4.93l1.07.233v.294c-.527.186-1.038.263-1.922.263-.45 0-.884-.03-1.24-.14v-.263zM180.437 64.495c.403-.154.82-.465.82-.837v-8.991l-1.006-.42v-.34a7.286 7.286 0 0 1 1.86-.28h.496l-.078.869v9.612l.868.233v.294c-.526.186-1.022.263-1.797.263-.372 0-.807-.03-1.163-.14v-.263zM188.226 60.744v-.42c0-1.673-.403-2.03-1.38-2.03-.853 0-1.674.357-2.325 1.008a2.303 2.303 0 0 1-.046-.466c0-.992.728-1.565 2.542-1.565 1.565 0 2.496.79 2.496 2.077 0 .341-.047 1.116-.062 1.566l-.047 2.512c.109.28.341.573.62.79-.232.28-.651.59-1.054.79a2.105 2.105 0 0 1-.713-.759c-.434.419-1.272.744-2.093.744-1.163 0-1.969-.728-1.969-1.72 0-1.365 1.489-2.527 4.03-2.527zm-1.489 3.318c.482 0 1.1-.187 1.489-.42v-2.17c-1.751 0-2.698.729-2.698 1.566 0 .62.42 1.024 1.21 1.024zM191.099 64.495c.403-.154.82-.465.82-.837v-5.24L190.914 58v-.341a7.286 7.286 0 0 1 1.86-.28h.373v.837c.526-.527 1.394-.868 2.293-.868 1.288 0 2.171.822 2.171 2.42v4.34l.806.233v.294c-.418.17-.96.263-1.628.263-.325 0-.697-.03-1.008-.14v-.263c.388-.17.559-.465.559-1.022V60.51c0-1.52-.636-2.093-1.55-2.093-.637 0-1.256.217-1.598.48v5.21l.869.233v.294c-.527.186-1.023.263-1.798.263-.372 0-.807-.03-1.163-.14v-.263zM202.904 57.287c.372 0 .823.046 1.07.108v-2.728l-1.054-.42v-.34a7.712 7.712 0 0 1 1.923-.28h.496l-.093.869v8.883c.108.31.294.636.589.9-.31.279-.651.495-1.085.728a2.808 2.808 0 0 1-.744-.93c-.496.512-1.35.884-1.985.884-1.566 0-2.822-1.303-2.822-3.365 0-2.79 1.69-4.31 3.705-4.31zm1.086 6.17v-5.132a3.782 3.782 0 0 0-1.132-.17c-1.318 0-2.31 1.038-2.31 3.193 0 1.69.884 2.605 1.86 2.605.59 0 1.225-.202 1.582-.496z"/>
  <path d="M0 0h314v125H0z" style="fill:none"/>
</svg>
